<?xml version="1.0" encoding="us-ascii" standalone="no"?><svg xmlns="http://www.w3.org/2000/svg" xmlns:xlink="http://www.w3.org/1999/xlink" contentStyleType="text/css" height="560px" preserveAspectRatio="none" style="width:1036px;height:560px;background:#FFFFFF;" version="1.1" viewBox="0 0 1036 560" width="1036px" zoomAndPan="magnify"><defs/><g><text fill="#000000" font-family="sans-serif" font-size="14" font-weight="bold" lengthAdjust="spacing" textLength="266" x="378.25" y="22.9951">&#1057;2 "as is" microservices diagram</text><!--cluster AdminPanel--><g id="cluster_AdminPanel"><path d="M213,43.2969 L309,43.2969 A3.75,3.75 0 0 1 311.5,45.7969 L318.5,65.5938 L374,65.5938 A2.5,2.5 0 0 1 376.5,68.0938 L376.5,258.7969 A2.5,2.5 0 0 1 374,261.2969 L213,261.2969 A2.5,2.5 0 0 1 210.5,258.7969 L210.5,45.7969 A2.5,2.5 0 0 1 213,43.2969 " fill="none" style="stroke:#000000;stroke-width:1.5;"/><line style="stroke:#000000;stroke-width:1.5;" x1="210.5" x2="318.5" y1="65.5938" y2="65.5938"/><text fill="#000000" font-family="sans-serif" font-size="14" font-weight="bold" lengthAdjust="spacing" textLength="95" x="214.5" y="58.292">AdminPanel</text></g><!--cluster Practix--><g id="cluster_Practix"><path d="M403,43.2969 L462,43.2969 A3.75,3.75 0 0 1 464.5,45.7969 L471.5,65.5938 L609,65.5938 A2.5,2.5 0 0 1 611.5,68.0938 L611.5,550.7969 A2.5,2.5 0 0 1 609,553.2969 L403,553.2969 A2.5,2.5 0 0 1 400.5,550.7969 L400.5,45.7969 A2.5,2.5 0 0 1 403,43.2969 " fill="none" style="stroke:#000000;stroke-width:1.5;"/><line style="stroke:#000000;stroke-width:1.5;" x1="400.5" x2="471.5" y1="65.5938" y2="65.5938"/><text fill="#000000" font-family="sans-serif" font-size="14" font-weight="bold" lengthAdjust="spacing" textLength="58" x="404.5" y="58.292">Practix</text></g><!--cluster ETL--><g id="cluster_ETL"><path d="M427,310.2969 L457,310.2969 A3.75,3.75 0 0 1 459.5,312.7969 L466.5,332.5938 L585,332.5938 A2.5,2.5 0 0 1 587.5,335.0938 L587.5,526.7969 A2.5,2.5 0 0 1 585,529.2969 L427,529.2969 A2.5,2.5 0 0 1 424.5,526.7969 L424.5,312.7969 A2.5,2.5 0 0 1 427,310.2969 " fill="none" style="stroke:#000000;stroke-width:1.5;"/><line style="stroke:#000000;stroke-width:1.5;" x1="424.5" x2="466.5" y1="332.5938" y2="332.5938"/><text fill="#000000" font-family="sans-serif" font-size="14" font-weight="bold" lengthAdjust="spacing" textLength="29" x="428.5" y="325.292">ETL</text></g><!--cluster UMS--><g id="cluster_UMS"><path d="M912,43.2969 L948,43.2969 A3.75,3.75 0 0 1 950.5,45.7969 L957.5,65.5938 L1027,65.5938 A2.5,2.5 0 0 1 1029.5,68.0938 L1029.5,258.7969 A2.5,2.5 0 0 1 1027,261.2969 L912,261.2969 A2.5,2.5 0 0 1 909.5,258.7969 L909.5,45.7969 A2.5,2.5 0 0 1 912,43.2969 " fill="none" style="stroke:#000000;stroke-width:1.5;"/><line style="stroke:#000000;stroke-width:1.5;" x1="909.5" x2="957.5" y1="65.5938" y2="65.5938"/><text fill="#000000" font-family="sans-serif" font-size="14" font-weight="bold" lengthAdjust="spacing" textLength="35" x="913.5" y="58.292">UMS</text></g><!--entity Panel--><g id="elem_Panel"><rect fill="#F1F1F1" height="46.2969" rx="2.5" ry="2.5" style="stroke:#181818;stroke-width:0.5;" width="79" x="254" y="78.2969"/><rect fill="#F1F1F1" height="10" style="stroke:#181818;stroke-width:0.5;" width="15" x="313" y="83.2969"/><rect fill="#F1F1F1" height="2" style="stroke:#181818;stroke-width:0.5;" width="4" x="311" y="85.2969"/><rect fill="#F1F1F1" height="2" style="stroke:#181818;stroke-width:0.5;" width="4" x="311" y="89.2969"/><text fill="#000000" font-family="sans-serif" font-size="14" lengthAdjust="spacing" textLength="39" x="269" y="111.292">Panel</text></g><!--entity AdminDatabase--><g id="elem_AdminDatabase"><path d="M226.5,210.2969 C226.5,200.2969 293.5,200.2969 293.5,200.2969 C293.5,200.2969 360.5,200.2969 360.5,210.2969 L360.5,235.5938 C360.5,245.5938 293.5,245.5938 293.5,245.5938 C293.5,245.5938 226.5,245.5938 226.5,235.5938 L226.5,210.2969 " fill="#F1F1F1" style="stroke:#181818;stroke-width:0.5;"/><path d="M226.5,210.2969 C226.5,220.2969 293.5,220.2969 293.5,220.2969 C293.5,220.2969 360.5,220.2969 360.5,210.2969 " fill="none" style="stroke:#181818;stroke-width:0.5;"/><text fill="#000000" font-family="sans-serif" font-size="14" lengthAdjust="spacing" textLength="114" x="236.5" y="237.292">AdminDatabase</text></g><!--entity PractixAPI--><g id="elem_PractixAPI"><rect fill="#F1F1F1" height="46.2969" rx="2.5" ry="2.5" style="stroke:#181818;stroke-width:0.5;" width="113" x="422" y="78.2969"/><rect fill="#F1F1F1" height="10" style="stroke:#181818;stroke-width:0.5;" width="15" x="515" y="83.2969"/><rect fill="#F1F1F1" height="2" style="stroke:#181818;stroke-width:0.5;" width="4" x="513" y="85.2969"/><rect fill="#F1F1F1" height="2" style="stroke:#181818;stroke-width:0.5;" width="4" x="513" y="89.2969"/><text fill="#000000" font-family="sans-serif" font-size="14" lengthAdjust="spacing" textLength="73" x="437" y="111.292">PractixAPI</text></g><!--entity SearchEngine--><g id="elem_SearchEngine"><path d="M419.5,210.2969 C419.5,200.2969 478.5,200.2969 478.5,200.2969 C478.5,200.2969 537.5,200.2969 537.5,210.2969 L537.5,235.5938 C537.5,245.5938 478.5,245.5938 478.5,245.5938 C478.5,245.5938 419.5,245.5938 419.5,235.5938 L419.5,210.2969 " fill="#F1F1F1" style="stroke:#181818;stroke-width:0.5;"/><path d="M419.5,210.2969 C419.5,220.2969 478.5,220.2969 478.5,220.2969 C478.5,220.2969 537.5,220.2969 537.5,210.2969 " fill="none" style="stroke:#181818;stroke-width:0.5;"/><text fill="#000000" font-family="sans-serif" font-size="14" lengthAdjust="spacing" textLength="98" x="429.5" y="237.292">SearchEngine</text></g><!--entity ETLService--><g id="elem_ETLService"><rect fill="#F1F1F1" height="46.2969" rx="2.5" ry="2.5" style="stroke:#181818;stroke-width:0.5;" width="119" x="441" y="345.2969"/><rect fill="#F1F1F1" height="10" style="stroke:#181818;stroke-width:0.5;" width="15" x="540" y="350.2969"/><rect fill="#F1F1F1" height="2" style="stroke:#181818;stroke-width:0.5;" width="4" x="538" y="352.2969"/><rect fill="#F1F1F1" height="2" style="stroke:#181818;stroke-width:0.5;" width="4" x="538" y="356.2969"/><text fill="#000000" font-family="sans-serif" font-size="14" lengthAdjust="spacing" textLength="79" x="456" y="378.292">ETLService</text></g><!--entity StateStorage--><g id="elem_StateStorage"><path d="M441,478.2969 C441,468.2969 499.5,468.2969 499.5,468.2969 C499.5,468.2969 558,468.2969 558,478.2969 L558,503.5938 C558,513.5938 499.5,513.5938 499.5,513.5938 C499.5,513.5938 441,513.5938 441,503.5938 L441,478.2969 " fill="#F1F1F1" style="stroke:#181818;stroke-width:0.5;"/><path d="M441,478.2969 C441,488.2969 499.5,488.2969 499.5,488.2969 C499.5,488.2969 558,488.2969 558,478.2969 " fill="none" style="stroke:#181818;stroke-width:0.5;"/><text fill="#000000" font-family="sans-serif" font-size="14" lengthAdjust="spacing" textLength="97" x="451" y="505.292">StateStorage</text></g><!--entity API--><g id="elem_API"><rect fill="#F1F1F1" height="46.2969" rx="2.5" ry="2.5" style="stroke:#181818;stroke-width:0.5;" width="63" x="938" y="78.2969"/><rect fill="#F1F1F1" height="10" style="stroke:#181818;stroke-width:0.5;" width="15" x="981" y="83.2969"/><rect fill="#F1F1F1" height="2" style="stroke:#181818;stroke-width:0.5;" width="4" x="979" y="85.2969"/><rect fill="#F1F1F1" height="2" style="stroke:#181818;stroke-width:0.5;" width="4" x="979" y="89.2969"/><text fill="#000000" font-family="sans-serif" font-size="14" lengthAdjust="spacing" textLength="23" x="953" y="111.292">API</text></g><!--entity Database--><g id="elem_Database"><path d="M925.5,210.2969 C925.5,200.2969 969.5,200.2969 969.5,200.2969 C969.5,200.2969 1013.5,200.2969 1013.5,210.2969 L1013.5,235.5938 C1013.5,245.5938 969.5,245.5938 969.5,245.5938 C969.5,245.5938 925.5,245.5938 925.5,235.5938 L925.5,210.2969 " fill="#F1F1F1" style="stroke:#181818;stroke-width:0.5;"/><path d="M925.5,210.2969 C925.5,220.2969 969.5,220.2969 969.5,220.2969 C969.5,220.2969 1013.5,220.2969 1013.5,210.2969 " fill="none" style="stroke:#181818;stroke-width:0.5;"/><text fill="#000000" font-family="sans-serif" font-size="14" lengthAdjust="spacing" textLength="68" x="935.5" y="237.292">Database</text></g><!--entity User--><g id="elem_User"><ellipse cx="694.5" cy="71.7969" fill="#F1F1F1" rx="8" ry="8" style="stroke:#181818;stroke-width:0.5;"/><path d="M694.5,79.7969 L694.5,106.7969 M681.5,87.7969 L707.5,87.7969 M694.5,106.7969 L681.5,121.7969 M694.5,106.7969 L707.5,121.7969 " fill="none" style="stroke:#181818;stroke-width:0.5;"/><text fill="#000000" font-family="sans-serif" font-size="14" lengthAdjust="spacing" textLength="31" x="679" y="136.292">User</text></g><!--entity AdminUser--><g id="elem_AdminUser"><ellipse cx="44.5" cy="71.7969" fill="#F1F1F1" rx="8" ry="8" style="stroke:#181818;stroke-width:0.5;"/><path d="M44.5,79.7969 L44.5,106.7969 M31.5,87.7969 L57.5,87.7969 M44.5,106.7969 L31.5,121.7969 M44.5,106.7969 L57.5,121.7969 " fill="none" style="stroke:#181818;stroke-width:0.5;"/><text fill="#000000" font-family="sans-serif" font-size="14" lengthAdjust="spacing" textLength="77" x="6" y="136.292">AdminUser</text></g><!--link AdminUser to Panel--><g id="link_AdminUser_Panel"><path d="M83.133,101.2969 C129.577,101.2969 201.105,101.2969 247.953,101.2969 " fill="none" id="AdminUser-to-Panel" style="stroke:#181818;stroke-width:1.0;"/><polygon fill="#181818" points="253.953,101.2969,244.953,97.2969,248.953,101.2969,244.953,105.2969,253.953,101.2969" style="stroke:#181818;stroke-width:1.0;"/><text fill="#000000" font-family="sans-serif" font-size="13" lengthAdjust="spacing" textLength="134" x="101.5" y="94.3638">Manage movies data</text></g><!--reverse link PractixAPI to User--><g id="link_PractixAPI_User"><path d="M541.251,101.2969 C589.249,101.2969 648.828,101.2969 678.617,101.2969 " fill="none" id="PractixAPI-backto-User" style="stroke:#181818;stroke-width:1.0;"/><polygon fill="#181818" points="535.251,101.2969,544.251,105.2969,540.251,101.2969,544.251,97.2969,535.251,101.2969" style="stroke:#181818;stroke-width:1.0;"/><text fill="#000000" font-family="sans-serif" font-size="13" lengthAdjust="spacing" textLength="107" x="553.5" y="94.3638">Get movies data</text></g><!--link User to API--><g id="link_User_API"><path d="M710.073,101.2969 C753.818,101.2969 872.463,101.2969 931.608,101.2969 " fill="none" id="User-to-API" style="stroke:#181818;stroke-width:1.0;"/><polygon fill="#181818" points="937.608,101.2969,928.608,97.2969,932.608,101.2969,928.608,105.2969,937.608,101.2969" style="stroke:#181818;stroke-width:1.0;"/><text fill="#000000" font-family="sans-serif" font-size="13" lengthAdjust="spacing" textLength="191" x="728.5" y="94.3638">Manage user data and access</text></g><!--link Panel to AdminDatabase--><g id="link_Panel_AdminDatabase"><path d="M293.5,124.4939 C293.5,146.0929 293.5,172.7019 293.5,194.1219 " fill="none" id="Panel-to-AdminDatabase" style="stroke:#181818;stroke-width:1.0;"/><polygon fill="#181818" points="293.5,200.1219,297.5,191.1219,293.5,195.1219,289.5,191.1219,293.5,200.1219" style="stroke:#181818;stroke-width:1.0;"/></g><!--link PractixAPI to SearchEngine--><g id="link_PractixAPI_SearchEngine"><path d="M478.5,124.4939 C478.5,146.0929 478.5,172.7019 478.5,194.1219 " fill="none" id="PractixAPI-to-SearchEngine" style="stroke:#181818;stroke-width:1.0;"/><polygon fill="#181818" points="478.5,200.1219,482.5,191.1219,478.5,195.1219,474.5,191.1219,478.5,200.1219" style="stroke:#181818;stroke-width:1.0;"/></g><!--link ETLService to StateStorage--><g id="link_ETLService_StateStorage"><path d="M500.317,391.3989 C500.135,413.2769 499.9088,440.5551 499.7288,462.2411 " fill="none" id="ETLService-to-StateStorage" style="stroke:#181818;stroke-width:1.0;"/><polygon fill="#181818" points="499.679,468.2409,503.7536,459.2744,499.7205,463.241,495.7538,459.208,499.679,468.2409" style="stroke:#181818;stroke-width:1.0;"/><text fill="#000000" font-family="sans-serif" font-size="13" lengthAdjust="spacing" textLength="94" x="501.5" y="434.3638">Manage states</text></g><!--reverse link AdminDatabase to ETLService--><g id="link_AdminDatabase_ETLService"><path d="M285.1973,251.3455 C281.7743,266.3955 281.576,280.3189 291.5,294.2969 C325.097,341.6189 391.774,358.5139 440.819,364.4119 " fill="none" id="AdminDatabase-backto-ETLService" style="stroke:#181818;stroke-width:1.0;"/><polygon fill="#181818" points="286.528,245.4949,280.6316,253.3836,285.4191,250.3704,288.4324,255.1579,286.528,245.4949" style="stroke:#181818;stroke-width:1.0;"/><text fill="#000000" font-family="sans-serif" font-size="13" lengthAdjust="spacing" textLength="107" x="292.5" y="290.3638">Get movies data</text></g><!--reverse link SearchEngine to ETLService--><g id="link_SearchEngine_ETLService"><path d="M482.7503,251.5226 C486.8613,278.3366 492.896,317.7009 497.055,344.8229 " fill="none" id="SearchEngine-backto-ETLService" style="stroke:#181818;stroke-width:1.0;"/><polygon fill="#181818" points="481.841,245.5919,479.2511,255.0941,482.5987,250.5341,487.1587,253.8817,481.841,245.5919" style="stroke:#181818;stroke-width:1.0;"/><text fill="#000000" font-family="sans-serif" font-size="13" lengthAdjust="spacing" textLength="115" x="490.5" y="290.3638">Load movies data</text></g><!--link API to Database--><g id="link_API_Database"><path d="M969.5,124.4939 C969.5,146.0929 969.5,172.7019 969.5,194.1219 " fill="none" id="API-to-Database" style="stroke:#181818;stroke-width:1.0;"/><polygon fill="#181818" points="969.5,200.1219,973.5,191.1219,969.5,195.1219,965.5,191.1219,969.5,200.1219" style="stroke:#181818;stroke-width:1.0;"/></g><!--SRC=[RL5BJiCm4DtFAKRTTzCb2wGAAeJKIfL23p1rJ68riIFRAI3Kmt0ZZiGupiS9tSNpVZClxg9qGvPgF9Eu5DQqEdyobR7uKIelmOsuC7LZjDG-yr-LnBQkDW1UUVx-_TdWYXmgjy9Q2MkSj5SbfCDSKS5Y01AUFKyCz9_Rl5QwUqF3oLJ8E3gIbXL-0qw1sCruafEdCxcU-To_u3PP72sxgy-bFawtnzVK99DaHRdJXT8I61WyTc_xJfywy2oBDtN0vE79ouplOI4ZjtINqo5RxB5O83rWh0FNLXMbNp_6g_413wI3NMskAZJA8eZ4IhvtlF4w9hz8VuSvM4PERzW6A92GT8ua-7yvW9Yw3kHPoP3417JUtjHF19DQfa0Nfcx6RPjbq9qR_WdIRERl3UKp0GnB3gP_]--></g></svg>