<?xml version="1.0" encoding="us-ascii" standalone="no"?><svg xmlns="http://www.w3.org/2000/svg" xmlns:xlink="http://www.w3.org/1999/xlink" contentStyleType="text/css" height="423px" preserveAspectRatio="none" style="width:666px;height:423px;background:#FFFFFF;" version="1.1" viewBox="0 0 666 423" width="666px" zoomAndPan="magnify"><defs/><g><text fill="#000000" font-family="sans-serif" font-size="14" font-weight="bold" lengthAdjust="spacing" textLength="130" x="261" y="22.9951">&#1057;3 UGC diagram</text><!--cluster UGC--><g id="cluster_UGC"><path d="M193.5,181.7969 L227.5,181.7969 A3.75,3.75 0 0 1 230,184.2969 L237,204.0938 L656.5,204.0938 A2.5,2.5 0 0 1 659,206.5938 L659,413.7969 A2.5,2.5 0 0 1 656.5,416.2969 L193.5,416.2969 A2.5,2.5 0 0 1 191,413.7969 L191,184.2969 A2.5,2.5 0 0 1 193.5,181.7969 " fill="none" style="stroke:#000000;stroke-width:1.5;"/><line style="stroke:#000000;stroke-width:1.5;" x1="191" x2="237" y1="204.0938" y2="204.0938"/><text fill="#000000" font-family="sans-serif" font-size="14" font-weight="bold" lengthAdjust="spacing" textLength="33" x="195" y="196.792">UGC</text></g><!--entity APIWebFramework--><g id="elem_APIWebFramework"><rect fill="#F1F1F1" height="46.2969" rx="2.5" ry="2.5" style="stroke:#181818;stroke-width:0.5;" width="176" x="467" y="216.7969"/><rect fill="#F1F1F1" height="10" style="stroke:#181818;stroke-width:0.5;" width="15" x="623" y="221.7969"/><rect fill="#F1F1F1" height="2" style="stroke:#181818;stroke-width:0.5;" width="4" x="621" y="223.7969"/><rect fill="#F1F1F1" height="2" style="stroke:#181818;stroke-width:0.5;" width="4" x="621" y="227.7969"/><text fill="#000000" font-family="sans-serif" font-size="14" lengthAdjust="spacing" textLength="136" x="482" y="249.792">APIWebFramework</text></g><!--entity OLTPStorage--><g id="elem_OLTPStorage"><path d="M446,365.2969 C446,355.2969 503,355.2969 503,355.2969 C503,355.2969 560,355.2969 560,365.2969 L560,390.5938 C560,400.5938 503,400.5938 503,400.5938 C503,400.5938 446,400.5938 446,390.5938 L446,365.2969 " fill="#F1F1F1" style="stroke:#181818;stroke-width:0.5;"/><path d="M446,365.2969 C446,375.2969 503,375.2969 503,375.2969 C503,375.2969 560,375.2969 560,365.2969 " fill="none" style="stroke:#181818;stroke-width:0.5;"/><text fill="#000000" font-family="sans-serif" font-size="14" lengthAdjust="spacing" textLength="94" x="456" y="392.292">OLTPStorage</text></g><!--entity UGCETL--><g id="elem_UGCETL"><rect fill="#F1F1F1" height="46.2969" rx="2.5" ry="2.5" style="stroke:#181818;stroke-width:0.5;" width="96" x="207" y="216.7969"/><rect fill="#F1F1F1" height="10" style="stroke:#181818;stroke-width:0.5;" width="15" x="283" y="221.7969"/><rect fill="#F1F1F1" height="2" style="stroke:#181818;stroke-width:0.5;" width="4" x="281" y="223.7969"/><rect fill="#F1F1F1" height="2" style="stroke:#181818;stroke-width:0.5;" width="4" x="281" y="227.7969"/><text fill="#000000" font-family="sans-serif" font-size="14" lengthAdjust="spacing" textLength="56" x="222" y="249.792">UGCETL</text></g><!--entity OLAPStorage--><g id="elem_OLAPStorage"><path d="M207.5,365.2969 C207.5,355.2969 265,355.2969 265,355.2969 C265,355.2969 322.5,355.2969 322.5,365.2969 L322.5,390.5938 C322.5,400.5938 265,400.5938 265,400.5938 C265,400.5938 207.5,400.5938 207.5,390.5938 L207.5,365.2969 " fill="#F1F1F1" style="stroke:#181818;stroke-width:0.5;"/><path d="M207.5,365.2969 C207.5,375.2969 265,375.2969 265,375.2969 C265,375.2969 322.5,375.2969 322.5,365.2969 " fill="none" style="stroke:#181818;stroke-width:0.5;"/><text fill="#000000" font-family="sans-serif" font-size="14" lengthAdjust="spacing" textLength="95" x="217.5" y="392.292">OLAPStorage</text></g><!--entity User--><g id="elem_User"><ellipse cx="555" cy="51.2969" fill="#F1F1F1" rx="8" ry="8" style="stroke:#181818;stroke-width:0.5;"/><path d="M555,59.2969 L555,86.2969 M542,67.2969 L568,67.2969 M555,86.2969 L542,101.2969 M555,86.2969 L568,101.2969 " fill="none" style="stroke:#181818;stroke-width:0.5;"/><text fill="#000000" font-family="sans-serif" font-size="14" lengthAdjust="spacing" textLength="31" x="539.5" y="115.792">User</text></g><!--entity AnalystUser--><g id="elem_AnalystUser"><ellipse cx="48" cy="348.2969" fill="#F1F1F1" rx="8" ry="8" style="stroke:#181818;stroke-width:0.5;"/><path d="M48,356.2969 L48,383.2969 M35,364.2969 L61,364.2969 M48,383.2969 L35,398.2969 M48,383.2969 L61,398.2969 " fill="none" style="stroke:#181818;stroke-width:0.5;"/><text fill="#000000" font-family="sans-serif" font-size="14" lengthAdjust="spacing" textLength="84" x="6" y="412.792">AnalystUser</text></g><!--link User to APIWebFramework--><g id="link_User_APIWebFramework"><path d="M555,119.0039 C555,149.2899 555,185.0409 555,210.4099 " fill="none" id="User-to-APIWebFramework" style="stroke:#181818;stroke-width:1.0;"/><polygon fill="#181818" points="555,216.4099,559,207.4099,555,211.4099,551,207.4099,555,216.4099" style="stroke:#181818;stroke-width:1.0;"/><text fill="#000000" font-family="sans-serif" font-size="13" lengthAdjust="spacing" textLength="69" x="556" y="161.8638">Manage gc</text></g><!--link AnalystUser to OLAPStorage--><g id="link_AnalystUser_OLAPStorage"><path d="M90.0971,377.7969 C123.498,377.7969 164.541,377.7969 201.427,377.7969 " fill="none" id="AnalystUser-to-OLAPStorage" style="stroke:#181818;stroke-width:1.0;"/><polygon fill="#181818" points="207.427,377.7969,198.427,373.7969,202.427,377.7969,198.427,381.7969,207.427,377.7969" style="stroke:#181818;stroke-width:1.0;"/><text fill="#000000" font-family="sans-serif" font-size="13" lengthAdjust="spacing" textLength="81" x="108.25" y="370.8638">Get users gc</text></g><!--link APIWebFramework to OLTPStorage--><g id="link_APIWebFramework_OLTPStorage"><path d="M546.53,262.9499 C536.802,288.3909 523.0909,324.2526 513.4379,349.4985 " fill="none" id="APIWebFramework-to-OLTPStorage" style="stroke:#181818;stroke-width:1.0;"/><polygon fill="#181818" points="511.295,355.1028,518.2455,348.1249,513.0807,350.4325,510.7731,345.2678,511.295,355.1028" style="stroke:#181818;stroke-width:1.0;"/><text fill="#000000" font-family="sans-serif" font-size="13" lengthAdjust="spacing" textLength="63" x="535" y="305.8638">Load UGC</text></g><!--link UGCETL to OLTPStorage--><g id="link_UGCETL_OLTPStorage"><path d="M303.243,250.7029 C336.036,258.8079 379.548,272.3179 414,292.7969 C441.944,309.4069 464.3011,331.6722 480.9671,350.517 " fill="none" id="UGCETL-to-OLTPStorage" style="stroke:#181818;stroke-width:1.0;"/><polygon fill="#181818" points="484.942,355.0115,481.9761,345.6198,481.6296,351.2661,475.9834,350.9196,484.942,355.0115" style="stroke:#181818;stroke-width:1.0;"/><text fill="#000000" font-family="sans-serif" font-size="13" lengthAdjust="spacing" textLength="55" x="440" y="305.8638">Get UGC</text></g><!--link UGCETL to UGCETL--><g id="link_UGCETL_UGCETL"><path d="M303.18,228.6029 C322.153,228.0379 338,231.7699 338,239.7969 C338,247.8239 328.1503,251.7345 309.1773,251.1695 " fill="none" id="UGCETL-to-UGCETL" style="stroke:#181818;stroke-width:1.0;"/><polygon fill="#181818" points="303.18,250.9909,312.0569,255.257,308.1778,251.1397,312.2951,247.2605,303.18,250.9909" style="stroke:#181818;stroke-width:1.0;"/><text fill="#000000" font-family="sans-serif" font-size="13" lengthAdjust="spacing" textLength="99" x="344" y="244.3638">Transform UGC</text></g><!--link UGCETL to OLAPStorage--><g id="link_UGCETL_OLAPStorage"><path d="M256.629,262.9499 C258.5,288.3909 261.1091,323.873 262.9651,349.1189 " fill="none" id="UGCETL-to-OLAPStorage" style="stroke:#181818;stroke-width:1.0;"/><polygon fill="#181818" points="263.405,355.1028,266.7344,345.8337,263.0384,350.1162,258.7559,346.4203,263.405,355.1028" style="stroke:#181818;stroke-width:1.0;"/><text fill="#000000" font-family="sans-serif" font-size="13" lengthAdjust="spacing" textLength="147" x="261" y="305.8638">Load transformed UGC</text></g><!--SRC=[ROv1QiCm44NtEiLSm9jsvqN1X3OKN1g8GzTZIrM4RSb8OqmeFKnlr2DrfCQk7ReRPjwy_qDhx80UUwYnQRLtevKxrpaFqzcG4c6vDwuVd5MMZdJf58nzToS46UBv- -iUJliTI8EQKI6m8JQSWlBNiR3ONGAbZH03Hw5MwUT3m9yQYiFpcwgVMA8cvrk-IIIiCIXuBQl3aLtyk7bXoMDLRibY8JyvBgP29jraiuVR1CZX1MqienknQWcPD_fC_B2oCRnN12FVG-J5hMmEMNNDeNGeOqikagh-HrtDaPeX1dx772gFDhmxts-0nRBkby9evbKA_W40]--></g></svg>