<?xml version="1.0" encoding="us-ascii" standalone="no"?><svg xmlns="http://www.w3.org/2000/svg" xmlns:xlink="http://www.w3.org/1999/xlink" contentStyleType="text/css" height="685px" preserveAspectRatio="none" style="width:801px;height:685px;background:#FFFFFF;" version="1.1" viewBox="0 0 801 685" width="801px" zoomAndPan="magnify"><defs/><g><text fill="#000000" font-family="sans-serif" font-size="14" font-weight="bold" lengthAdjust="spacing" textLength="33" x="380.25" y="40.6357">UGC</text><line style="stroke:#181818;stroke-width:0.5;stroke-dasharray:5.0,5.0;" x1="61" x2="61" y1="131.2344" y2="589.3594"/><line style="stroke:#181818;stroke-width:0.5;stroke-dasharray:5.0,5.0;" x1="168" x2="168" y1="131.2344" y2="589.3594"/><line style="stroke:#181818;stroke-width:0.5;stroke-dasharray:5.0,5.0;" x1="301.5" x2="301.5" y1="131.2344" y2="589.3594"/><line style="stroke:#181818;stroke-width:0.5;stroke-dasharray:5.0,5.0;" x1="387.5" x2="387.5" y1="131.2344" y2="589.3594"/><line style="stroke:#181818;stroke-width:0.5;stroke-dasharray:5.0,5.0;" x1="476" x2="476" y1="131.2344" y2="589.3594"/><line style="stroke:#181818;stroke-width:0.5;stroke-dasharray:5.0,5.0;" x1="570.5" x2="570.5" y1="131.2344" y2="589.3594"/><line style="stroke:#181818;stroke-width:0.5;stroke-dasharray:5.0,5.0;" x1="659.5" x2="659.5" y1="131.2344" y2="589.3594"/><line style="stroke:#181818;stroke-width:0.5;stroke-dasharray:5.0,5.0;" x1="750.5" x2="750.5" y1="131.2344" y2="589.3594"/><text fill="#000000" font-family="sans-serif" font-size="14" lengthAdjust="spacing" textLength="107" x="5" y="127.9326">&#1055;&#1086;&#1083;&#1100;&#1079;&#1086;&#1074;&#1072;&#1090;&#1077;&#1083;&#1100;</text><ellipse cx="61.5" cy="63.4375" fill="#E2E2F0" rx="8" ry="8" style="stroke:#181818;stroke-width:0.5;"/><path d="M61.5,71.4375 L61.5,98.4375 M48.5,79.4375 L74.5,79.4375 M61.5,98.4375 L48.5,113.4375 M61.5,98.4375 L74.5,113.4375 " fill="none" style="stroke:#181818;stroke-width:0.5;"/><text fill="#000000" font-family="sans-serif" font-size="14" lengthAdjust="spacing" textLength="107" x="5" y="601.3545">&#1055;&#1086;&#1083;&#1100;&#1079;&#1086;&#1074;&#1072;&#1090;&#1077;&#1083;&#1100;</text><ellipse cx="61.5" cy="613.1563" fill="#E2E2F0" rx="8" ry="8" style="stroke:#181818;stroke-width:0.5;"/><path d="M61.5,621.1563 L61.5,648.1563 M48.5,629.1563 L74.5,629.1563 M61.5,648.1563 L48.5,663.1563 M61.5,648.1563 L74.5,663.1563 " fill="none" style="stroke:#181818;stroke-width:0.5;"/><rect fill="#E2E2F0" height="30.2969" rx="2.5" ry="2.5" style="stroke:#181818;stroke-width:0.5;" width="80" x="128" y="99.9375"/><text fill="#000000" font-family="sans-serif" font-size="14" lengthAdjust="spacing" textLength="66" x="135" y="119.9326">Frontend</text><rect fill="#E2E2F0" height="30.2969" rx="2.5" ry="2.5" style="stroke:#181818;stroke-width:0.5;" width="80" x="128" y="588.3594"/><text fill="#000000" font-family="sans-serif" font-size="14" lengthAdjust="spacing" textLength="66" x="135" y="608.3545">Frontend</text><rect fill="#E2E2F0" height="30.2969" rx="2.5" ry="2.5" style="stroke:#181818;stroke-width:0.5;" width="37" x="283.5" y="99.9375"/><text fill="#000000" font-family="sans-serif" font-size="14" lengthAdjust="spacing" textLength="23" x="290.5" y="119.9326">API</text><rect fill="#E2E2F0" height="30.2969" rx="2.5" ry="2.5" style="stroke:#181818;stroke-width:0.5;" width="37" x="283.5" y="588.3594"/><text fill="#000000" font-family="sans-serif" font-size="14" lengthAdjust="spacing" textLength="23" x="290.5" y="608.3545">API</text><rect fill="#E2E2F0" height="30.2969" rx="2.5" ry="2.5" style="stroke:#181818;stroke-width:0.5;" width="81" x="347.5" y="99.9375"/><text fill="#000000" font-family="sans-serif" font-size="14" lengthAdjust="spacing" textLength="67" x="354.5" y="119.9326">EventBus</text><rect fill="#E2E2F0" height="30.2969" rx="2.5" ry="2.5" style="stroke:#181818;stroke-width:0.5;" width="81" x="347.5" y="588.3594"/><text fill="#000000" font-family="sans-serif" font-size="14" lengthAdjust="spacing" textLength="67" x="354.5" y="608.3545">EventBus</text><rect fill="#E2E2F0" height="30.2969" rx="2.5" ry="2.5" style="stroke:#181818;stroke-width:0.5;" width="34" x="459" y="99.9375"/><text fill="#000000" font-family="sans-serif" font-size="14" lengthAdjust="spacing" textLength="20" x="466" y="119.9326">Etl</text><rect fill="#E2E2F0" height="30.2969" rx="2.5" ry="2.5" style="stroke:#181818;stroke-width:0.5;" width="34" x="459" y="588.3594"/><text fill="#000000" font-family="sans-serif" font-size="14" lengthAdjust="spacing" textLength="20" x="466" y="608.3545">Etl</text><text fill="#000000" font-family="sans-serif" font-size="14" lengthAdjust="spacing" textLength="69" x="533.5" y="127.9326">MongoDB</text><path d="M553,78.9375 C553,68.9375 571,68.9375 571,68.9375 C571,68.9375 589,68.9375 589,78.9375 L589,104.9375 C589,114.9375 571,114.9375 571,114.9375 C571,114.9375 553,114.9375 553,104.9375 L553,78.9375 " fill="#E2E2F0" style="stroke:#181818;stroke-width:1.5;"/><path d="M553,78.9375 C553,88.9375 571,88.9375 571,88.9375 C571,88.9375 589,88.9375 589,78.9375 " fill="none" style="stroke:#181818;stroke-width:1.5;"/><text fill="#000000" font-family="sans-serif" font-size="14" lengthAdjust="spacing" textLength="69" x="533.5" y="601.3545">MongoDB</text><path d="M553,614.6563 C553,604.6563 571,604.6563 571,604.6563 C571,604.6563 589,604.6563 589,614.6563 L589,640.6563 C589,650.6563 571,650.6563 571,650.6563 C571,650.6563 553,650.6563 553,640.6563 L553,614.6563 " fill="#E2E2F0" style="stroke:#181818;stroke-width:1.5;"/><path d="M553,614.6563 C553,624.6563 571,624.6563 571,624.6563 C571,624.6563 589,624.6563 589,614.6563 " fill="none" style="stroke:#181818;stroke-width:1.5;"/><text fill="#000000" font-family="sans-serif" font-size="14" lengthAdjust="spacing" textLength="77" x="618.5" y="127.9326">Clickhouse</text><path d="M642,78.9375 C642,68.9375 660,68.9375 660,68.9375 C660,68.9375 678,68.9375 678,78.9375 L678,104.9375 C678,114.9375 660,114.9375 660,114.9375 C660,114.9375 642,114.9375 642,104.9375 L642,78.9375 " fill="#E2E2F0" style="stroke:#181818;stroke-width:1.5;"/><path d="M642,78.9375 C642,88.9375 660,88.9375 660,88.9375 C660,88.9375 678,88.9375 678,78.9375 " fill="none" style="stroke:#181818;stroke-width:1.5;"/><text fill="#000000" font-family="sans-serif" font-size="14" lengthAdjust="spacing" textLength="77" x="618.5" y="601.3545">Clickhouse</text><path d="M642,614.6563 C642,604.6563 660,604.6563 660,604.6563 C660,604.6563 678,604.6563 678,614.6563 L678,640.6563 C678,650.6563 660,650.6563 660,650.6563 C660,650.6563 642,650.6563 642,640.6563 L642,614.6563 " fill="#E2E2F0" style="stroke:#181818;stroke-width:1.5;"/><path d="M642,614.6563 C642,624.6563 660,624.6563 660,624.6563 C660,624.6563 678,624.6563 678,614.6563 " fill="none" style="stroke:#181818;stroke-width:1.5;"/><text fill="#000000" font-family="sans-serif" font-size="14" lengthAdjust="spacing" textLength="72" x="711.5" y="127.9326">&#1040;&#1085;&#1072;&#1083;&#1080;&#1090;&#1080;&#1082;</text><ellipse cx="750.5" cy="63.4375" fill="#E2E2F0" rx="8" ry="8" style="stroke:#181818;stroke-width:0.5;"/><path d="M750.5,71.4375 L750.5,98.4375 M737.5,79.4375 L763.5,79.4375 M750.5,98.4375 L737.5,113.4375 M750.5,98.4375 L763.5,113.4375 " fill="none" style="stroke:#181818;stroke-width:0.5;"/><text fill="#000000" font-family="sans-serif" font-size="14" lengthAdjust="spacing" textLength="72" x="711.5" y="601.3545">&#1040;&#1085;&#1072;&#1083;&#1080;&#1090;&#1080;&#1082;</text><ellipse cx="750.5" cy="613.1563" fill="#E2E2F0" rx="8" ry="8" style="stroke:#181818;stroke-width:0.5;"/><path d="M750.5,621.1563 L750.5,648.1563 M737.5,629.1563 L763.5,629.1563 M750.5,648.1563 L737.5,663.1563 M750.5,648.1563 L763.5,663.1563 " fill="none" style="stroke:#181818;stroke-width:0.5;"/><polygon fill="#181818" points="72.5,143.2344,62.5,147.2344,72.5,151.2344,68.5,147.2344" style="stroke:#181818;stroke-width:1.0;"/><polygon fill="#181818" points="156,143.2344,166,147.2344,156,151.2344,160,147.2344" style="stroke:#181818;stroke-width:1.0;"/><line style="stroke:#181818;stroke-width:1.0;" x1="66.5" x2="162" y1="147.2344" y2="147.2344"/><polygon fill="#181818" points="290,172.3672,300,176.3672,290,180.3672,294,176.3672" style="stroke:#181818;stroke-width:1.0;"/><line style="stroke:#181818;stroke-width:1.0;" x1="168" x2="296" y1="176.3672" y2="176.3672"/><text fill="#000000" font-family="sans-serif" font-size="13" lengthAdjust="spacing" textLength="51" x="175" y="171.3013">&#1054;&#1094;&#1077;&#1085;&#1082;&#1072;</text><polygon fill="#181818" points="290,201.5,300,205.5,290,209.5,294,205.5" style="stroke:#181818;stroke-width:1.0;"/><line style="stroke:#181818;stroke-width:1.0;" x1="168" x2="296" y1="205.5" y2="205.5"/><text fill="#000000" font-family="sans-serif" font-size="13" lengthAdjust="spacing" textLength="63" x="175" y="200.4341">&#1056;&#1077;&#1094;&#1077;&#1085;&#1079;&#1080;&#1103;</text><polygon fill="#181818" points="290,245.7656,300,249.7656,290,253.7656,294,249.7656" style="stroke:#181818;stroke-width:1.0;"/><line style="stroke:#181818;stroke-width:1.0;" x1="168" x2="296" y1="249.7656" y2="249.7656"/><text fill="#000000" font-family="sans-serif" font-size="13" lengthAdjust="spacing" textLength="67" x="175" y="229.5669">&#1054;&#1090;&#1083;&#1086;&#1078;&#1080;&#1090;&#1100;</text><text fill="#000000" font-family="sans-serif" font-size="13" lengthAdjust="spacing" textLength="44" x="175" y="244.6997">&#1092;&#1080;&#1083;&#1100;&#1084;</text><polygon fill="#181818" points="376,274.8984,386,278.8984,376,282.8984,380,278.8984" style="stroke:#181818;stroke-width:1.0;"/><line style="stroke:#181818;stroke-width:1.0;" x1="302" x2="382" y1="278.8984" y2="278.8984"/><text fill="#000000" font-family="sans-serif" font-size="13" lengthAdjust="spacing" textLength="62" x="309" y="273.8325">&#1047;&#1072;&#1075;&#1088;&#1091;&#1079;&#1082;&#1072;</text><polygon fill="#181818" points="464,304.0313,474,308.0313,464,312.0313,468,308.0313" style="stroke:#181818;stroke-width:1.0;"/><line style="stroke:#181818;stroke-width:1.0;" x1="388" x2="470" y1="308.0313" y2="308.0313"/><text fill="#000000" font-family="sans-serif" font-size="13" lengthAdjust="spacing" textLength="64" x="395" y="302.9653">&#1042;&#1099;&#1075;&#1088;&#1091;&#1079;&#1082;&#1072;</text><polygon fill="#181818" points="559,363.4297,569,367.4297,559,371.4297,563,367.4297" style="stroke:#181818;stroke-width:1.0;"/><line style="stroke:#181818;stroke-width:1.0;" x1="476" x2="565" y1="367.4297" y2="367.4297"/><text fill="#000000" font-family="sans-serif" font-size="13" lengthAdjust="spacing" textLength="46" x="483" y="332.0981">Extract</text><text fill="#000000" font-family="sans-serif" font-size="13" lengthAdjust="spacing" textLength="67" x="483" y="347.231">Transform</text><text fill="#000000" font-family="sans-serif" font-size="13" lengthAdjust="spacing" textLength="31" x="483" y="362.3638">Load</text><polygon fill="#181818" points="648,422.8281,658,426.8281,648,430.8281,652,426.8281" style="stroke:#181818;stroke-width:1.0;"/><line style="stroke:#181818;stroke-width:1.0;" x1="476" x2="654" y1="426.8281" y2="426.8281"/><text fill="#000000" font-family="sans-serif" font-size="13" lengthAdjust="spacing" textLength="46" x="483" y="391.4966">Extract</text><text fill="#000000" font-family="sans-serif" font-size="13" lengthAdjust="spacing" textLength="67" x="483" y="406.6294">Transform</text><text fill="#000000" font-family="sans-serif" font-size="13" lengthAdjust="spacing" textLength="31" x="483" y="421.7622">Load</text><polygon fill="#181818" points="313,436.8281,303,440.8281,313,444.8281,309,440.8281" style="stroke:#181818;stroke-width:1.0;"/><line style="stroke:#181818;stroke-width:1.0;" x1="307" x2="570" y1="440.8281" y2="440.8281"/><polygon fill="#181818" points="179,465.9609,169,469.9609,179,473.9609,175,469.9609" style="stroke:#181818;stroke-width:1.0;"/><line style="stroke:#181818;stroke-width:1.0;" x1="173" x2="301" y1="469.9609" y2="469.9609"/><text fill="#000000" font-family="sans-serif" font-size="13" lengthAdjust="spacing" textLength="51" x="185" y="464.895">&#1054;&#1094;&#1077;&#1085;&#1082;&#1072;</text><polygon fill="#181818" points="179,495.0938,169,499.0938,179,503.0938,175,499.0938" style="stroke:#181818;stroke-width:1.0;"/><line style="stroke:#181818;stroke-width:1.0;" x1="173" x2="301" y1="499.0938" y2="499.0938"/><text fill="#000000" font-family="sans-serif" font-size="13" lengthAdjust="spacing" textLength="110" x="185" y="494.0278">&#1057;&#1088;&#1077;&#1076;&#1085;&#1103;&#1103; &#1086;&#1094;&#1077;&#1085;&#1082;&#1072;</text><polygon fill="#181818" points="179,524.2266,169,528.2266,179,532.2266,175,528.2266" style="stroke:#181818;stroke-width:1.0;"/><line style="stroke:#181818;stroke-width:1.0;" x1="173" x2="301" y1="528.2266" y2="528.2266"/><text fill="#000000" font-family="sans-serif" font-size="13" lengthAdjust="spacing" textLength="63" x="185" y="523.1606">&#1056;&#1077;&#1094;&#1077;&#1085;&#1079;&#1080;&#1103;</text><polygon fill="#181818" points="179,553.3594,169,557.3594,179,561.3594,175,557.3594" style="stroke:#181818;stroke-width:1.0;"/><line style="stroke:#181818;stroke-width:1.0;" x1="173" x2="301" y1="557.3594" y2="557.3594"/><text fill="#000000" font-family="sans-serif" font-size="13" lengthAdjust="spacing" textLength="61" x="185" y="552.2935">&#1054;&#1090;&#1083;&#1086;&#1078;&#1077;&#1085;</text><polygon fill="#181818" points="671,567.3594,661,571.3594,671,575.3594,667,571.3594" style="stroke:#181818;stroke-width:1.0;"/><polygon fill="#181818" points="738.5,567.3594,748.5,571.3594,738.5,575.3594,742.5,571.3594" style="stroke:#181818;stroke-width:1.0;"/><line style="stroke:#181818;stroke-width:1.0;" x1="665" x2="744.5" y1="571.3594" y2="571.3594"/><text fill="#888888" font-family="sans-serif" font-size="10" lengthAdjust="spacing" textLength="148" x="645.5" y="14.2822">&#1050;&#1086;&#1084;&#1087;&#1086;&#1085;&#1077;&#1085;&#1090;&#1085;&#1072;&#1103; &#1076;&#1080;&#1072;&#1075;&#1088;&#1072;&#1084;&#1084;&#1072;</text><text fill="#888888" font-family="sans-serif" font-size="10" lengthAdjust="spacing" textLength="91" x="351.25" y="674.9385">&#1057;&#1090;&#1088;&#1072;&#1085;&#1080;&#1094;&#1072; 1 &#1080;&#1079; 1</text><!--SRC=[VLBDIWCn6BpdAV827deL4Moj8YXuq9kNs4tjuhefkwbub5MyA5Iy21xKli6YrYrjjxx2bpToOhlz8tO3IJOpoNmpIKCAJqQSNcX4G_f1drENSfDWJ4sRqnVrAALFSur-Y9OoxUj0ykFT2gihfUtcZad-y9nwvevINkBObF4IOwAcLSGNFtg3oi0yK8Rn0oe95F7FcYBIVirlYb1FoJkH2hKCFIUuTRZdNAzUob2NMx4Rr07pX1Qd8fRpPHsey4njbvrO9V1hvmtLYgNRqQDDYmQmdy1vdx7_FFADjSsPfsB2iGWlV9tJAm94_jH7q0xudReJGWQnjlk419MCwDjM0yMJqDoYA5lCa5aEg4L0blyylbvpWoEjwXIpF1rOofEvNwHW6UWaCJ2gLpf2CD0wYaGOrrLqWVc-4bx1dIMucbwSEVPJr3krkPIG0-xW9NRnQdFJjiztj9gzdATJhyWJD3Rdmrxbyit_0W00]--></g></svg>