<?xml version="1.0" encoding="us-ascii" standalone="no"?><svg xmlns="http://www.w3.org/2000/svg" xmlns:xlink="http://www.w3.org/1999/xlink" contentStyleType="text/css" height="2125px" preserveAspectRatio="none" style="width:1281px;height:2125px;background:#FFFFFF;" version="1.1" viewBox="0 0 1281 2125" width="1281px" zoomAndPan="magnify"><defs/><g><text fill="#000000" font-family="sans-serif" font-size="14" font-weight="bold" lengthAdjust="spacing" textLength="48" x="612.5" y="40.6357">UGC 2</text><line style="stroke:#181818;stroke-width:0.5;stroke-dasharray:5.0,5.0;" x1="65" x2="65" y1="86.2344" y2="2074.3984"/><line style="stroke:#181818;stroke-width:0.5;stroke-dasharray:5.0,5.0;" x1="365.5" x2="365.5" y1="86.2344" y2="2074.3984"/><line style="stroke:#181818;stroke-width:0.5;stroke-dasharray:5.0,5.0;" x1="534.5" x2="534.5" y1="86.2344" y2="2074.3984"/><line style="stroke:#181818;stroke-width:0.5;stroke-dasharray:5.0,5.0;" x1="691" x2="691" y1="86.2344" y2="2074.3984"/><line style="stroke:#181818;stroke-width:0.5;stroke-dasharray:5.0,5.0;" x1="870.5" x2="870.5" y1="86.2344" y2="2074.3984"/><line style="stroke:#181818;stroke-width:0.5;stroke-dasharray:5.0,5.0;" x1="1126" x2="1126" y1="86.2344" y2="2074.3984"/><line style="stroke:#181818;stroke-width:0.5;stroke-dasharray:5.0,5.0;" x1="1223" x2="1223" y1="86.2344" y2="2074.3984"/><rect fill="#E2E2F0" height="30.2969" rx="2.5" ry="2.5" style="stroke:#181818;stroke-width:0.5;" width="121" x="5" y="54.9375"/><text fill="#000000" font-family="sans-serif" font-size="14" lengthAdjust="spacing" textLength="107" x="12" y="74.9326">&#1055;&#1086;&#1083;&#1100;&#1079;&#1086;&#1074;&#1072;&#1090;&#1077;&#1083;&#1100;</text><rect fill="#E2E2F0" height="30.2969" rx="2.5" ry="2.5" style="stroke:#181818;stroke-width:0.5;" width="121" x="5" y="2073.3984"/><text fill="#000000" font-family="sans-serif" font-size="14" lengthAdjust="spacing" textLength="107" x="12" y="2093.3936">&#1055;&#1086;&#1083;&#1100;&#1079;&#1086;&#1074;&#1072;&#1090;&#1077;&#1083;&#1100;</text><rect fill="#E2E2F0" height="30.2969" rx="2.5" ry="2.5" style="stroke:#181818;stroke-width:0.5;" width="80" x="325.5" y="54.9375"/><text fill="#000000" font-family="sans-serif" font-size="14" lengthAdjust="spacing" textLength="66" x="332.5" y="74.9326">Frontend</text><rect fill="#E2E2F0" height="30.2969" rx="2.5" ry="2.5" style="stroke:#181818;stroke-width:0.5;" width="80" x="325.5" y="2073.3984"/><text fill="#000000" font-family="sans-serif" font-size="14" lengthAdjust="spacing" textLength="66" x="332.5" y="2093.3936">Frontend</text><rect fill="#E2E2F0" height="30.2969" rx="2.5" ry="2.5" style="stroke:#181818;stroke-width:0.5;" width="50" x="509.5" y="54.9375"/><text fill="#000000" font-family="sans-serif" font-size="14" lengthAdjust="spacing" textLength="36" x="516.5" y="74.9326">Flask</text><rect fill="#E2E2F0" height="30.2969" rx="2.5" ry="2.5" style="stroke:#181818;stroke-width:0.5;" width="50" x="509.5" y="2073.3984"/><text fill="#000000" font-family="sans-serif" font-size="14" lengthAdjust="spacing" textLength="36" x="516.5" y="2093.3936">Flask</text><rect fill="#E2E2F0" height="30.2969" rx="2.5" ry="2.5" style="stroke:#181818;stroke-width:0.5;" width="55" x="664" y="54.9375"/><text fill="#000000" font-family="sans-serif" font-size="14" lengthAdjust="spacing" textLength="41" x="671" y="74.9326">Kafka</text><rect fill="#E2E2F0" height="30.2969" rx="2.5" ry="2.5" style="stroke:#181818;stroke-width:0.5;" width="55" x="664" y="2073.3984"/><text fill="#000000" font-family="sans-serif" font-size="14" lengthAdjust="spacing" textLength="41" x="671" y="2093.3936">Kafka</text><rect fill="#E2E2F0" height="30.2969" rx="2.5" ry="2.5" style="stroke:#181818;stroke-width:0.5;" width="34" x="853.5" y="54.9375"/><text fill="#000000" font-family="sans-serif" font-size="14" lengthAdjust="spacing" textLength="20" x="860.5" y="74.9326">Etl</text><rect fill="#E2E2F0" height="30.2969" rx="2.5" ry="2.5" style="stroke:#181818;stroke-width:0.5;" width="34" x="853.5" y="2073.3984"/><text fill="#000000" font-family="sans-serif" font-size="14" lengthAdjust="spacing" textLength="20" x="860.5" y="2093.3936">Etl</text><rect fill="#E2E2F0" height="30.2969" rx="2.5" ry="2.5" style="stroke:#181818;stroke-width:0.5;" width="83" x="1085" y="54.9375"/><text fill="#000000" font-family="sans-serif" font-size="14" lengthAdjust="spacing" textLength="69" x="1092" y="74.9326">MongoDB</text><rect fill="#E2E2F0" height="30.2969" rx="2.5" ry="2.5" style="stroke:#181818;stroke-width:0.5;" width="83" x="1085" y="2073.3984"/><text fill="#000000" font-family="sans-serif" font-size="14" lengthAdjust="spacing" textLength="69" x="1092" y="2093.3936">MongoDB</text><rect fill="#E2E2F0" height="30.2969" rx="2.5" ry="2.5" style="stroke:#181818;stroke-width:0.5;" width="91" x="1178" y="54.9375"/><text fill="#000000" font-family="sans-serif" font-size="14" lengthAdjust="spacing" textLength="77" x="1185" y="74.9326">Clickhouse</text><rect fill="#E2E2F0" height="30.2969" rx="2.5" ry="2.5" style="stroke:#181818;stroke-width:0.5;" width="91" x="1178" y="2073.3984"/><text fill="#000000" font-family="sans-serif" font-size="14" lengthAdjust="spacing" textLength="77" x="1185" y="2093.3936">Clickhouse</text><rect fill="#EEEEEE" height="3" style="stroke:#EEEEEE;stroke-width:1.0;" width="1274" x="0" y="116.8008"/><line style="stroke:#000000;stroke-width:1.0;" x1="0" x2="1274" y1="116.8008" y2="116.8008"/><line style="stroke:#000000;stroke-width:1.0;" x1="0" x2="1274" y1="119.8008" y2="119.8008"/><rect fill="#EEEEEE" height="23.1328" style="stroke:#000000;stroke-width:2.0;" width="138" x="568" y="106.2344"/><text fill="#000000" font-family="sans-serif" font-size="13" font-weight="bold" lengthAdjust="spacing" textLength="119" x="574" y="122.3013">&#1054;&#1094;&#1077;&#1085;&#1080;&#1090;&#1100; &#1092;&#1080;&#1083;&#1100;&#1084;</text><polygon fill="#181818" points="353.5,156.5,363.5,160.5,353.5,164.5,357.5,160.5" style="stroke:#181818;stroke-width:1.0;"/><line style="stroke:#181818;stroke-width:1.0;" x1="65.5" x2="359.5" y1="160.5" y2="160.5"/><text fill="#000000" font-family="sans-serif" font-size="13" lengthAdjust="spacing" textLength="120" x="72.5" y="155.4341">&#1087;&#1086;&#1089;&#1090;&#1072;&#1074;&#1080;&#1090;&#1100; &#1086;&#1094;&#1077;&#1085;&#1082;&#1091;</text><polygon fill="#181818" points="522.5,185.6328,532.5,189.6328,522.5,193.6328,526.5,189.6328" style="stroke:#181818;stroke-width:1.0;"/><line style="stroke:#181818;stroke-width:1.0;" x1="365.5" x2="528.5" y1="189.6328" y2="189.6328"/><text fill="#000000" font-family="sans-serif" font-size="13" lengthAdjust="spacing" textLength="130" x="372.5" y="184.5669">POST api/v1/route_1</text><polygon fill="#181818" points="679.5,214.7656,689.5,218.7656,679.5,222.7656,683.5,218.7656" style="stroke:#181818;stroke-width:1.0;"/><line style="stroke:#181818;stroke-width:1.0;" x1="534.5" x2="685.5" y1="218.7656" y2="218.7656"/><text fill="#000000" font-family="sans-serif" font-size="13" lengthAdjust="spacing" textLength="133" x="541.5" y="213.6997">&#1086;&#1090;&#1087;&#1088;&#1072;&#1074;&#1082;&#1072; &#1074; &#1086;&#1095;&#1077;&#1088;&#1077;&#1076;&#1100;</text><polygon fill="#181818" points="858.5,259.0313,868.5,263.0313,858.5,267.0313,862.5,263.0313" style="stroke:#181818;stroke-width:1.0;"/><line style="stroke:#181818;stroke-width:1.0;" x1="691.5" x2="864.5" y1="263.0313" y2="263.0313"/><text fill="#000000" font-family="sans-serif" font-size="13" lengthAdjust="spacing" textLength="151" x="698.5" y="242.8325">&#1087;&#1086;&#1083;&#1091;&#1095;&#1077;&#1085;&#1080;&#1077; &#1089;&#1086;&#1086;&#1073;&#1097;&#1077;&#1085;&#1080;&#1081;</text><text fill="#000000" font-family="sans-serif" font-size="13" lengthAdjust="spacing" textLength="76" x="698.5" y="257.9653">&#1080;&#1079; &#1086;&#1095;&#1077;&#1088;&#1077;&#1076;&#1080;</text><polygon fill="#181818" points="1114.5,288.1641,1124.5,292.1641,1114.5,296.1641,1118.5,292.1641" style="stroke:#181818;stroke-width:1.0;"/><line style="stroke:#181818;stroke-width:1.0;" x1="870.5" x2="1120.5" y1="292.1641" y2="292.1641"/><text fill="#000000" font-family="sans-serif" font-size="13" lengthAdjust="spacing" textLength="153" x="877.5" y="287.0981">&#1079;&#1072;&#1075;&#1088;&#1091;&#1079;&#1082;&#1072; &#1074; &#1093;&#1088;&#1072;&#1085;&#1080;&#1083;&#1080;&#1097;&#1077;</text><polygon fill="#181818" points="1211.5,317.2969,1221.5,321.2969,1211.5,325.2969,1215.5,321.2969" style="stroke:#181818;stroke-width:1.0;"/><line style="stroke:#181818;stroke-width:1.0;" x1="870.5" x2="1217.5" y1="321.2969" y2="321.2969"/><text fill="#000000" font-family="sans-serif" font-size="13" lengthAdjust="spacing" textLength="153" x="877.5" y="316.231">&#1079;&#1072;&#1075;&#1088;&#1091;&#1079;&#1082;&#1072; &#1074; &#1093;&#1088;&#1072;&#1085;&#1080;&#1083;&#1080;&#1097;&#1077;</text><polygon fill="#181818" points="353.5,346.4297,363.5,350.4297,353.5,354.4297,357.5,350.4297" style="stroke:#181818;stroke-width:1.0;"/><line style="stroke:#181818;stroke-width:1.0;" x1="65.5" x2="359.5" y1="350.4297" y2="350.4297"/><text fill="#000000" font-family="sans-serif" font-size="13" lengthAdjust="spacing" textLength="115" x="72.5" y="345.3638">&#1080;&#1079;&#1084;&#1077;&#1085;&#1080;&#1090;&#1100; &#1086;&#1094;&#1077;&#1085;&#1082;&#1091;</text><polygon fill="#181818" points="522.5,375.5625,532.5,379.5625,522.5,383.5625,526.5,379.5625" style="stroke:#181818;stroke-width:1.0;"/><line style="stroke:#181818;stroke-width:1.0;" x1="365.5" x2="528.5" y1="379.5625" y2="379.5625"/><text fill="#000000" font-family="sans-serif" font-size="13" lengthAdjust="spacing" textLength="121" x="372.5" y="374.4966">PUT api/v1/route_1</text><polygon fill="#181818" points="679.5,404.6953,689.5,408.6953,679.5,412.6953,683.5,408.6953" style="stroke:#181818;stroke-width:1.0;"/><line style="stroke:#181818;stroke-width:1.0;" x1="534.5" x2="685.5" y1="408.6953" y2="408.6953"/><text fill="#000000" font-family="sans-serif" font-size="13" lengthAdjust="spacing" textLength="133" x="541.5" y="403.6294">&#1086;&#1090;&#1087;&#1088;&#1072;&#1074;&#1082;&#1072; &#1074; &#1086;&#1095;&#1077;&#1088;&#1077;&#1076;&#1100;</text><polygon fill="#181818" points="858.5,448.9609,868.5,452.9609,858.5,456.9609,862.5,452.9609" style="stroke:#181818;stroke-width:1.0;"/><line style="stroke:#181818;stroke-width:1.0;" x1="691.5" x2="864.5" y1="452.9609" y2="452.9609"/><text fill="#000000" font-family="sans-serif" font-size="13" lengthAdjust="spacing" textLength="151" x="698.5" y="432.7622">&#1087;&#1086;&#1083;&#1091;&#1095;&#1077;&#1085;&#1080;&#1077; &#1089;&#1086;&#1086;&#1073;&#1097;&#1077;&#1085;&#1080;&#1081;</text><text fill="#000000" font-family="sans-serif" font-size="13" lengthAdjust="spacing" textLength="76" x="698.5" y="447.895">&#1080;&#1079; &#1086;&#1095;&#1077;&#1088;&#1077;&#1076;&#1080;</text><polygon fill="#181818" points="1114.5,478.0938,1124.5,482.0938,1114.5,486.0938,1118.5,482.0938" style="stroke:#181818;stroke-width:1.0;"/><line style="stroke:#181818;stroke-width:1.0;" x1="870.5" x2="1120.5" y1="482.0938" y2="482.0938"/><text fill="#000000" font-family="sans-serif" font-size="13" lengthAdjust="spacing" textLength="217" x="877.5" y="477.0278">&#1080;&#1079;&#1084;&#1077;&#1085;&#1077;&#1085;&#1080;&#1077; &#1086;&#1094;&#1077;&#1085;&#1082;&#1080; &#1074; &#1093;&#1088;&#1072;&#1085;&#1080;&#1083;&#1080;&#1097;&#1077;</text><polygon fill="#181818" points="1211.5,507.2266,1221.5,511.2266,1211.5,515.2266,1215.5,511.2266" style="stroke:#181818;stroke-width:1.0;"/><line style="stroke:#181818;stroke-width:1.0;" x1="870.5" x2="1217.5" y1="511.2266" y2="511.2266"/><text fill="#000000" font-family="sans-serif" font-size="13" lengthAdjust="spacing" textLength="249" x="877.5" y="506.1606">&#1079;&#1072;&#1075;&#1088;&#1091;&#1079;&#1082;&#1072; &#1085;&#1086;&#1074;&#1086;&#1081; &#1086;&#1094;&#1077;&#1085;&#1082;&#1080; &#1074; &#1093;&#1088;&#1072;&#1085;&#1080;&#1083;&#1080;&#1097;&#1077;</text><polygon fill="#181818" points="353.5,536.3594,363.5,540.3594,353.5,544.3594,357.5,540.3594" style="stroke:#181818;stroke-width:1.0;"/><line style="stroke:#181818;stroke-width:1.0;" x1="65.5" x2="359.5" y1="540.3594" y2="540.3594"/><text fill="#000000" font-family="sans-serif" font-size="13" lengthAdjust="spacing" textLength="243" x="72.5" y="535.2935">&#1091;&#1079;&#1085;&#1072;&#1090;&#1100; &#1087;&#1086;&#1089;&#1090;&#1072;&#1074;&#1083;&#1077;&#1085;&#1085;&#1091;&#1102; &#1088;&#1072;&#1085;&#1077;&#1077; &#1086;&#1094;&#1077;&#1085;&#1082;&#1091;</text><polygon fill="#181818" points="522.5,565.4922,532.5,569.4922,522.5,573.4922,526.5,569.4922" style="stroke:#181818;stroke-width:1.0;"/><line style="stroke:#181818;stroke-width:1.0;" x1="365.5" x2="528.5" y1="569.4922" y2="569.4922"/><text fill="#000000" font-family="sans-serif" font-size="13" lengthAdjust="spacing" textLength="122" x="372.5" y="564.4263">GET api/v1/route_1</text><polygon fill="#181818" points="1114.5,594.625,1124.5,598.625,1114.5,602.625,1118.5,598.625" style="stroke:#181818;stroke-width:1.0;"/><line style="stroke:#181818;stroke-width:1.0;" x1="534.5" x2="1120.5" y1="598.625" y2="598.625"/><text fill="#000000" font-family="sans-serif" font-size="13" lengthAdjust="spacing" textLength="238" x="541.5" y="593.5591">&#1087;&#1086;&#1083;&#1091;&#1095;&#1080;&#1090;&#1100; &#1089;&#1086;&#1079;&#1076;&#1072;&#1085;&#1085;&#1091;&#1102; &#1088;&#1072;&#1085;&#1077;&#1077; &#1086;&#1094;&#1077;&#1085;&#1082;&#1091;</text><polygon fill="#181818" points="545.5,623.7578,535.5,627.7578,545.5,631.7578,541.5,627.7578" style="stroke:#181818;stroke-width:1.0;"/><line style="stroke:#181818;stroke-width:1.0;" x1="539.5" x2="1125.5" y1="627.7578" y2="627.7578"/><text fill="#000000" font-family="sans-serif" font-size="13" lengthAdjust="spacing" textLength="105" x="551.5" y="622.6919">&#1086;&#1094;&#1077;&#1085;&#1082;&#1072; &#1092;&#1080;&#1083;&#1100;&#1084;&#1072;</text><polygon fill="#181818" points="376.5,652.8906,366.5,656.8906,376.5,660.8906,372.5,656.8906" style="stroke:#181818;stroke-width:1.0;"/><line style="stroke:#181818;stroke-width:1.0;" x1="370.5" x2="533.5" y1="656.8906" y2="656.8906"/><text fill="#000000" font-family="sans-serif" font-size="13" lengthAdjust="spacing" textLength="49" x="382.5" y="651.8247">&#1086;&#1094;&#1077;&#1085;&#1082;&#1072;</text><polygon fill="#181818" points="76.5,682.0234,66.5,686.0234,76.5,690.0234,72.5,686.0234" style="stroke:#181818;stroke-width:1.0;"/><line style="stroke:#181818;stroke-width:1.0;" x1="70.5" x2="364.5" y1="686.0234" y2="686.0234"/><text fill="#000000" font-family="sans-serif" font-size="13" lengthAdjust="spacing" textLength="129" x="82.5" y="680.9575">&#1086;&#1090;&#1086;&#1073;&#1088;&#1072;&#1079;&#1080;&#1090;&#1100; &#1086;&#1094;&#1077;&#1085;&#1082;&#1091;</text><polygon fill="#181818" points="353.5,711.1563,363.5,715.1563,353.5,719.1563,357.5,715.1563" style="stroke:#181818;stroke-width:1.0;"/><line style="stroke:#181818;stroke-width:1.0;" x1="65.5" x2="359.5" y1="715.1563" y2="715.1563"/><text fill="#000000" font-family="sans-serif" font-size="13" lengthAdjust="spacing" textLength="165" x="72.5" y="710.0903">&#1091;&#1079;&#1085;&#1072;&#1090;&#1100; &#1089;&#1088;&#1077;&#1076;&#1085;&#1102;&#1102; &#1086;&#1094;&#1077;&#1085;&#1082;&#1091;</text><polygon fill="#181818" points="522.5,740.2891,532.5,744.2891,522.5,748.2891,526.5,744.2891" style="stroke:#181818;stroke-width:1.0;"/><line style="stroke:#181818;stroke-width:1.0;" x1="365.5" x2="528.5" y1="744.2891" y2="744.2891"/><text fill="#000000" font-family="sans-serif" font-size="13" lengthAdjust="spacing" textLength="122" x="372.5" y="739.2231">GET api/v1/route_2</text><polygon fill="#181818" points="1114.5,769.4219,1124.5,773.4219,1114.5,777.4219,1118.5,773.4219" style="stroke:#181818;stroke-width:1.0;"/><line style="stroke:#181818;stroke-width:1.0;" x1="534.5" x2="1120.5" y1="773.4219" y2="773.4219"/><text fill="#000000" font-family="sans-serif" font-size="13" lengthAdjust="spacing" textLength="182" x="541.5" y="768.356">&#1087;&#1086;&#1083;&#1091;&#1095;&#1080;&#1090;&#1100; &#1089;&#1088;&#1077;&#1076;&#1085;&#1102;&#1102; &#1086;&#1094;&#1077;&#1085;&#1082;&#1091;</text><polygon fill="#181818" points="545.5,798.5547,535.5,802.5547,545.5,806.5547,541.5,802.5547" style="stroke:#181818;stroke-width:1.0;"/><line style="stroke:#181818;stroke-width:1.0;" x1="539.5" x2="1125.5" y1="802.5547" y2="802.5547"/><text fill="#000000" font-family="sans-serif" font-size="13" lengthAdjust="spacing" textLength="105" x="551.5" y="797.4888">&#1086;&#1094;&#1077;&#1085;&#1082;&#1072; &#1092;&#1080;&#1083;&#1100;&#1084;&#1072;</text><polygon fill="#181818" points="376.5,827.6875,366.5,831.6875,376.5,835.6875,372.5,831.6875" style="stroke:#181818;stroke-width:1.0;"/><line style="stroke:#181818;stroke-width:1.0;" x1="370.5" x2="533.5" y1="831.6875" y2="831.6875"/><text fill="#000000" font-family="sans-serif" font-size="13" lengthAdjust="spacing" textLength="49" x="382.5" y="826.6216">&#1086;&#1094;&#1077;&#1085;&#1082;&#1072;</text><polygon fill="#181818" points="76.5,856.8203,66.5,860.8203,76.5,864.8203,72.5,860.8203" style="stroke:#181818;stroke-width:1.0;"/><line style="stroke:#181818;stroke-width:1.0;" x1="70.5" x2="364.5" y1="860.8203" y2="860.8203"/><text fill="#000000" font-family="sans-serif" font-size="13" lengthAdjust="spacing" textLength="196" x="82.5" y="855.7544">&#1086;&#1090;&#1086;&#1073;&#1088;&#1072;&#1079;&#1080;&#1090;&#1100; &#1089;&#1088;&#1077;&#1076;&#1085;&#1102;&#1102; &#1086;&#1094;&#1077;&#1085;&#1082;&#1091;</text><rect fill="#EEEEEE" height="3" style="stroke:#EEEEEE;stroke-width:1.0;" width="1274" x="0" y="889.3867"/><line style="stroke:#000000;stroke-width:1.0;" x1="0" x2="1274" y1="889.3867" y2="889.3867"/><line style="stroke:#000000;stroke-width:1.0;" x1="0" x2="1274" y1="892.3867" y2="892.3867"/><rect fill="#EEEEEE" height="23.1328" style="stroke:#000000;stroke-width:2.0;" width="172" x="551" y="878.8203"/><text fill="#000000" font-family="sans-serif" font-size="13" font-weight="bold" lengthAdjust="spacing" textLength="153" x="557" y="894.8872">&#1053;&#1072;&#1087;&#1080;&#1089;&#1072;&#1090;&#1100; &#1088;&#1077;&#1094;&#1077;&#1085;&#1079;&#1080;&#1102;</text><polygon fill="#181818" points="353.5,929.0859,363.5,933.0859,353.5,937.0859,357.5,933.0859" style="stroke:#181818;stroke-width:1.0;"/><line style="stroke:#181818;stroke-width:1.0;" x1="65.5" x2="359.5" y1="933.0859" y2="933.0859"/><text fill="#000000" font-family="sans-serif" font-size="13" lengthAdjust="spacing" textLength="130" x="72.5" y="928.02">&#1086;&#1089;&#1090;&#1072;&#1074;&#1080;&#1090;&#1100; &#1088;&#1077;&#1094;&#1077;&#1085;&#1079;&#1080;&#1102;</text><polygon fill="#181818" points="522.5,958.2188,532.5,962.2188,522.5,966.2188,526.5,962.2188" style="stroke:#181818;stroke-width:1.0;"/><line style="stroke:#181818;stroke-width:1.0;" x1="365.5" x2="528.5" y1="962.2188" y2="962.2188"/><text fill="#000000" font-family="sans-serif" font-size="13" lengthAdjust="spacing" textLength="130" x="372.5" y="957.1528">POST api/v1/route_3</text><polygon fill="#181818" points="679.5,987.3516,689.5,991.3516,679.5,995.3516,683.5,991.3516" style="stroke:#181818;stroke-width:1.0;"/><line style="stroke:#181818;stroke-width:1.0;" x1="534.5" x2="685.5" y1="991.3516" y2="991.3516"/><text fill="#000000" font-family="sans-serif" font-size="13" lengthAdjust="spacing" textLength="133" x="541.5" y="986.2856">&#1086;&#1090;&#1087;&#1088;&#1072;&#1074;&#1082;&#1072; &#1074; &#1086;&#1095;&#1077;&#1088;&#1077;&#1076;&#1100;</text><polygon fill="#181818" points="858.5,1031.6172,868.5,1035.6172,858.5,1039.6172,862.5,1035.6172" style="stroke:#181818;stroke-width:1.0;"/><line style="stroke:#181818;stroke-width:1.0;" x1="691.5" x2="864.5" y1="1035.6172" y2="1035.6172"/><text fill="#000000" font-family="sans-serif" font-size="13" lengthAdjust="spacing" textLength="151" x="698.5" y="1015.4185">&#1087;&#1086;&#1083;&#1091;&#1095;&#1077;&#1085;&#1080;&#1077; &#1089;&#1086;&#1086;&#1073;&#1097;&#1077;&#1085;&#1080;&#1081;</text><text fill="#000000" font-family="sans-serif" font-size="13" lengthAdjust="spacing" textLength="76" x="698.5" y="1030.5513">&#1080;&#1079; &#1086;&#1095;&#1077;&#1088;&#1077;&#1076;&#1080;</text><polygon fill="#181818" points="1114.5,1060.75,1124.5,1064.75,1114.5,1068.75,1118.5,1064.75" style="stroke:#181818;stroke-width:1.0;"/><line style="stroke:#181818;stroke-width:1.0;" x1="870.5" x2="1120.5" y1="1064.75" y2="1064.75"/><text fill="#000000" font-family="sans-serif" font-size="13" lengthAdjust="spacing" textLength="153" x="877.5" y="1059.6841">&#1079;&#1072;&#1075;&#1088;&#1091;&#1079;&#1082;&#1072; &#1074; &#1093;&#1088;&#1072;&#1085;&#1080;&#1083;&#1080;&#1097;&#1077;</text><polygon fill="#181818" points="1211.5,1089.8828,1221.5,1093.8828,1211.5,1097.8828,1215.5,1093.8828" style="stroke:#181818;stroke-width:1.0;"/><line style="stroke:#181818;stroke-width:1.0;" x1="870.5" x2="1217.5" y1="1093.8828" y2="1093.8828"/><text fill="#000000" font-family="sans-serif" font-size="13" lengthAdjust="spacing" textLength="153" x="877.5" y="1088.8169">&#1079;&#1072;&#1075;&#1088;&#1091;&#1079;&#1082;&#1072; &#1074; &#1093;&#1088;&#1072;&#1085;&#1080;&#1083;&#1080;&#1097;&#1077;</text><polygon fill="#181818" points="353.5,1119.0156,363.5,1123.0156,353.5,1127.0156,357.5,1123.0156" style="stroke:#181818;stroke-width:1.0;"/><line style="stroke:#181818;stroke-width:1.0;" x1="65.5" x2="359.5" y1="1123.0156" y2="1123.0156"/><text fill="#000000" font-family="sans-serif" font-size="13" lengthAdjust="spacing" textLength="133" x="72.5" y="1117.9497">&#1080;&#1079;&#1084;&#1077;&#1085;&#1080;&#1090;&#1100; &#1088;&#1077;&#1094;&#1077;&#1085;&#1079;&#1080;&#1102;</text><polygon fill="#181818" points="522.5,1148.1484,532.5,1152.1484,522.5,1156.1484,526.5,1152.1484" style="stroke:#181818;stroke-width:1.0;"/><line style="stroke:#181818;stroke-width:1.0;" x1="365.5" x2="528.5" y1="1152.1484" y2="1152.1484"/><text fill="#000000" font-family="sans-serif" font-size="13" lengthAdjust="spacing" textLength="121" x="372.5" y="1147.0825">PUT api/v1/route_3</text><polygon fill="#181818" points="679.5,1177.2813,689.5,1181.2813,679.5,1185.2813,683.5,1181.2813" style="stroke:#181818;stroke-width:1.0;"/><line style="stroke:#181818;stroke-width:1.0;" x1="534.5" x2="685.5" y1="1181.2813" y2="1181.2813"/><text fill="#000000" font-family="sans-serif" font-size="13" lengthAdjust="spacing" textLength="133" x="541.5" y="1176.2153">&#1086;&#1090;&#1087;&#1088;&#1072;&#1074;&#1082;&#1072; &#1074; &#1086;&#1095;&#1077;&#1088;&#1077;&#1076;&#1100;</text><polygon fill="#181818" points="858.5,1221.5469,868.5,1225.5469,858.5,1229.5469,862.5,1225.5469" style="stroke:#181818;stroke-width:1.0;"/><line style="stroke:#181818;stroke-width:1.0;" x1="691.5" x2="864.5" y1="1225.5469" y2="1225.5469"/><text fill="#000000" font-family="sans-serif" font-size="13" lengthAdjust="spacing" textLength="151" x="698.5" y="1205.3481">&#1087;&#1086;&#1083;&#1091;&#1095;&#1077;&#1085;&#1080;&#1077; &#1089;&#1086;&#1086;&#1073;&#1097;&#1077;&#1085;&#1080;&#1081;</text><text fill="#000000" font-family="sans-serif" font-size="13" lengthAdjust="spacing" textLength="76" x="698.5" y="1220.481">&#1080;&#1079; &#1086;&#1095;&#1077;&#1088;&#1077;&#1076;&#1080;</text><polygon fill="#181818" points="1114.5,1250.6797,1124.5,1254.6797,1114.5,1258.6797,1118.5,1254.6797" style="stroke:#181818;stroke-width:1.0;"/><line style="stroke:#181818;stroke-width:1.0;" x1="870.5" x2="1120.5" y1="1254.6797" y2="1254.6797"/><text fill="#000000" font-family="sans-serif" font-size="13" lengthAdjust="spacing" textLength="232" x="877.5" y="1249.6138">&#1080;&#1079;&#1084;&#1077;&#1085;&#1077;&#1085;&#1080;&#1077; &#1088;&#1077;&#1094;&#1077;&#1085;&#1079;&#1080;&#1080; &#1074; &#1093;&#1088;&#1072;&#1085;&#1080;&#1083;&#1080;&#1097;&#1077;</text><polygon fill="#181818" points="1211.5,1279.8125,1221.5,1283.8125,1211.5,1287.8125,1215.5,1283.8125" style="stroke:#181818;stroke-width:1.0;"/><line style="stroke:#181818;stroke-width:1.0;" x1="870.5" x2="1217.5" y1="1283.8125" y2="1283.8125"/><text fill="#000000" font-family="sans-serif" font-size="13" lengthAdjust="spacing" textLength="264" x="877.5" y="1278.7466">&#1079;&#1072;&#1075;&#1088;&#1091;&#1079;&#1082;&#1072; &#1085;&#1086;&#1074;&#1086;&#1081; &#1088;&#1077;&#1094;&#1077;&#1085;&#1079;&#1080;&#1080; &#1074; &#1093;&#1088;&#1072;&#1085;&#1080;&#1083;&#1080;&#1097;&#1077;</text><polygon fill="#181818" points="353.5,1308.9453,363.5,1312.9453,353.5,1316.9453,357.5,1312.9453" style="stroke:#181818;stroke-width:1.0;"/><line style="stroke:#181818;stroke-width:1.0;" x1="65.5" x2="359.5" y1="1312.9453" y2="1312.9453"/><text fill="#000000" font-family="sans-serif" font-size="13" lengthAdjust="spacing" textLength="276" x="72.5" y="1307.8794">&#1079;&#1072;&#1087;&#1088;&#1086;&#1089;&#1080;&#1090;&#1100; &#1086;&#1089;&#1090;&#1072;&#1074;&#1083;&#1077;&#1085;&#1085;&#1091;&#1102; &#1088;&#1072;&#1085;&#1077;&#1077; &#1088;&#1077;&#1094;&#1077;&#1085;&#1079;&#1080;&#1102;</text><polygon fill="#181818" points="522.5,1338.0781,532.5,1342.0781,522.5,1346.0781,526.5,1342.0781" style="stroke:#181818;stroke-width:1.0;"/><line style="stroke:#181818;stroke-width:1.0;" x1="365.5" x2="528.5" y1="1342.0781" y2="1342.0781"/><text fill="#000000" font-family="sans-serif" font-size="13" lengthAdjust="spacing" textLength="122" x="372.5" y="1337.0122">GET api/v1/route_3</text><polygon fill="#181818" points="1114.5,1367.2109,1124.5,1371.2109,1114.5,1375.2109,1118.5,1371.2109" style="stroke:#181818;stroke-width:1.0;"/><line style="stroke:#181818;stroke-width:1.0;" x1="534.5" x2="1120.5" y1="1371.2109" y2="1371.2109"/><text fill="#000000" font-family="sans-serif" font-size="13" lengthAdjust="spacing" textLength="256" x="541.5" y="1366.145">&#1087;&#1086;&#1083;&#1091;&#1095;&#1080;&#1090;&#1100; &#1089;&#1086;&#1079;&#1076;&#1072;&#1085;&#1085;&#1091;&#1102; &#1088;&#1072;&#1085;&#1077;&#1077; &#1088;&#1077;&#1094;&#1077;&#1085;&#1079;&#1080;&#1102;</text><polygon fill="#181818" points="545.5,1396.3438,535.5,1400.3438,545.5,1404.3438,541.5,1400.3438" style="stroke:#181818;stroke-width:1.0;"/><line style="stroke:#181818;stroke-width:1.0;" x1="539.5" x2="1125.5" y1="1400.3438" y2="1400.3438"/><text fill="#000000" font-family="sans-serif" font-size="13" lengthAdjust="spacing" textLength="63" x="551.5" y="1395.2778">&#1088;&#1077;&#1094;&#1077;&#1085;&#1079;&#1080;&#1103;</text><polygon fill="#181818" points="376.5,1425.4766,366.5,1429.4766,376.5,1433.4766,372.5,1429.4766" style="stroke:#181818;stroke-width:1.0;"/><line style="stroke:#181818;stroke-width:1.0;" x1="370.5" x2="533.5" y1="1429.4766" y2="1429.4766"/><text fill="#000000" font-family="sans-serif" font-size="13" lengthAdjust="spacing" textLength="63" x="382.5" y="1424.4106">&#1088;&#1077;&#1094;&#1077;&#1085;&#1079;&#1080;&#1103;</text><polygon fill="#181818" points="76.5,1454.6094,66.5,1458.6094,76.5,1462.6094,72.5,1458.6094" style="stroke:#181818;stroke-width:1.0;"/><line style="stroke:#181818;stroke-width:1.0;" x1="70.5" x2="364.5" y1="1458.6094" y2="1458.6094"/><text fill="#000000" font-family="sans-serif" font-size="13" lengthAdjust="spacing" textLength="147" x="82.5" y="1453.5435">&#1086;&#1090;&#1086;&#1073;&#1088;&#1072;&#1079;&#1080;&#1090;&#1100; &#1088;&#1077;&#1094;&#1077;&#1085;&#1079;&#1080;&#1102;</text><rect fill="#EEEEEE" height="3" style="stroke:#EEEEEE;stroke-width:1.0;" width="1274" x="0" y="1487.1758"/><line style="stroke:#000000;stroke-width:1.0;" x1="0" x2="1274" y1="1487.1758" y2="1487.1758"/><line style="stroke:#000000;stroke-width:1.0;" x1="0" x2="1274" y1="1490.1758" y2="1490.1758"/><rect fill="#EEEEEE" height="23.1328" style="stroke:#000000;stroke-width:2.0;" width="151" x="561.5" y="1476.6094"/><text fill="#000000" font-family="sans-serif" font-size="13" font-weight="bold" lengthAdjust="spacing" textLength="132" x="567.5" y="1492.6763">&#1054;&#1090;&#1083;&#1086;&#1078;&#1080;&#1090;&#1100; &#1092;&#1080;&#1083;&#1100;&#1084;</text><polygon fill="#181818" points="353.5,1526.875,363.5,1530.875,353.5,1534.875,357.5,1530.875" style="stroke:#181818;stroke-width:1.0;"/><line style="stroke:#181818;stroke-width:1.0;" x1="65.5" x2="359.5" y1="1530.875" y2="1530.875"/><text fill="#000000" font-family="sans-serif" font-size="13" lengthAdjust="spacing" textLength="113" x="72.5" y="1525.8091">&#1086;&#1090;&#1083;&#1086;&#1078;&#1080;&#1090;&#1100; &#1092;&#1080;&#1083;&#1100;&#1084;</text><polygon fill="#181818" points="522.5,1556.0078,532.5,1560.0078,522.5,1564.0078,526.5,1560.0078" style="stroke:#181818;stroke-width:1.0;"/><line style="stroke:#181818;stroke-width:1.0;" x1="365.5" x2="528.5" y1="1560.0078" y2="1560.0078"/><text fill="#000000" font-family="sans-serif" font-size="13" lengthAdjust="spacing" textLength="130" x="372.5" y="1554.9419">POST api/v1/route_4</text><polygon fill="#181818" points="679.5,1585.1406,689.5,1589.1406,679.5,1593.1406,683.5,1589.1406" style="stroke:#181818;stroke-width:1.0;"/><line style="stroke:#181818;stroke-width:1.0;" x1="534.5" x2="685.5" y1="1589.1406" y2="1589.1406"/><text fill="#000000" font-family="sans-serif" font-size="13" lengthAdjust="spacing" textLength="133" x="541.5" y="1584.0747">&#1086;&#1090;&#1087;&#1088;&#1072;&#1074;&#1082;&#1072; &#1074; &#1086;&#1095;&#1077;&#1088;&#1077;&#1076;&#1100;</text><polygon fill="#181818" points="858.5,1629.4063,868.5,1633.4063,858.5,1637.4063,862.5,1633.4063" style="stroke:#181818;stroke-width:1.0;"/><line style="stroke:#181818;stroke-width:1.0;" x1="691.5" x2="864.5" y1="1633.4063" y2="1633.4063"/><text fill="#000000" font-family="sans-serif" font-size="13" lengthAdjust="spacing" textLength="151" x="698.5" y="1613.2075">&#1087;&#1086;&#1083;&#1091;&#1095;&#1077;&#1085;&#1080;&#1077; &#1089;&#1086;&#1086;&#1073;&#1097;&#1077;&#1085;&#1080;&#1081;</text><text fill="#000000" font-family="sans-serif" font-size="13" lengthAdjust="spacing" textLength="76" x="698.5" y="1628.3403">&#1080;&#1079; &#1086;&#1095;&#1077;&#1088;&#1077;&#1076;&#1080;</text><polygon fill="#181818" points="1114.5,1658.5391,1124.5,1662.5391,1114.5,1666.5391,1118.5,1662.5391" style="stroke:#181818;stroke-width:1.0;"/><line style="stroke:#181818;stroke-width:1.0;" x1="870.5" x2="1120.5" y1="1662.5391" y2="1662.5391"/><text fill="#000000" font-family="sans-serif" font-size="13" lengthAdjust="spacing" textLength="153" x="877.5" y="1657.4731">&#1079;&#1072;&#1075;&#1088;&#1091;&#1079;&#1082;&#1072; &#1074; &#1093;&#1088;&#1072;&#1085;&#1080;&#1083;&#1080;&#1097;&#1077;</text><polygon fill="#181818" points="1211.5,1687.6719,1221.5,1691.6719,1211.5,1695.6719,1215.5,1691.6719" style="stroke:#181818;stroke-width:1.0;"/><line style="stroke:#181818;stroke-width:1.0;" x1="870.5" x2="1217.5" y1="1691.6719" y2="1691.6719"/><text fill="#000000" font-family="sans-serif" font-size="13" lengthAdjust="spacing" textLength="153" x="877.5" y="1686.606">&#1079;&#1072;&#1075;&#1088;&#1091;&#1079;&#1082;&#1072; &#1074; &#1093;&#1088;&#1072;&#1085;&#1080;&#1083;&#1080;&#1097;&#1077;</text><polygon fill="#181818" points="353.5,1716.8047,363.5,1720.8047,353.5,1724.8047,357.5,1720.8047" style="stroke:#181818;stroke-width:1.0;"/><line style="stroke:#181818;stroke-width:1.0;" x1="65.5" x2="359.5" y1="1720.8047" y2="1720.8047"/><text fill="#000000" font-family="sans-serif" font-size="13" lengthAdjust="spacing" textLength="135" x="72.5" y="1715.7388">&#1091;&#1073;&#1088;&#1072;&#1090;&#1100; &#1080;&#1079; &#1079;&#1072;&#1082;&#1083;&#1072;&#1076;&#1086;&#1082;</text><polygon fill="#181818" points="522.5,1745.9375,532.5,1749.9375,522.5,1753.9375,526.5,1749.9375" style="stroke:#181818;stroke-width:1.0;"/><line style="stroke:#181818;stroke-width:1.0;" x1="365.5" x2="528.5" y1="1749.9375" y2="1749.9375"/><text fill="#000000" font-family="sans-serif" font-size="13" lengthAdjust="spacing" textLength="145" x="372.5" y="1744.8716">DELETE api/v1/route_4</text><polygon fill="#181818" points="679.5,1775.0703,689.5,1779.0703,679.5,1783.0703,683.5,1779.0703" style="stroke:#181818;stroke-width:1.0;"/><line style="stroke:#181818;stroke-width:1.0;" x1="534.5" x2="685.5" y1="1779.0703" y2="1779.0703"/><text fill="#000000" font-family="sans-serif" font-size="13" lengthAdjust="spacing" textLength="133" x="541.5" y="1774.0044">&#1086;&#1090;&#1087;&#1088;&#1072;&#1074;&#1082;&#1072; &#1074; &#1086;&#1095;&#1077;&#1088;&#1077;&#1076;&#1100;</text><polygon fill="#181818" points="858.5,1819.3359,868.5,1823.3359,858.5,1827.3359,862.5,1823.3359" style="stroke:#181818;stroke-width:1.0;"/><line style="stroke:#181818;stroke-width:1.0;" x1="691.5" x2="864.5" y1="1823.3359" y2="1823.3359"/><text fill="#000000" font-family="sans-serif" font-size="13" lengthAdjust="spacing" textLength="151" x="698.5" y="1803.1372">&#1087;&#1086;&#1083;&#1091;&#1095;&#1077;&#1085;&#1080;&#1077; &#1089;&#1086;&#1086;&#1073;&#1097;&#1077;&#1085;&#1080;&#1081;</text><text fill="#000000" font-family="sans-serif" font-size="13" lengthAdjust="spacing" textLength="76" x="698.5" y="1818.27">&#1080;&#1079; &#1086;&#1095;&#1077;&#1088;&#1077;&#1076;&#1080;</text><polygon fill="#181818" points="1114.5,1848.4688,1124.5,1852.4688,1114.5,1856.4688,1118.5,1852.4688" style="stroke:#181818;stroke-width:1.0;"/><line style="stroke:#181818;stroke-width:1.0;" x1="870.5" x2="1120.5" y1="1852.4688" y2="1852.4688"/><text fill="#000000" font-family="sans-serif" font-size="13" lengthAdjust="spacing" textLength="227" x="877.5" y="1847.4028">&#1091;&#1073;&#1088;&#1072;&#1090;&#1100; &#1080;&#1079; &#1079;&#1072;&#1082;&#1083;&#1072;&#1076;&#1086;&#1082; &#1074; &#1093;&#1088;&#1072;&#1085;&#1080;&#1083;&#1080;&#1097;&#1077;</text><polygon fill="#181818" points="1211.5,1877.6016,1221.5,1881.6016,1211.5,1885.6016,1215.5,1881.6016" style="stroke:#181818;stroke-width:1.0;"/><line style="stroke:#181818;stroke-width:1.0;" x1="870.5" x2="1217.5" y1="1881.6016" y2="1881.6016"/><text fill="#000000" font-family="sans-serif" font-size="13" lengthAdjust="spacing" textLength="219" x="877.5" y="1876.5356">&#1079;&#1072;&#1075;&#1088;&#1091;&#1079;&#1082;&#1072; &#1076;&#1077;&#1081;&#1089;&#1090;&#1074;&#1080;&#1103; &#1074; &#1093;&#1088;&#1072;&#1085;&#1080;&#1083;&#1080;&#1097;&#1077;</text><polygon fill="#181818" points="353.5,1906.7344,363.5,1910.7344,353.5,1914.7344,357.5,1910.7344" style="stroke:#181818;stroke-width:1.0;"/><line style="stroke:#181818;stroke-width:1.0;" x1="65.5" x2="359.5" y1="1910.7344" y2="1910.7344"/><text fill="#000000" font-family="sans-serif" font-size="13" lengthAdjust="spacing" textLength="138" x="72.5" y="1905.6685">&#1079;&#1072;&#1087;&#1088;&#1086;&#1089;&#1080;&#1090;&#1100; &#1079;&#1072;&#1082;&#1083;&#1072;&#1076;&#1082;&#1080;</text><polygon fill="#181818" points="522.5,1935.8672,532.5,1939.8672,522.5,1943.8672,526.5,1939.8672" style="stroke:#181818;stroke-width:1.0;"/><line style="stroke:#181818;stroke-width:1.0;" x1="365.5" x2="528.5" y1="1939.8672" y2="1939.8672"/><text fill="#000000" font-family="sans-serif" font-size="13" lengthAdjust="spacing" textLength="122" x="372.5" y="1934.8013">GET api/v1/route_4</text><polygon fill="#181818" points="1114.5,1965,1124.5,1969,1114.5,1973,1118.5,1969" style="stroke:#181818;stroke-width:1.0;"/><line style="stroke:#181818;stroke-width:1.0;" x1="534.5" x2="1120.5" y1="1969" y2="1969"/><text fill="#000000" font-family="sans-serif" font-size="13" lengthAdjust="spacing" textLength="132" x="541.5" y="1963.9341">&#1087;&#1086;&#1083;&#1091;&#1095;&#1080;&#1090;&#1100; &#1079;&#1072;&#1082;&#1083;&#1072;&#1076;&#1082;&#1080;</text><polygon fill="#181818" points="545.5,1994.1328,535.5,1998.1328,545.5,2002.1328,541.5,1998.1328" style="stroke:#181818;stroke-width:1.0;"/><line style="stroke:#181818;stroke-width:1.0;" x1="539.5" x2="1125.5" y1="1998.1328" y2="1998.1328"/><text fill="#000000" font-family="sans-serif" font-size="13" lengthAdjust="spacing" textLength="143" x="551.5" y="1993.0669">&#1092;&#1080;&#1083;&#1100;&#1084;&#1099; &#1074; &#1079;&#1072;&#1082;&#1083;&#1072;&#1076;&#1082;&#1072;&#1093;</text><polygon fill="#181818" points="376.5,2023.2656,366.5,2027.2656,376.5,2031.2656,372.5,2027.2656" style="stroke:#181818;stroke-width:1.0;"/><line style="stroke:#181818;stroke-width:1.0;" x1="370.5" x2="533.5" y1="2027.2656" y2="2027.2656"/><text fill="#000000" font-family="sans-serif" font-size="13" lengthAdjust="spacing" textLength="143" x="382.5" y="2022.1997">&#1092;&#1080;&#1083;&#1100;&#1084;&#1099; &#1074; &#1079;&#1072;&#1082;&#1083;&#1072;&#1076;&#1082;&#1072;&#1093;</text><polygon fill="#181818" points="76.5,2052.3984,66.5,2056.3984,76.5,2060.3984,72.5,2056.3984" style="stroke:#181818;stroke-width:1.0;"/><line style="stroke:#181818;stroke-width:1.0;" x1="70.5" x2="364.5" y1="2056.3984" y2="2056.3984"/><text fill="#000000" font-family="sans-serif" font-size="13" lengthAdjust="spacing" textLength="223" x="82.5" y="2051.3325">&#1086;&#1090;&#1086;&#1073;&#1088;&#1072;&#1079;&#1080;&#1090;&#1100; &#1092;&#1080;&#1083;&#1100;&#1084;&#1099; &#1074; &#1079;&#1072;&#1082;&#1083;&#1072;&#1076;&#1082;&#1072;&#1093;</text><text fill="#888888" font-family="sans-serif" font-size="10" lengthAdjust="spacing" textLength="184" x="1089" y="14.2822">&#1044;&#1080;&#1072;&#1075;&#1088;&#1072;&#1084;&#1084;&#1072; &#1087;&#1086;&#1089;&#1083;&#1077;&#1076;&#1086;&#1074;&#1072;&#1090;&#1077;&#1083;&#1100;&#1085;&#1086;&#1089;&#1090;&#1080;</text><text fill="#888888" font-family="sans-serif" font-size="10" lengthAdjust="spacing" textLength="91" x="591" y="2114.9775">&#1057;&#1090;&#1088;&#1072;&#1085;&#1080;&#1094;&#1072; 1 &#1080;&#1079; 1</text><!--SRC=[xPV1RjD048RlVefz0LIbxIbIED2Q7W21H7D3GXPrQPGeHgdBcJeKX8ZI2rT0l84RQkmcjVCAis_4p7fTsx6DjxY772fBaRCx-y_iD-i_pf5f79WZ1jyW01T-ym_uUOsNos094J-51NXm2H7CmEKEtY_u14AQmM-1PlViWScwUpjiKpkqB9kaVd57o8GGy4yer6AexREMfdKw37xWc2Vc73vX_2FEaUGrwtGq-8c9w9kVJyWUF6IFHzRGDeS7RLaOphaO4ylWGAmwvsCjYHIh1iPnlyrUF7-vpuntlOtthOsHTMARhrkQcAAO9yPXtsYJXWDBKVaCvWHWHcEVmSCnPC0dceYa9RezYEl0wiOKGXi2Zo6l2AyB_aKENR5NGx7xh19oGm7IUMODtrgxZr3BZ-dpCTx9vFmimOXD24WoMROpwBtf7radnwRoIbMsM2jsFsrGBTdkceDDDvHefLk2e0ddK82Ci1G5HKN-GZsaMMAVFUWBaI14AbCcrRtSPihxiwTNzoU5b0ANZoNXzX6eMvjJYcHIPcYucGSSt3Hpvi1bWdFrL_6IvudE0bNabvtJ_u6DeECp5F8fRlVMN3VLk5OdMHEG_ofH6FXt35vYy6a23iDb36bCRs7agpQ-AgLcvLltLgvavKfqksiEjsZd-MtTbQKhgghsWZ8HCtgZkZ6i6cjNwLV1XhQQstiXRz6PLaBEomof6DF0b5PBag-I3hABu4-JbyceKaJDVRRltQVYjrMqC3xhed3IdwEEA_vFpClmxkfFzNrzhG7NRwm9yalCUYMCWNuJp-_UTRArujkgagTigtXAGRd4DMuUBVvLz2o_nELdfJwYiAg1izIg_mK0]--></g></svg>