<?xml version="1.0" encoding="us-ascii" standalone="no"?><svg xmlns="http://www.w3.org/2000/svg" xmlns:xlink="http://www.w3.org/1999/xlink" contentStyleType="text/css" height="757px" preserveAspectRatio="none" style="width:2362px;height:757px;background:#FFFFFF;" version="1.1" viewBox="0 0 2362 757" width="2362px" zoomAndPan="magnify"><defs/><g><text fill="#888888" font-family="sans-serif" font-size="10" lengthAdjust="spacing" textLength="246" x="2102.5" y="9.2822">&#1050;&#1086;&#1084;&#1087;&#1086;&#1085;&#1077;&#1085;&#1090;&#1085;&#1072;&#1103; &#1076;&#1080;&#1072;&#1075;&#1088;&#1072;&#1084;&#1084;&#1072; &#1089;&#1077;&#1088;&#1074;&#1080;&#1089;&#1072; Notification</text><text fill="#000000" font-family="sans-serif" font-size="14" font-weight="bold" lengthAdjust="spacing" textLength="375" x="986.75" y="35.6357">&#1050;&#1086;&#1084;&#1087;&#1086;&#1085;&#1077;&#1085;&#1090;&#1085;&#1072;&#1103; &#1076;&#1080;&#1072;&#1075;&#1088;&#1072;&#1084;&#1084;&#1072; &#1089;&#1077;&#1088;&#1074;&#1080;&#1089;&#1072; Notification</text><!--entity ?????????????--><g id="elem_&#1040;&#1076;&#1084;&#1080;&#1085;&#1080;&#1089;&#1090;&#1088;&#1072;&#1090;&#1086;&#1088;"><ellipse cx="448.5" cy="256.9075" fill="#F1F1F1" rx="8" ry="8" style="stroke:#181818;stroke-width:0.5;"/><path d="M448.5,264.9075 L448.5,291.9075 M435.5,272.9075 L461.5,272.9075 M448.5,291.9075 L435.5,306.9075 M448.5,291.9075 L461.5,306.9075 " fill="none" style="stroke:#181818;stroke-width:0.5;"/><text fill="#000000" font-family="sans-serif" font-size="14" lengthAdjust="spacing" textLength="117" x="390" y="321.4026">&#1040;&#1076;&#1084;&#1080;&#1085;&#1080;&#1089;&#1090;&#1088;&#1072;&#1090;&#1086;&#1088;</text></g><!--entity Users--><g id="elem_Users"><ellipse cx="440.5" cy="562.4175" fill="#F1F1F1" rx="8" ry="8" style="stroke:#181818;stroke-width:0.5;"/><path d="M440.5,570.4175 L440.5,597.4175 M427.5,578.4175 L453.5,578.4175 M440.5,597.4175 L427.5,612.4175 M440.5,597.4175 L453.5,612.4175 " fill="none" style="stroke:#181818;stroke-width:0.5;"/><text fill="#000000" font-family="sans-serif" font-size="14" lengthAdjust="spacing" textLength="40" x="420.5" y="626.9126">Users</text></g><!--entity User--><g id="elem_User"><ellipse cx="2339.5" cy="256.9075" fill="#F1F1F1" rx="8" ry="8" style="stroke:#181818;stroke-width:0.5;"/><path d="M2339.5,264.9075 L2339.5,291.9075 M2326.5,272.9075 L2352.5,272.9075 M2339.5,291.9075 L2326.5,306.9075 M2339.5,291.9075 L2352.5,306.9075 " fill="none" style="stroke:#181818;stroke-width:0.5;"/><text fill="#000000" font-family="sans-serif" font-size="14" lengthAdjust="spacing" textLength="32" x="2323.5" y="321.4026">User</text></g><!--entity Generator--><g id="elem_Generator"><rect fill="#F1F1F1" height="46.2969" rx="2.5" ry="2.5" style="stroke:#181818;stroke-width:0.5;" width="221" x="85" y="418.4975"/><rect fill="#F1F1F1" height="10" style="stroke:#181818;stroke-width:0.5;" width="15" x="286" y="423.4975"/><rect fill="#F1F1F1" height="2" style="stroke:#181818;stroke-width:0.5;" width="4" x="284" y="425.4975"/><rect fill="#F1F1F1" height="2" style="stroke:#181818;stroke-width:0.5;" width="4" x="284" y="429.4975"/><text fill="#000000" font-family="sans-serif" font-size="14" lengthAdjust="spacing" textLength="181" x="100" y="451.4926">&#1043;&#1077;&#1085;&#1077;&#1088;&#1072;&#1090;&#1086;&#1088; &#1091;&#1074;&#1077;&#1076;&#1086;&#1084;&#1083;&#1077;&#1085;&#1080;&#1081;</text></g><!--entity API--><g id="elem_API"><rect fill="#F1F1F1" height="46.2969" rx="2.5" ry="2.5" style="stroke:#181818;stroke-width:0.5;" width="61" x="410" y="418.4975"/><rect fill="#F1F1F1" height="10" style="stroke:#181818;stroke-width:0.5;" width="15" x="451" y="423.4975"/><rect fill="#F1F1F1" height="2" style="stroke:#181818;stroke-width:0.5;" width="4" x="449" y="425.4975"/><rect fill="#F1F1F1" height="2" style="stroke:#181818;stroke-width:0.5;" width="4" x="449" y="429.4975"/><text fill="#000000" font-family="sans-serif" font-size="14" lengthAdjust="spacing" textLength="21" x="425" y="451.4926">API</text></g><!--entity API_2--><g id="elem_API_2"><rect fill="#F1F1F1" height="111.4844" rx="2.5" ry="2.5" style="stroke:#181818;stroke-width:0.5;" width="287" x="1244" y="63.5875"/><rect fill="#F1F1F1" height="10" style="stroke:#181818;stroke-width:0.5;" width="15" x="1511" y="68.5875"/><rect fill="#F1F1F1" height="2" style="stroke:#181818;stroke-width:0.5;" width="4" x="1509" y="70.5875"/><rect fill="#F1F1F1" height="2" style="stroke:#181818;stroke-width:0.5;" width="4" x="1509" y="74.5875"/><text fill="#000000" font-family="sans-serif" font-size="14" lengthAdjust="spacing" textLength="26" x="1259" y="96.5826">API:</text><text fill="#000000" font-family="sans-serif" font-size="14" lengthAdjust="spacing" textLength="4" x="1259" y="112.8795">&#160;</text><text fill="#000000" font-family="sans-serif" font-size="14" lengthAdjust="spacing" textLength="206" x="1259" y="129.1764">1) &#1056;&#1091;&#1095;&#1082;&#1072; &#1087;&#1086;&#1083;&#1091;&#1095;&#1077;&#1085;&#1080;&#1103; &#1089;&#1086;&#1073;&#1099;&#1090;&#1080;&#1103;</text><text fill="#000000" font-family="sans-serif" font-size="14" lengthAdjust="spacing" textLength="243" x="1259" y="145.4732">2) &#1056;&#1091;&#1095;&#1082;&#1072; &#1086;&#1090;&#1076;&#1072;&#1095;&#1080; &#1089;&#1090;&#1072;&#1090;&#1091;&#1089;&#1072; &#1089;&#1086;&#1073;&#1099;&#1090;&#1080;&#1103;</text><text fill="#000000" font-family="sans-serif" font-size="14" lengthAdjust="spacing" textLength="229" x="1259" y="161.7701">3) &#1056;&#1091;&#1095;&#1082;&#1072; &#1086;&#1090;&#1076;&#1072;&#1095;&#1080; &#1074;&#1089;&#1077;&#1093; &#1096;&#1072;&#1073;&#1083;&#1086;&#1085;&#1086;&#1074;</text></g><!--entity Audiense--><g id="elem_Audiense"><rect fill="#F1F1F1" height="46.2969" rx="2.5" ry="2.5" style="stroke:#181818;stroke-width:0.5;" width="179" x="921" y="418.4975"/><rect fill="#F1F1F1" height="10" style="stroke:#181818;stroke-width:0.5;" width="15" x="1080" y="423.4975"/><rect fill="#F1F1F1" height="2" style="stroke:#181818;stroke-width:0.5;" width="4" x="1078" y="425.4975"/><rect fill="#F1F1F1" height="2" style="stroke:#181818;stroke-width:0.5;" width="4" x="1078" y="429.4975"/><text fill="#000000" font-family="sans-serif" font-size="14" lengthAdjust="spacing" textLength="139" x="936" y="451.4926">Audiense consumer</text></g><!--entity Auth--><g id="elem_Auth"><rect fill="#F1F1F1" height="46.2969" rx="2.5" ry="2.5" style="stroke:#181818;stroke-width:0.5;" width="127" x="947" y="263.4075"/><rect fill="#F1F1F1" height="10" style="stroke:#181818;stroke-width:0.5;" width="15" x="1054" y="268.4075"/><rect fill="#F1F1F1" height="2" style="stroke:#181818;stroke-width:0.5;" width="4" x="1052" y="270.4075"/><rect fill="#F1F1F1" height="2" style="stroke:#181818;stroke-width:0.5;" width="4" x="1052" y="274.4075"/><text fill="#000000" font-family="sans-serif" font-size="14" lengthAdjust="spacing" textLength="87" x="962" y="296.4026">Auth &#1089;&#1077;&#1088;&#1074;&#1080;&#1089;</text></g><!--entity Sheduler--><g id="elem_Sheduler"><rect fill="#F1F1F1" height="46.2969" rx="2.5" ry="2.5" style="stroke:#181818;stroke-width:0.5;" width="176" x="1456.5" y="418.4975"/><rect fill="#F1F1F1" height="10" style="stroke:#181818;stroke-width:0.5;" width="15" x="1612.5" y="423.4975"/><rect fill="#F1F1F1" height="2" style="stroke:#181818;stroke-width:0.5;" width="4" x="1610.5" y="425.4975"/><rect fill="#F1F1F1" height="2" style="stroke:#181818;stroke-width:0.5;" width="4" x="1610.5" y="429.4975"/><text fill="#000000" font-family="sans-serif" font-size="14" lengthAdjust="spacing" textLength="136" x="1471.5" y="451.4926">Sheduler consumer</text></g><!--entity Worker--><g id="elem_Worker"><rect fill="#F1F1F1" height="46.2969" rx="2.5" ry="2.5" style="stroke:#181818;stroke-width:0.5;" width="89" x="2077" y="263.4075"/><rect fill="#F1F1F1" height="10" style="stroke:#181818;stroke-width:0.5;" width="15" x="2146" y="268.4075"/><rect fill="#F1F1F1" height="2" style="stroke:#181818;stroke-width:0.5;" width="4" x="2144" y="270.4075"/><rect fill="#F1F1F1" height="2" style="stroke:#181818;stroke-width:0.5;" width="4" x="2144" y="274.4075"/><text fill="#000000" font-family="sans-serif" font-size="14" lengthAdjust="spacing" textLength="49" x="2092" y="296.4026">Worker</text></g><!--entity Database--><g id="elem_Database"><path d="M1565.5,65.9375 C1565.5,55.9375 1672.5,55.9375 1672.5,55.9375 C1672.5,55.9375 1779.5,55.9375 1779.5,65.9375 L1779.5,172.7188 C1779.5,182.7188 1672.5,182.7188 1672.5,182.7188 C1672.5,182.7188 1565.5,182.7188 1565.5,172.7188 L1565.5,65.9375 " fill="#F1F1F1" style="stroke:#181818;stroke-width:0.5;"/><path d="M1565.5,65.9375 C1565.5,75.9375 1672.5,75.9375 1672.5,75.9375 C1672.5,75.9375 1779.5,75.9375 1779.5,65.9375 " fill="none" style="stroke:#181818;stroke-width:0.5;"/><text fill="#000000" font-family="sans-serif" font-size="14" lengthAdjust="spacing" textLength="97" x="1575.5" y="92.9326">&#1041;&#1072;&#1079;&#1072; &#1076;&#1072;&#1085;&#1085;&#1099;&#1093;:</text><text fill="#000000" font-family="sans-serif" font-size="14" lengthAdjust="spacing" textLength="4" x="1575.5" y="109.2295">&#160;</text><text fill="#000000" font-family="sans-serif" font-size="14" lengthAdjust="spacing" textLength="169" x="1575.5" y="125.5264">1) Nested &#1091;&#1074;&#1077;&#1076;&#1086;&#1084;&#1083;&#1077;&#1085;&#1080;&#1103;</text><text fill="#000000" font-family="sans-serif" font-size="14" lengthAdjust="spacing" textLength="190" x="1575.5" y="141.8232">2) &#1064;&#1072;&#1073;&#1083;&#1086;&#1085;&#1099; &#1091;&#1074;&#1077;&#1076;&#1086;&#1084;&#1083;&#1077;&#1085;&#1080;&#1081;</text><text fill="#000000" font-family="sans-serif" font-size="14" lengthAdjust="spacing" textLength="4" x="1575.5" y="158.1201">&#160;</text><text fill="#000000" font-family="sans-serif" font-size="14" lengthAdjust="spacing" textLength="173" x="1579.5" y="174.417">&#1056;&#1072;&#1079;&#1088;&#1077;&#1096;&#1077;&#1085;&#1099;: get &#1080; insert</text></g><!--entity Queue_1--><g id="elem_Queue_1"><rect fill="#F1F1F1" height="46.2969" rx="2.5" ry="2.5" style="stroke:#181818;stroke-width:0.5;" width="103" x="691" y="418.4975"/><rect fill="#F1F1F1" height="10" style="stroke:#181818;stroke-width:0.5;" width="15" x="774" y="423.4975"/><rect fill="#F1F1F1" height="2" style="stroke:#181818;stroke-width:0.5;" width="4" x="772" y="425.4975"/><rect fill="#F1F1F1" height="2" style="stroke:#181818;stroke-width:0.5;" width="4" x="772" y="429.4975"/><text fill="#000000" font-family="sans-serif" font-size="14" lengthAdjust="spacing" textLength="63" x="706" y="451.4926">Queue_1</text></g><!--entity Queue_2--><g id="elem_Queue_2"><rect fill="#F1F1F1" height="46.2969" rx="2.5" ry="2.5" style="stroke:#181818;stroke-width:0.5;" width="103" x="1227" y="418.4975"/><rect fill="#F1F1F1" height="10" style="stroke:#181818;stroke-width:0.5;" width="15" x="1310" y="423.4975"/><rect fill="#F1F1F1" height="2" style="stroke:#181818;stroke-width:0.5;" width="4" x="1308" y="425.4975"/><rect fill="#F1F1F1" height="2" style="stroke:#181818;stroke-width:0.5;" width="4" x="1308" y="429.4975"/><text fill="#000000" font-family="sans-serif" font-size="14" lengthAdjust="spacing" textLength="63" x="1242" y="451.4926">Queue_2</text></g><!--entity Queue_3--><g id="elem_Queue_3"><rect fill="#F1F1F1" height="46.2969" rx="2.5" ry="2.5" style="stroke:#181818;stroke-width:0.5;" width="103" x="1784" y="418.4975"/><rect fill="#F1F1F1" height="10" style="stroke:#181818;stroke-width:0.5;" width="15" x="1867" y="423.4975"/><rect fill="#F1F1F1" height="2" style="stroke:#181818;stroke-width:0.5;" width="4" x="1865" y="425.4975"/><rect fill="#F1F1F1" height="2" style="stroke:#181818;stroke-width:0.5;" width="4" x="1865" y="429.4975"/><text fill="#000000" font-family="sans-serif" font-size="14" lengthAdjust="spacing" textLength="63" x="1799" y="451.4926">Queue_3</text></g><!--entity DLQ--><g id="elem_DLQ"><rect fill="#F1F1F1" height="46.2969" rx="2.5" ry="2.5" style="stroke:#181818;stroke-width:0.5;" width="166" x="1756.5" y="263.4075"/><rect fill="#F1F1F1" height="10" style="stroke:#181818;stroke-width:0.5;" width="15" x="1902.5" y="268.4075"/><rect fill="#F1F1F1" height="2" style="stroke:#181818;stroke-width:0.5;" width="4" x="1900.5" y="270.4075"/><rect fill="#F1F1F1" height="2" style="stroke:#181818;stroke-width:0.5;" width="4" x="1900.5" y="274.4075"/><text fill="#000000" font-family="sans-serif" font-size="14" lengthAdjust="spacing" textLength="126" x="1771.5" y="296.4026">Dead letter queue</text></g><g id="elem_GMN32"><path d="M6,243.7175 L6,329.3816 A0,0 0 0 0 6,329.3816 L180.64,329.3816 L193.32,418.3875 L188.64,329.3816 L355,329.3816 A0,0 0 0 0 355,329.3816 L355,253.7175 L345,243.7175 L6,243.7175 A0,0 0 0 0 6,243.7175 " fill="#FEFFDD" style="stroke:#181818;stroke-width:0.5;"/><path d="M345,243.7175 L345,253.7175 L355,253.7175 L345,243.7175 " fill="#FEFFDD" style="stroke:#181818;stroke-width:0.5;"/><text fill="#000000" font-family="sans-serif" font-size="13" lengthAdjust="spacing" textLength="328" x="12" y="260.7844">1) &#1043;&#1077;&#1085;&#1077;&#1088;&#1080;&#1088;&#1086;&#1074;&#1072;&#1090;&#1100; &#1086;&#1073;&#1097;&#1080;&#1077; scheduled &#1091;&#1074;&#1077;&#1076;&#1086;&#1084;&#1083;&#1077;&#1085;&#1080;&#1103;,</text><text fill="#000000" font-family="sans-serif" font-size="13" lengthAdjust="spacing" textLength="218" x="12" y="275.9172">(&#1085;&#1077;&#1076;&#1077;&#1083;&#1100;&#1085;&#1072;&#1103; &#1087;&#1086;&#1076;&#1073;&#1086;&#1088;&#1082;&#1072; &#1092;&#1080;&#1083;&#1100;&#1084;&#1086;&#1074;)</text><text fill="#000000" font-family="sans-serif" font-size="13" lengthAdjust="spacing" textLength="308" x="12" y="291.05">2) &#1043;&#1077;&#1085;&#1077;&#1088;&#1080;&#1088;&#1086;&#1074;&#1072;&#1090;&#1100; &#1087;&#1077;&#1088;&#1089;&#1086;&#1085;&#1072;&#1083;&#1100;&#1085;&#1099;&#1077; &#1091;&#1074;&#1077;&#1076;&#1086;&#1084;&#1083;&#1077;&#1085;&#1080;&#1103;</text><text fill="#000000" font-family="sans-serif" font-size="13" lengthAdjust="spacing" textLength="237" x="12" y="306.1828">(&#1087;&#1080;&#1089;&#1100;&#1084;&#1086; &#1089;&#1086; &#1089;&#1090;&#1072;&#1090;&#1080;&#1089;&#1090;&#1080;&#1082;&#1086;&#1081; &#1072;&#1082;&#1090;&#1080;&#1074;&#1085;&#1099;&#1084;</text><text fill="#000000" font-family="sans-serif" font-size="13" lengthAdjust="spacing" textLength="220" x="12" y="321.3156">&#1087;&#1086;&#1083;&#1100;&#1079;&#1086;&#1074;&#1072;&#1090;&#1077;&#1083;&#1103;&#1084; &#1074; &#1082;&#1086;&#1085;&#1094;&#1077; &#1084;&#1077;&#1089;&#1103;&#1094;&#1072;)</text></g><g id="elem_GMN35"><path d="M266,99.1975 L266,139.4631 A0,0 0 0 0 266,139.4631 L444.5,139.4631 L448.5,248.1375 L452.5,139.4631 L631,139.4631 A0,0 0 0 0 631,139.4631 L631,109.1975 L621,99.1975 L266,99.1975 A0,0 0 0 0 266,99.1975 " fill="#FEFFDD" style="stroke:#181818;stroke-width:0.5;"/><path d="M621,99.1975 L621,109.1975 L631,109.1975 L621,99.1975 " fill="#FEFFDD" style="stroke:#181818;stroke-width:0.5;"/><text fill="#000000" font-family="sans-serif" font-size="13" lengthAdjust="spacing" textLength="344" x="272" y="116.2644">1) &#1054;&#1090;&#1087;&#1088;&#1072;&#1074;&#1080;&#1090;&#1100; &#1091;&#1074;&#1077;&#1076;&#1086;&#1084;&#1083;&#1077;&#1085;&#1080;&#1077; &#1086;&#1076;&#1085;&#1086;&#1084;&#1091; &#1087;&#1086;&#1083;&#1100;&#1079;&#1086;&#1074;&#1072;&#1090;&#1077;&#1083;&#1102;</text><text fill="#000000" font-family="sans-serif" font-size="13" lengthAdjust="spacing" textLength="332" x="272" y="131.3972">2) &#1054;&#1090;&#1087;&#1088;&#1072;&#1074;&#1080;&#1090;&#1100; &#1091;&#1074;&#1077;&#1076;&#1086;&#1084;&#1083;&#1077;&#1085;&#1080;&#1077; &#1074;&#1089;&#1077;&#1084; &#1087;&#1086;&#1083;&#1100;&#1079;&#1086;&#1074;&#1072;&#1090;&#1077;&#1083;&#1103;&#1084;</text></g><g id="elem_GMN38"><path d="M323,691.2075 L323,731.4731 A0,0 0 0 0 323,731.4731 L558,731.4731 A0,0 0 0 0 558,731.4731 L558,701.2075 L548,691.2075 L444.5,691.2075 L440.5,630.4975 L436.5,691.2075 L323,691.2075 A0,0 0 0 0 323,691.2075 " fill="#FEFFDD" style="stroke:#181818;stroke-width:0.5;"/><path d="M548,691.2075 L548,701.2075 L558,701.2075 L548,691.2075 " fill="#FEFFDD" style="stroke:#181818;stroke-width:0.5;"/><text fill="#000000" font-family="sans-serif" font-size="13" lengthAdjust="spacing" textLength="213" x="329" y="708.2744">&#1059;&#1074;&#1077;&#1076;&#1086;&#1084;&#1083;&#1077;&#1085;&#1080;&#1103;, &#1080;&#1085;&#1080;&#1094;&#1080;&#1080;&#1088;&#1086;&#1074;&#1072;&#1085;&#1085;&#1099;&#1077;</text><text fill="#000000" font-family="sans-serif" font-size="13" lengthAdjust="spacing" textLength="214" x="329" y="723.4072">&#1087;&#1086;&#1083;&#1100;&#1079;&#1086;&#1074;&#1072;&#1090;&#1077;&#1083;&#1077;&#1084; (welcome email)</text></g><g id="elem_GMN41"><path d="M777,564.3675 L777,619.7659 A0,0 0 0 0 777,619.7659 L1244,619.7659 A0,0 0 0 0 1244,619.7659 L1244,574.3675 L1234,564.3675 L1014.5,564.3675 L1010.5,465.1875 L1006.5,564.3675 L777,564.3675 A0,0 0 0 0 777,564.3675 " fill="#FEFFDD" style="stroke:#181818;stroke-width:0.5;"/><path d="M1234,564.3675 L1234,574.3675 L1244,574.3675 L1234,564.3675 " fill="#FEFFDD" style="stroke:#181818;stroke-width:0.5;"/><text fill="#000000" font-family="sans-serif" font-size="13" lengthAdjust="spacing" textLength="446" x="783" y="581.4344">1) &#1059;&#1090;&#1086;&#1095;&#1085;&#1103;&#1077;&#1090; &#1088;&#1072;&#1079;&#1088;&#1077;&#1096;&#1077;&#1085;&#1072; &#1083;&#1080; &#1086;&#1090;&#1087;&#1088;&#1072;&#1074;&#1082;&#1072; &#1091;&#1074;&#1077;&#1076;&#1086;&#1084;&#1083;&#1077;&#1085;&#1080;&#1081; &#1087;&#1086;&#1083;&#1100;&#1079;&#1086;&#1074;&#1072;&#1090;&#1077;&#1083;&#1102;</text><text fill="#000000" font-family="sans-serif" font-size="13" lengthAdjust="spacing" textLength="296" x="783" y="596.5672">2) &#1056;&#1072;&#1089;&#1089;&#1095;&#1077;&#1090; &#1074;&#1088;&#1077;&#1084;&#1077;&#1085;&#1080; &#1086;&#1090;&#1087;&#1088;&#1072;&#1074;&#1082;&#1080; &#1091;&#1074;&#1077;&#1076;&#1086;&#1084;&#1083;&#1077;&#1085;&#1080;&#1103;</text><text fill="#000000" font-family="sans-serif" font-size="13" lengthAdjust="spacing" textLength="190" x="783" y="611.7">3) &#1051;&#1086;&#1075;&#1080;&#1088;&#1091;&#1077;&#1090; &#1089;&#1086;&#1073;&#1099;&#1090;&#1080;&#1103; &#1074; &#1073;&#1072;&#1079;&#1091;</text></g><g id="elem_GMN44"><path d="M1323.5,571.9275 L1323.5,612.1931 A0,0 0 0 0 1323.5,612.1931 L1673.5,612.1931 A0,0 0 0 0 1673.5,612.1931 L1673.5,581.9275 L1663.5,571.9275 L1508.52,571.9275 L1537.51,465.1875 L1500.52,571.9275 L1323.5,571.9275 A0,0 0 0 0 1323.5,571.9275 " fill="#FEFFDD" style="stroke:#181818;stroke-width:0.5;"/><path d="M1663.5,571.9275 L1663.5,581.9275 L1673.5,581.9275 L1663.5,571.9275 " fill="#FEFFDD" style="stroke:#181818;stroke-width:0.5;"/><text fill="#000000" font-family="sans-serif" font-size="13" lengthAdjust="spacing" textLength="329" x="1329.5" y="588.9944">1) &#1056;&#1072;&#1089;&#1089;&#1095;&#1080;&#1090;&#1099;&#1074;&#1072;&#1077;&#1090; TTL &#1076;&#1083;&#1103; &#1082;&#1072;&#1078;&#1076;&#1086;&#1075;&#1086; &#1091;&#1074;&#1077;&#1076;&#1086;&#1084;&#1083;&#1077;&#1085;&#1080;&#1103;</text><text fill="#000000" font-family="sans-serif" font-size="13" lengthAdjust="spacing" textLength="190" x="1329.5" y="604.1272">2) &#1051;&#1086;&#1075;&#1080;&#1088;&#1091;&#1077;&#1090; &#1089;&#1086;&#1073;&#1099;&#1090;&#1080;&#1103; &#1074; &#1073;&#1072;&#1079;&#1091;</text></g><g id="elem_GMN47"><path d="M1708.5,556.7975 L1708.5,627.3287 A0,0 0 0 0 1708.5,627.3287 L2012.5,627.3287 A0,0 0 0 0 2012.5,627.3287 L2012.5,566.7975 L2002.5,556.7975 L1858.66,556.7975 L1839.3,465.1875 L1850.66,556.7975 L1708.5,556.7975 A0,0 0 0 0 1708.5,556.7975 " fill="#FEFFDD" style="stroke:#181818;stroke-width:0.5;"/><path d="M2002.5,556.7975 L2002.5,566.7975 L2012.5,566.7975 L2002.5,556.7975 " fill="#FEFFDD" style="stroke:#181818;stroke-width:0.5;"/><text fill="#000000" font-family="sans-serif" font-size="13" lengthAdjust="spacing" textLength="283" x="1714.5" y="573.8644">1) &#1061;&#1088;&#1072;&#1085;&#1080;&#1090; &#1091;&#1074;&#1077;&#1076;&#1086;&#1084;&#1083;&#1077;&#1085;&#1080;&#1103; &#1076;&#1086; &#1080;&#1089;&#1090;&#1077;&#1095;&#1077;&#1085;&#1080;&#1103; TTL</text><text fill="#000000" font-family="sans-serif" font-size="13" lengthAdjust="spacing" textLength="279" x="1714.5" y="588.9972">2) &#1059;&#1089;&#1090;&#1072;&#1088;&#1077;&#1074;&#1096;&#1080;&#1077; &#1091;&#1074;&#1077;&#1076;&#1086;&#1084;&#1083;&#1077;&#1085;&#1080;&#1103; &#1087;&#1086;&#1084;&#1077;&#1097;&#1072;&#1077;&#1090; &#1074;</text><text fill="#000000" font-family="sans-serif" font-size="13" lengthAdjust="spacing" textLength="256" x="1714.5" y="604.13">Dead letter queue, &#1090;&#1077;&#1084; &#1089;&#1072;&#1084;&#1099;&#1084; &#1103;&#1074;&#1083;&#1103;&#1103;&#1089;&#1100;</text><text fill="#000000" font-family="sans-serif" font-size="13" lengthAdjust="spacing" textLength="109" x="1714.5" y="619.2628">&#1087;&#1083;&#1072;&#1085;&#1080;&#1088;&#1086;&#1074;&#1097;&#1080;&#1082;&#1086;&#1084;</text></g><g id="elem_GMN50"><path d="M1922.5,406.3875 L1922.5,476.9188 A0,0 0 0 0 1922.5,476.9188 L2322.5,476.9188 A0,0 0 0 0 2322.5,476.9188 L2322.5,416.3875 L2312.5,406.3875 L2126.27,406.3875 L2121.65,310.1375 L2118.27,406.3875 L1922.5,406.3875 A0,0 0 0 0 1922.5,406.3875 " fill="#FEFFDD" style="stroke:#181818;stroke-width:0.5;"/><path d="M2312.5,406.3875 L2312.5,416.3875 L2322.5,416.3875 L2312.5,406.3875 " fill="#FEFFDD" style="stroke:#181818;stroke-width:0.5;"/><text fill="#000000" font-family="sans-serif" font-size="13" lengthAdjust="spacing" textLength="379" x="1928.5" y="423.4544">1) &#1055;&#1086;&#1083;&#1091;&#1095;&#1072;&#1077;&#1090; &#1089;&#1086;&#1086;&#1073;&#1097;&#1077;&#1085;&#1080;&#1103; &#1080;&#1079; scheduled &#1080; instant &#1086;&#1095;&#1077;&#1088;&#1077;&#1076;&#1077;&#1081;</text><text fill="#000000" font-family="sans-serif" font-size="13" lengthAdjust="spacing" textLength="343" x="1928.5" y="438.5872">2) &#1054;&#1073;&#1086;&#1075;&#1072;&#1097;&#1072;&#1077;&#1090; &#1076;&#1072;&#1085;&#1085;&#1099;&#1084;&#1080; &#1086;&#1090; &#1089;&#1077;&#1088;&#1074;&#1080;&#1089;&#1072; Auth &#1087;&#1086; user_id</text><text fill="#000000" font-family="sans-serif" font-size="13" lengthAdjust="spacing" textLength="323" x="1928.5" y="453.72">3) &#1055;&#1086;&#1074;&#1090;&#1086;&#1088;&#1085;&#1086; &#1074;&#1072;&#1083;&#1080;&#1076;&#1080;&#1088;&#1091;&#1077;&#1090; &#1096;&#1072;&#1073;&#1083;&#1086;&#1085; &#1080; &#1087;&#1077;&#1088;&#1077;&#1084;&#1077;&#1085;&#1085;&#1099;&#1077;</text><text fill="#000000" font-family="sans-serif" font-size="13" lengthAdjust="spacing" textLength="190" x="1928.5" y="468.8528">4) &#1051;&#1086;&#1075;&#1080;&#1088;&#1091;&#1077;&#1090; &#1089;&#1086;&#1073;&#1099;&#1090;&#1080;&#1103; &#1074; &#1073;&#1072;&#1079;&#1091;</text></g><g id="elem_GMN53"><path d="M812,91.6275 L812,147.0259 A0,0 0 0 0 812,147.0259 L1006.5,147.0259 L1010.5,263.1575 L1014.5,147.0259 L1209,147.0259 A0,0 0 0 0 1209,147.0259 L1209,101.6275 L1199,91.6275 L812,91.6275 A0,0 0 0 0 812,91.6275 " fill="#FEFFDD" style="stroke:#181818;stroke-width:0.5;"/><path d="M1199,91.6275 L1199,101.6275 L1209,101.6275 L1199,91.6275 " fill="#FEFFDD" style="stroke:#181818;stroke-width:0.5;"/><text fill="#000000" font-family="sans-serif" font-size="13" lengthAdjust="spacing" textLength="288" x="818" y="108.6944">1) &#1056;&#1091;&#1095;&#1082;&#1072; user_id -&gt; user_email (&#1076;&#1083;&#1103; Worker)</text><text fill="#000000" font-family="sans-serif" font-size="13" lengthAdjust="spacing" textLength="328" x="818" y="123.8272">2) &#1056;&#1091;&#1095;&#1082;&#1072; user_id -&gt; user_timezone (&#1076;&#1083;&#1103; Audiense)</text><text fill="#000000" font-family="sans-serif" font-size="13" lengthAdjust="spacing" textLength="376" x="818" y="138.96">3) &#1056;&#1091;&#1095;&#1082;&#1072; user_id -&gt; user_allow_notification (&#1076;&#1083;&#1103; Audiense)</text></g><!--link Generator to API--><g id="link_Generator_API"><path d="M306.17,441.6475 C343.96,441.6475 377.27,441.6475 403.52,441.6475 " fill="none" id="Generator-to-API" style="stroke:#181818;stroke-width:1.0;"/><polygon fill="#181818" points="409.52,441.6475,400.52,437.6475,404.52,441.6475,400.52,445.6475,409.52,441.6475" style="stroke:#181818;stroke-width:1.0;"/><text fill="#000000" font-family="sans-serif" font-size="13" lengthAdjust="spacing" textLength="60" x="328" y="434.7144">&#1057;&#1086;&#1073;&#1099;&#1090;&#1080;&#1077;</text></g><!--link ????????????? to API--><g id="link_&#1040;&#1076;&#1084;&#1080;&#1085;&#1080;&#1089;&#1090;&#1088;&#1072;&#1090;&#1086;&#1088;_API"><path d="M446.54,325.0075 C445.02,354.2175 443.2636,387.8257 441.9836,412.2857 " fill="none" id="&#1040;&#1076;&#1084;&#1080;&#1085;&#1080;&#1089;&#1090;&#1088;&#1072;&#1090;&#1086;&#1088;-to-API" style="stroke:#181818;stroke-width:1.0;"/><polygon fill="#181818" points="441.67,418.2775,446.1349,409.4988,441.9313,413.2843,438.1458,409.0808,441.67,418.2775" style="stroke:#181818;stroke-width:1.0;"/><text fill="#000000" font-family="sans-serif" font-size="13" lengthAdjust="spacing" textLength="60" x="446.5" y="372.4544">&#1057;&#1086;&#1073;&#1099;&#1090;&#1080;&#1077;</text></g><!--reverse link API to Users--><g id="link_API_Users"><path d="M440.5,471.1875 C440.5,494.6275 440.5,525.7075 440.5,553.5675 " fill="none" id="API-backto-Users" style="stroke:#181818;stroke-width:1.0;"/><polygon fill="#181818" points="440.5,465.1875,436.5,474.1875,440.5,470.1875,444.5,474.1875,440.5,465.1875" style="stroke:#181818;stroke-width:1.0;"/><text fill="#000000" font-family="sans-serif" font-size="13" lengthAdjust="spacing" textLength="60" x="441.5" y="519.9844">&#1057;&#1086;&#1073;&#1099;&#1090;&#1080;&#1077;</text></g><!--link API to Queue_1--><g id="link_API_Queue_1"><path d="M471.4,441.6475 C523.04,441.6475 621.41,441.6475 684.52,441.6475 " fill="none" id="API-to-Queue_1" style="stroke:#181818;stroke-width:1.0;"/><polygon fill="#181818" points="690.52,441.6475,681.52,437.6475,685.52,441.6475,681.52,445.6475,690.52,441.6475" style="stroke:#181818;stroke-width:1.0;"/><text fill="#000000" font-family="sans-serif" font-size="13" lengthAdjust="spacing" textLength="183" x="489.5" y="344.7144">1) &#1075;&#1077;&#1085;&#1077;&#1088;&#1072;&#1094;&#1080;&#1103; &#1091;&#1074;&#1077;&#1076;&#1086;&#1084;&#1083;&#1077;&#1085;&#1080;&#1103;</text><text fill="#000000" font-family="sans-serif" font-size="13" lengthAdjust="spacing" textLength="168" x="497" y="359.8472">2) &#1087;&#1077;&#1088;&#1074;&#1080;&#1095;&#1085;&#1072;&#1103; &#1074;&#1072;&#1083;&#1080;&#1076;&#1072;&#1094;&#1080;&#1103;</text><text fill="#000000" font-family="sans-serif" font-size="13" lengthAdjust="spacing" textLength="157" x="502.5" y="374.98">&#1096;&#1072;&#1073;&#1083;&#1086;&#1085;&#1072; &#1080; &#1087;&#1077;&#1088;&#1077;&#1084;&#1077;&#1085;&#1085;&#1099;&#1093;</text><text fill="#000000" font-family="sans-serif" font-size="13" lengthAdjust="spacing" textLength="151" x="505.5" y="390.1128">3) &#1079;&#1072;&#1075;&#1088;&#1091;&#1079;&#1082;&#1072; &#1074; &#1086;&#1095;&#1077;&#1088;&#1077;&#1076;&#1080;</text><text fill="#000000" font-family="sans-serif" font-size="13" lengthAdjust="spacing" textLength="151" x="505.5" y="405.2456">(scheduled &#1080;&#1083;&#1080; instant)</text><text fill="#000000" font-family="sans-serif" font-size="13" lengthAdjust="spacing" textLength="148" x="507" y="420.3785">4) &#1083;&#1086;&#1075; &#1089;&#1086;&#1073;&#1099;&#1090;&#1080;&#1103; &#1074; &#1073;&#1072;&#1079;&#1091;</text><text fill="#000000" font-family="sans-serif" font-size="13" lengthAdjust="spacing" textLength="4" x="579" y="435.5113">&#160;</text></g><!--link Queue_1 to Audiense--><g id="link_Queue_1_Audiense"><path d="M794.49,441.6475 C830.26,441.6475 872.7,441.6475 914.65,441.6475 " fill="none" id="Queue_1-to-Audiense" style="stroke:#181818;stroke-width:1.0;"/><polygon fill="#181818" points="920.65,441.6475,911.65,437.6475,915.65,441.6475,911.65,445.6475,920.65,441.6475" style="stroke:#181818;stroke-width:1.0;"/><text fill="#000000" font-family="sans-serif" font-size="13" lengthAdjust="spacing" textLength="46" x="834.5" y="419.7144">Nested</text><text fill="#000000" font-family="sans-serif" font-size="13" lengthAdjust="spacing" textLength="90" x="812.5" y="434.8472">&#1091;&#1074;&#1077;&#1076;&#1086;&#1084;&#1083;&#1077;&#1085;&#1080;&#1077;</text></g><!--link Audiense to Queue_2--><g id="link_Audiense_Queue_2"><path d="M1100.49,441.6475 C1142.46,441.6475 1184.91,441.6475 1220.65,441.6475 " fill="none" id="Audiense-to-Queue_2" style="stroke:#181818;stroke-width:1.0;"/><polygon fill="#181818" points="1226.65,441.6475,1217.65,437.6475,1221.65,441.6475,1217.65,445.6475,1226.65,441.6475" style="stroke:#181818;stroke-width:1.0;"/><text fill="#000000" font-family="sans-serif" font-size="13" lengthAdjust="spacing" textLength="46" x="1140.5" y="419.7144">Nested</text><text fill="#000000" font-family="sans-serif" font-size="13" lengthAdjust="spacing" textLength="90" x="1118.5" y="434.8472">&#1091;&#1074;&#1077;&#1076;&#1086;&#1084;&#1083;&#1077;&#1085;&#1080;&#1077;</text></g><!--reverse link Auth to Audiense--><g id="link_Auth_Audiense"><path d="M1010.5,316.1375 C1010.5,345.2575 1010.5,389.5475 1010.5,418.4675 " fill="none" id="Auth-backto-Audiense" style="stroke:#181818;stroke-width:1.0;"/><polygon fill="#181818" points="1010.5,310.1375,1006.5,319.1375,1010.5,315.1375,1014.5,319.1375,1010.5,310.1375" style="stroke:#181818;stroke-width:1.0;"/><text fill="#000000" font-family="sans-serif" font-size="13" lengthAdjust="spacing" textLength="46" x="1011.5" y="372.4544">user_id</text></g><!--link Queue_2 to Sheduler--><g id="link_Queue_2_Sheduler"><path d="M1330.42,441.6475 C1366.1,441.6475 1408.37,441.6475 1450.05,441.6475 " fill="none" id="Queue_2-to-Sheduler" style="stroke:#181818;stroke-width:1.0;"/><polygon fill="#181818" points="1456.05,441.6475,1447.05,437.6475,1451.05,441.6475,1447.05,445.6475,1456.05,441.6475" style="stroke:#181818;stroke-width:1.0;"/><text fill="#000000" font-family="sans-serif" font-size="13" lengthAdjust="spacing" textLength="46" x="1370.25" y="419.7144">Nested</text><text fill="#000000" font-family="sans-serif" font-size="13" lengthAdjust="spacing" textLength="90" x="1348.25" y="434.8472">&#1091;&#1074;&#1077;&#1076;&#1086;&#1084;&#1083;&#1077;&#1085;&#1080;&#1077;</text></g><!--link Sheduler to Queue_3--><g id="link_Sheduler_Queue_3"><path d="M1632.99,441.6475 C1682.32,441.6475 1736.03,441.6475 1777.79,441.6475 " fill="none" id="Sheduler-to-Queue_3" style="stroke:#181818;stroke-width:1.0;"/><polygon fill="#181818" points="1783.79,441.6475,1774.79,437.6475,1778.79,441.6475,1774.79,445.6475,1783.79,441.6475" style="stroke:#181818;stroke-width:1.0;"/><text fill="#000000" font-family="sans-serif" font-size="13" lengthAdjust="spacing" textLength="46" x="1685.25" y="404.7144">Nested</text><text fill="#000000" font-family="sans-serif" font-size="13" lengthAdjust="spacing" textLength="90" x="1663.25" y="419.8472">&#1091;&#1074;&#1077;&#1076;&#1086;&#1084;&#1083;&#1077;&#1085;&#1080;&#1077;</text><text fill="#000000" font-family="sans-serif" font-size="13" lengthAdjust="spacing" textLength="50" x="1683.25" y="434.98">with TTL</text></g><!--reverse link DLQ to Queue_3--><g id="link_DLQ_Queue_3"><path d="M1838.7535,316.1355 C1837.9935,345.2555 1836.84,389.5475 1836.08,418.4675 " fill="none" id="DLQ-backto-Queue_3" style="stroke:#181818;stroke-width:1.0;"/><polygon fill="#181818" points="1838.91,310.1375,1834.6766,319.0301,1838.7795,315.1358,1842.6738,319.2388,1838.91,310.1375" style="stroke:#181818;stroke-width:1.0;"/></g><!--link DLQ to Worker--><g id="link_DLQ_Worker"><path d="M1922.96,286.5475 C1973.31,286.5475 2029.47,286.5475 2070.69,286.5475 " fill="none" id="DLQ-to-Worker" style="stroke:#181818;stroke-width:1.0;"/><polygon fill="#181818" points="2076.69,286.5475,2067.69,282.5475,2071.69,286.5475,2067.69,290.5475,2076.69,286.5475" style="stroke:#181818;stroke-width:1.0;"/><text fill="#000000" font-family="sans-serif" font-size="13" lengthAdjust="spacing" textLength="117" x="1941.25" y="264.6144">&#1054;&#1090;&#1087;&#1088;&#1072;&#1074;&#1082;&#1072; Nested</text><text fill="#000000" font-family="sans-serif" font-size="13" lengthAdjust="spacing" textLength="90" x="1954.75" y="279.7472">&#1091;&#1074;&#1077;&#1076;&#1086;&#1084;&#1083;&#1077;&#1085;&#1080;&#1103;</text></g><!--link Worker to User--><g id="link_Worker_User"><path d="M2166.41,286.5475 C2215.14,286.5475 2284.39,286.5475 2317.23,286.5475 " fill="none" id="Worker-to-User" style="stroke:#181818;stroke-width:1.0;"/><polygon fill="#181818" points="2323.23,286.5475,2314.23,282.5475,2318.23,286.5475,2314.23,290.5475,2323.23,286.5475" style="stroke:#181818;stroke-width:1.0;"/><text fill="#000000" font-family="sans-serif" font-size="13" lengthAdjust="spacing" textLength="121" x="2184.25" y="279.6144">Email \ websockets</text></g><text fill="#888888" font-family="sans-serif" font-size="10" lengthAdjust="spacing" textLength="89" x="1129.75" y="746.7554">&#1057;&#1090;&#1088;&#1072;&#1085;&#1080;&#1094;&#1072; 1 &#1080;&#1079; 1</text><!--SRC=[hLTDJoD74BtFhsXnmj9omEp9XqXHYA98grLMkr4kbj1WDtY4FKCyRLd9QO4iP0LQ4kMMIDciKAGSZR63mSRyXPv_b5VLtJDZup69ibZW-UYkhdhrwbKHxmNXlj_sMsBRh-tjjgDEMFyiQaPjqMq4Idfn-huMjVQZK8RgfVgkAKMdrInxNaFwTTaM-bSzrHDzZxztUgZlaaDyzv9peGTwf7lwAdcDlnDyUY8vq4FSzlK8LptnF5B1Jb3pLH25dWeKJ7yiQpjHfCYv3yaXxxZ3ecCiMXSmSotMFS-lAKIgVuBX2PxHWWEp66TEazTsmTUnRCUvQyzBmH1Vo52sVNhZns95_q8EiqlMX4YEuDqG9r1COtuzqZShEHEVVlKbRyRttEEjidjH4TMm6gwNXFuZEKfEz2tYO8J6VCjMWH10cEhBv1HduxOQbcStJF5y0CzEz4XGfEGatXuO87CxSTf6yLRTPzZVYEH7m7g9g2XJKzsVSRzJ3sGOInE1kwb5OTnfoVRiIjMmgt2HpsX-rSk6h7UQqk2StYoozqtKtgCarNtbR_iuTDDTS8f-Xi_N5DA0EN67cD-ay3wNiPBrXKbpUFwLnPoS5gINpG4_EWh1304K4Vcq8dQb0lr4033QQYNFf1STsP5Rwm-Ub1yysSWzsNpsWiFQH2MAfbJ4-6zf5Mndt5pxH329z8Siothe5JDVhDMZRbYmZUj1h7Ns2zuJeTVQmMv3OO4DgoA8l5UvyZWsZ5s2z7tAX1Ed07qWEiOX0sUW6iwGi4VWser3M1ow31j2NnlvmA7NXjPzOlQ9NGvvgOQhSSsGgquoCJQvKdweIjNmAKpGELVpvK9sBZdPHzNGio5d63ZwLoo_uFGYsW0vLoTpy9N_mqwJ5fHIHNIGgAsWRXqgPrPT_JngDYsqEOSs7jjP3Ri1gldLgsVsz0th6GZh4MbJWwPSGQBV0UOzAtMVaxFiWEJSC_ioEyJAYlYyvGTDKHLTkHr7jJsfOiyBqGU4YlP5j9FfjIVmGvpC97k4tobH39Lm9ZZ1RoaMaL5YiIzFsDWgjwi1ViV9cICiQVG0t41DSL393yGgl9_GKINUM5xc1NEPwNP7t2VBoIbyAa35E7BFzSo7C5LJjJTr3XTkiUz6mE8jt_RPweItsxvoXXgnVd18vth2FBzbvJk62rHVC7TENRNaoR0k2EbPl9SqLvU0VDv77FHYIWc6aXhD93agyl9TYkY_DyljZA8h37m-kEr8gQX5yPdPW66xM4WDOME7McMfDQg4-Yh6cprQxSecj5uAIRGk5RlXoZy5zO91Xcx2_M5oA1Y8N2yYyIDnuyQUhxg2XlOetEXroEy1Y-aXOPe9y8DJHilOIphz6uaimOLrx7sXt1P3ugGhXIJpaEXmodaWuz0e6WR6P1W8wB_PhIkgcc8lon_9IzVHdPD_fgFgOS7nvEjKs48UveO_qbhdseKjU4f27naV5Ig6oInLybkBX-wpcGSJnHF1IPzGd9Y_IIy4sDKdvF21tZWwZsq8p7RMK1AD9LLaHpO7mljqiErbm1evJhsc4JxVgbsRdcteGtsJ2GB9C1BMoo9DHq2IA6Rf_7yKF9CIH6apTHnzpy6nb94evMUJ72LomydYqSIAmDF_nIShjkHiHlTqUBUUqnJ8bomcw1A6ymRxh1CLxrD1ItwFiJFTwbIdb89IlDblDgFkLfZx1ss16HVMFm00]--></g></svg>