<?xml version="1.0" encoding="us-ascii" standalone="no"?><svg xmlns="http://www.w3.org/2000/svg" xmlns:xlink="http://www.w3.org/1999/xlink" contentStyleType="text/css" height="614px" preserveAspectRatio="none" style="width:1039px;height:614px;background:#FFFFFF;" version="1.1" viewBox="0 0 1039 614" width="1039px" zoomAndPan="magnify"><defs/><g><text fill="#000000" font-family="sans-serif" font-size="14" font-weight="bold" lengthAdjust="spacing" textLength="266" x="379.75" y="22.9951">&#1057;2 "as is" microservices diagram</text><!--cluster AdminPanel--><g id="cluster_AdminPanel"><path d="M213,43.2969 L309,43.2969 A3.75,3.75 0 0 1 311.5,45.7969 L318.5,65.5938 L374,65.5938 A2.5,2.5 0 0 1 376.5,68.0938 L376.5,296.2969 A2.5,2.5 0 0 1 374,298.7969 L213,298.7969 A2.5,2.5 0 0 1 210.5,296.2969 L210.5,45.7969 A2.5,2.5 0 0 1 213,43.2969 " fill="none" style="stroke:#000000;stroke-width:1.5;"/><line style="stroke:#000000;stroke-width:1.5;" x1="210.5" x2="318.5" y1="65.5938" y2="65.5938"/><text fill="#000000" font-family="sans-serif" font-size="14" font-weight="bold" lengthAdjust="spacing" textLength="95" x="214.5" y="58.292">AdminPanel</text></g><!--cluster Practix--><g id="cluster_Practix"><path d="M403,43.2969 L462,43.2969 A3.75,3.75 0 0 1 464.5,45.7969 L471.5,65.5938 L609,65.5938 A2.5,2.5 0 0 1 611.5,68.0938 L611.5,605.2969 A2.5,2.5 0 0 1 609,607.7969 L403,607.7969 A2.5,2.5 0 0 1 400.5,605.2969 L400.5,45.7969 A2.5,2.5 0 0 1 403,43.2969 " fill="none" style="stroke:#000000;stroke-width:1.5;"/><line style="stroke:#000000;stroke-width:1.5;" x1="400.5" x2="471.5" y1="65.5938" y2="65.5938"/><text fill="#000000" font-family="sans-serif" font-size="14" font-weight="bold" lengthAdjust="spacing" textLength="58" x="404.5" y="58.292">Practix</text></g><!--cluster ETL--><g id="cluster_ETL"><path d="M427,347.7969 L457,347.7969 A3.75,3.75 0 0 1 459.5,350.2969 L466.5,370.0938 L585,370.0938 A2.5,2.5 0 0 1 587.5,372.5938 L587.5,581.2969 A2.5,2.5 0 0 1 585,583.7969 L427,583.7969 A2.5,2.5 0 0 1 424.5,581.2969 L424.5,350.2969 A2.5,2.5 0 0 1 427,347.7969 " fill="none" style="stroke:#000000;stroke-width:1.5;"/><line style="stroke:#000000;stroke-width:1.5;" x1="424.5" x2="466.5" y1="370.0938" y2="370.0938"/><text fill="#000000" font-family="sans-serif" font-size="14" font-weight="bold" lengthAdjust="spacing" textLength="29" x="428.5" y="362.792">ETL</text></g><!--cluster UMS--><g id="cluster_UMS"><path d="M915,43.2969 L951,43.2969 A3.75,3.75 0 0 1 953.5,45.7969 L960.5,65.5938 L1030,65.5938 A2.5,2.5 0 0 1 1032.5,68.0938 L1032.5,296.2969 A2.5,2.5 0 0 1 1030,298.7969 L915,298.7969 A2.5,2.5 0 0 1 912.5,296.2969 L912.5,45.7969 A2.5,2.5 0 0 1 915,43.2969 " fill="none" style="stroke:#000000;stroke-width:1.5;"/><line style="stroke:#000000;stroke-width:1.5;" x1="912.5" x2="960.5" y1="65.5938" y2="65.5938"/><text fill="#000000" font-family="sans-serif" font-size="14" font-weight="bold" lengthAdjust="spacing" textLength="35" x="916.5" y="58.292">UMS</text></g><!--cluster UGC--><g id="cluster_UGC"><path d="M638,202.2969 L672,202.2969 A3.75,3.75 0 0 1 674.5,204.7969 L681.5,224.5938 L773,224.5938 A2.5,2.5 0 0 1 775.5,227.0938 L775.5,441.7969 A2.5,2.5 0 0 1 773,444.2969 L638,444.2969 A2.5,2.5 0 0 1 635.5,441.7969 L635.5,204.7969 A2.5,2.5 0 0 1 638,202.2969 " fill="none" style="stroke:#000000;stroke-width:1.5;"/><line style="stroke:#000000;stroke-width:1.5;" x1="635.5" x2="681.5" y1="224.5938" y2="224.5938"/><text fill="#000000" font-family="sans-serif" font-size="14" font-weight="bold" lengthAdjust="spacing" textLength="33" x="639.5" y="217.292">UGC</text></g><!--entity Panel--><g id="elem_Panel"><rect fill="#F1F1F1" height="46.2969" rx="2.5" ry="2.5" style="stroke:#181818;stroke-width:0.5;" width="79" x="254" y="78.2969"/><rect fill="#F1F1F1" height="10" style="stroke:#181818;stroke-width:0.5;" width="15" x="313" y="83.2969"/><rect fill="#F1F1F1" height="2" style="stroke:#181818;stroke-width:0.5;" width="4" x="311" y="85.2969"/><rect fill="#F1F1F1" height="2" style="stroke:#181818;stroke-width:0.5;" width="4" x="311" y="89.2969"/><text fill="#000000" font-family="sans-serif" font-size="14" lengthAdjust="spacing" textLength="39" x="269" y="111.292">Panel</text></g><!--entity AdminDatabase--><g id="elem_AdminDatabase"><path d="M226.5,247.7969 C226.5,237.7969 293.5,237.7969 293.5,237.7969 C293.5,237.7969 360.5,237.7969 360.5,247.7969 L360.5,273.0938 C360.5,283.0938 293.5,283.0938 293.5,283.0938 C293.5,283.0938 226.5,283.0938 226.5,273.0938 L226.5,247.7969 " fill="#F1F1F1" style="stroke:#181818;stroke-width:0.5;"/><path d="M226.5,247.7969 C226.5,257.7969 293.5,257.7969 293.5,257.7969 C293.5,257.7969 360.5,257.7969 360.5,247.7969 " fill="none" style="stroke:#181818;stroke-width:0.5;"/><text fill="#000000" font-family="sans-serif" font-size="14" lengthAdjust="spacing" textLength="114" x="236.5" y="274.792">AdminDatabase</text></g><!--entity PractixAPI--><g id="elem_PractixAPI"><rect fill="#F1F1F1" height="46.2969" rx="2.5" ry="2.5" style="stroke:#181818;stroke-width:0.5;" width="113" x="423" y="78.2969"/><rect fill="#F1F1F1" height="10" style="stroke:#181818;stroke-width:0.5;" width="15" x="516" y="83.2969"/><rect fill="#F1F1F1" height="2" style="stroke:#181818;stroke-width:0.5;" width="4" x="514" y="85.2969"/><rect fill="#F1F1F1" height="2" style="stroke:#181818;stroke-width:0.5;" width="4" x="514" y="89.2969"/><text fill="#000000" font-family="sans-serif" font-size="14" lengthAdjust="spacing" textLength="73" x="438" y="111.292">PractixAPI</text></g><!--entity SearchEngine--><g id="elem_SearchEngine"><path d="M419.5,247.7969 C419.5,237.7969 478.5,237.7969 478.5,237.7969 C478.5,237.7969 537.5,237.7969 537.5,247.7969 L537.5,273.0938 C537.5,283.0938 478.5,283.0938 478.5,283.0938 C478.5,283.0938 419.5,283.0938 419.5,273.0938 L419.5,247.7969 " fill="#F1F1F1" style="stroke:#181818;stroke-width:0.5;"/><path d="M419.5,247.7969 C419.5,257.7969 478.5,257.7969 478.5,257.7969 C478.5,257.7969 537.5,257.7969 537.5,247.7969 " fill="none" style="stroke:#181818;stroke-width:0.5;"/><text fill="#000000" font-family="sans-serif" font-size="14" lengthAdjust="spacing" textLength="98" x="429.5" y="274.792">SearchEngine</text></g><!--entity ETLService--><g id="elem_ETLService"><rect fill="#F1F1F1" height="46.2969" rx="2.5" ry="2.5" style="stroke:#181818;stroke-width:0.5;" width="119" x="441" y="382.7969"/><rect fill="#F1F1F1" height="10" style="stroke:#181818;stroke-width:0.5;" width="15" x="540" y="387.7969"/><rect fill="#F1F1F1" height="2" style="stroke:#181818;stroke-width:0.5;" width="4" x="538" y="389.7969"/><rect fill="#F1F1F1" height="2" style="stroke:#181818;stroke-width:0.5;" width="4" x="538" y="393.7969"/><text fill="#000000" font-family="sans-serif" font-size="14" lengthAdjust="spacing" textLength="79" x="456" y="415.792">ETLService</text></g><!--entity StateStorage--><g id="elem_StateStorage"><path d="M441,532.7969 C441,522.7969 499.5,522.7969 499.5,522.7969 C499.5,522.7969 558,522.7969 558,532.7969 L558,558.0938 C558,568.0938 499.5,568.0938 499.5,568.0938 C499.5,568.0938 441,568.0938 441,558.0938 L441,532.7969 " fill="#F1F1F1" style="stroke:#181818;stroke-width:0.5;"/><path d="M441,532.7969 C441,542.7969 499.5,542.7969 499.5,542.7969 C499.5,542.7969 558,542.7969 558,532.7969 " fill="none" style="stroke:#181818;stroke-width:0.5;"/><text fill="#000000" font-family="sans-serif" font-size="14" lengthAdjust="spacing" textLength="97" x="451" y="559.792">StateStorage</text></g><!--entity API--><g id="elem_API"><rect fill="#F1F1F1" height="46.2969" rx="2.5" ry="2.5" style="stroke:#181818;stroke-width:0.5;" width="63" x="941" y="78.2969"/><rect fill="#F1F1F1" height="10" style="stroke:#181818;stroke-width:0.5;" width="15" x="984" y="83.2969"/><rect fill="#F1F1F1" height="2" style="stroke:#181818;stroke-width:0.5;" width="4" x="982" y="85.2969"/><rect fill="#F1F1F1" height="2" style="stroke:#181818;stroke-width:0.5;" width="4" x="982" y="89.2969"/><text fill="#000000" font-family="sans-serif" font-size="14" lengthAdjust="spacing" textLength="23" x="956" y="111.292">API</text></g><!--entity Database--><g id="elem_Database"><path d="M928.5,247.7969 C928.5,237.7969 972.5,237.7969 972.5,237.7969 C972.5,237.7969 1016.5,237.7969 1016.5,247.7969 L1016.5,273.0938 C1016.5,283.0938 972.5,283.0938 972.5,283.0938 C972.5,283.0938 928.5,283.0938 928.5,273.0938 L928.5,247.7969 " fill="#F1F1F1" style="stroke:#181818;stroke-width:0.5;"/><path d="M928.5,247.7969 C928.5,257.7969 972.5,257.7969 972.5,257.7969 C972.5,257.7969 1016.5,257.7969 1016.5,247.7969 " fill="none" style="stroke:#181818;stroke-width:0.5;"/><text fill="#000000" font-family="sans-serif" font-size="14" lengthAdjust="spacing" textLength="68" x="938.5" y="274.792">Database</text></g><!--entity UGCAPI--><g id="elem_UGCAPI"><rect fill="#F1F1F1" height="46.2969" rx="2.5" ry="2.5" style="stroke:#181818;stroke-width:0.5;" width="93" x="655" y="237.2969"/><rect fill="#F1F1F1" height="10" style="stroke:#181818;stroke-width:0.5;" width="15" x="728" y="242.2969"/><rect fill="#F1F1F1" height="2" style="stroke:#181818;stroke-width:0.5;" width="4" x="726" y="244.2969"/><rect fill="#F1F1F1" height="2" style="stroke:#181818;stroke-width:0.5;" width="4" x="726" y="248.2969"/><text fill="#000000" font-family="sans-serif" font-size="14" lengthAdjust="spacing" textLength="53" x="670" y="270.292">UGCAPI</text></g><!--entity UGCStorage--><g id="elem_UGCStorage"><path d="M652,393.2969 C652,383.2969 705.5,383.2969 705.5,383.2969 C705.5,383.2969 759,383.2969 759,393.2969 L759,418.5938 C759,428.5938 705.5,428.5938 705.5,428.5938 C705.5,428.5938 652,428.5938 652,418.5938 L652,393.2969 " fill="#F1F1F1" style="stroke:#181818;stroke-width:0.5;"/><path d="M652,393.2969 C652,403.2969 705.5,403.2969 705.5,403.2969 C705.5,403.2969 759,403.2969 759,393.2969 " fill="none" style="stroke:#181818;stroke-width:0.5;"/><text fill="#000000" font-family="sans-serif" font-size="14" lengthAdjust="spacing" textLength="87" x="662" y="420.292">UGCStorage</text></g><!--entity User--><g id="elem_User"><ellipse cx="697.5" cy="71.7969" fill="#F1F1F1" rx="8" ry="8" style="stroke:#181818;stroke-width:0.5;"/><path d="M697.5,79.7969 L697.5,106.7969 M684.5,87.7969 L710.5,87.7969 M697.5,106.7969 L684.5,121.7969 M697.5,106.7969 L710.5,121.7969 " fill="none" style="stroke:#181818;stroke-width:0.5;"/><text fill="#000000" font-family="sans-serif" font-size="14" lengthAdjust="spacing" textLength="31" x="682" y="136.292">User</text></g><!--entity AdminUser--><g id="elem_AdminUser"><ellipse cx="44.5" cy="71.7969" fill="#F1F1F1" rx="8" ry="8" style="stroke:#181818;stroke-width:0.5;"/><path d="M44.5,79.7969 L44.5,106.7969 M31.5,87.7969 L57.5,87.7969 M44.5,106.7969 L31.5,121.7969 M44.5,106.7969 L57.5,121.7969 " fill="none" style="stroke:#181818;stroke-width:0.5;"/><text fill="#000000" font-family="sans-serif" font-size="14" lengthAdjust="spacing" textLength="77" x="6" y="136.292">AdminUser</text></g><!--entity AnalystUser--><g id="elem_AnalystUser"><ellipse cx="705.5" cy="515.7969" fill="#F1F1F1" rx="8" ry="8" style="stroke:#181818;stroke-width:0.5;"/><path d="M705.5,523.7969 L705.5,550.7969 M692.5,531.7969 L718.5,531.7969 M705.5,550.7969 L692.5,565.7969 M705.5,550.7969 L718.5,565.7969 " fill="none" style="stroke:#181818;stroke-width:0.5;"/><text fill="#000000" font-family="sans-serif" font-size="14" lengthAdjust="spacing" textLength="84" x="663.5" y="580.292">AnalystUser</text></g><!--link AdminUser to Panel--><g id="link_AdminUser_Panel"><path d="M83.133,101.2969 C129.577,101.2969 201.105,101.2969 247.953,101.2969 " fill="none" id="AdminUser-to-Panel" style="stroke:#181818;stroke-width:1.0;"/><polygon fill="#181818" points="253.953,101.2969,244.953,97.2969,248.953,101.2969,244.953,105.2969,253.953,101.2969" style="stroke:#181818;stroke-width:1.0;"/><text fill="#000000" font-family="sans-serif" font-size="13" lengthAdjust="spacing" textLength="134" x="101.5" y="94.3638">Manage movies data</text></g><!--reverse link PractixAPI to User--><g id="link_PractixAPI_User"><path d="M542.208,101.2969 C590.904,101.2969 651.85,101.2969 681.851,101.2969 " fill="none" id="PractixAPI-backto-User" style="stroke:#181818;stroke-width:1.0;"/><polygon fill="#181818" points="536.208,101.2969,545.208,105.2969,541.208,101.2969,545.208,97.2969,536.208,101.2969" style="stroke:#181818;stroke-width:1.0;"/><text fill="#000000" font-family="sans-serif" font-size="13" lengthAdjust="spacing" textLength="107" x="555.5" y="94.3638">Get movies data</text></g><!--link User to API--><g id="link_User_API"><path d="M713.073,101.2969 C756.818,101.2969 875.463,101.2969 934.608,101.2969 " fill="none" id="User-to-API" style="stroke:#181818;stroke-width:1.0;"/><polygon fill="#181818" points="940.608,101.2969,931.608,97.2969,935.608,101.2969,931.608,105.2969,940.608,101.2969" style="stroke:#181818;stroke-width:1.0;"/><text fill="#000000" font-family="sans-serif" font-size="13" lengthAdjust="spacing" textLength="191" x="731.5" y="94.3638">Manage user data and access</text></g><!--link User to UGCAPI--><g id="link_User_UGCAPI"><path d="M698.448,139.5039 C699.22,169.7899 700.13,205.5428 700.777,230.9118 " fill="none" id="User-to-UGCAPI" style="stroke:#181818;stroke-width:1.0;"/><polygon fill="#181818" points="700.93,236.9099,704.6992,227.8108,700.8025,231.9115,696.7018,228.0148,700.93,236.9099" style="stroke:#181818;stroke-width:1.0;"/><text fill="#000000" font-family="sans-serif" font-size="13" lengthAdjust="spacing" textLength="69" x="701.5" y="182.3638">Manage gc</text></g><!--reverse link UGCStorage to AnalystUser--><g id="link_UGCStorage_AnalystUser"><path d="M705.5,434.5839 C705.5,455.6359 705.5,481.9409 705.5,507.0719 " fill="none" id="UGCStorage-backto-AnalystUser" style="stroke:#181818;stroke-width:1.0;"/><polygon fill="#181818" points="705.5,428.5839,701.5,437.5839,705.5,433.5839,709.5,437.5839,705.5,428.5839" style="stroke:#181818;stroke-width:1.0;"/><text fill="#000000" font-family="sans-serif" font-size="13" lengthAdjust="spacing" textLength="81" x="706.5" y="473.3638">Get users gc</text></g><!--link Panel to AdminDatabase--><g id="link_Panel_AdminDatabase"><path d="M293.5,124.4579 C293.5,154.5489 293.5,201.9839 293.5,231.7519 " fill="none" id="Panel-to-AdminDatabase" style="stroke:#181818;stroke-width:1.0;"/><polygon fill="#181818" points="293.5,237.7519,297.5,228.7519,293.5,232.7519,289.5,228.7519,293.5,237.7519" style="stroke:#181818;stroke-width:1.0;"/></g><!--link PractixAPI to SearchEngine--><g id="link_PractixAPI_SearchEngine"><path d="M479.359,124.4579 C479.167,154.5489 478.8653,201.984 478.6753,231.752 " fill="none" id="PractixAPI-to-SearchEngine" style="stroke:#181818;stroke-width:1.0;"/><polygon fill="#181818" points="478.637,237.7519,482.6944,228.7776,478.6689,232.752,474.6945,228.7265,478.637,237.7519" style="stroke:#181818;stroke-width:1.0;"/></g><!--link ETLService to StateStorage--><g id="link_ETLService_StateStorage"><path d="M500.339,428.8889 C500.152,454.6999 499.8866,491.123 499.7006,516.713 " fill="none" id="ETLService-to-StateStorage" style="stroke:#181818;stroke-width:1.0;"/><polygon fill="#181818" points="499.657,522.7129,503.7223,513.7422,499.6933,517.713,495.7225,513.684,499.657,522.7129" style="stroke:#181818;stroke-width:1.0;"/><text fill="#000000" font-family="sans-serif" font-size="13" lengthAdjust="spacing" textLength="94" x="501.5" y="473.3638">Manage states</text></g><!--reverse link AdminDatabase to ETLService--><g id="link_AdminDatabase_ETLService"><path d="M285.1973,288.8455 C281.7743,303.8955 281.576,317.8189 291.5,331.7969 C325.097,379.1189 391.774,396.0139 440.819,401.9119 " fill="none" id="AdminDatabase-backto-ETLService" style="stroke:#181818;stroke-width:1.0;"/><polygon fill="#181818" points="286.528,282.9949,280.6316,290.8836,285.4191,287.8704,288.4324,292.6579,286.528,282.9949" style="stroke:#181818;stroke-width:1.0;"/><text fill="#000000" font-family="sans-serif" font-size="13" lengthAdjust="spacing" textLength="107" x="292.5" y="327.8638">Get movies data</text></g><!--reverse link SearchEngine to ETLService--><g id="link_SearchEngine_ETLService"><path d="M482.7503,289.0226 C486.8613,315.8366 492.896,355.2009 497.055,382.3229 " fill="none" id="SearchEngine-backto-ETLService" style="stroke:#181818;stroke-width:1.0;"/><polygon fill="#181818" points="481.841,283.0919,479.2511,292.5941,482.5987,288.0341,487.1587,291.3817,481.841,283.0919" style="stroke:#181818;stroke-width:1.0;"/><text fill="#000000" font-family="sans-serif" font-size="13" lengthAdjust="spacing" textLength="115" x="490.5" y="327.8638">Load movies data</text></g><!--link API to Database--><g id="link_API_Database"><path d="M972.5,124.4579 C972.5,154.5489 972.5,201.9839 972.5,231.7519 " fill="none" id="API-to-Database" style="stroke:#181818;stroke-width:1.0;"/><polygon fill="#181818" points="972.5,237.7519,976.5,228.7519,972.5,232.7519,968.5,228.7519,972.5,237.7519" style="stroke:#181818;stroke-width:1.0;"/></g><!--link UGCAPI to UGCStorage--><g id="link_UGCAPI_UGCStorage"><path d="M702.116,283.4039 C702.87,310.4489 703.9706,349.9532 704.7226,376.9022 " fill="none" id="UGCAPI-to-UGCStorage" style="stroke:#181818;stroke-width:1.0;"/><polygon fill="#181818" points="704.89,382.8999,708.6374,373.7918,704.7505,377.9018,700.6405,374.015,704.89,382.8999" style="stroke:#181818;stroke-width:1.0;"/></g><!--SRC=[RL7DRi8m3BxxAIpklN3SOH9Y24q22QdZ0KoQbOWsgP8KXYOUPc-qHvhJ59fst19_F_vikvFI3LcgyK3YL5hJwc9fAcFnSbHUWdlWmjIDqLBxt5yhYMrTpG6yylp-_PdZZ1mgDyDQ2MkSj6SbfCD2KSbY01AUFVSCzCz5KIkT_ZLLL-Ux2a33OQYKaRKZBIly1XmoO5VZIa6U3kHwvbl_WzjWiRFSG7rDzR6wsBsd9haaAuuhNIejWO6xn-fZq-bJ1wxbSSmE63myUPdpI2nav9PcsM_pIOv9W6S3xDVBYOWh4nrNxYrP2O_bOcPLUVJPQrmOlk2MT32jpLc5-x01H68bFplUOp5CNal_X7ctZ9pUi0rG827f0admzLtFByn5Cpsc7XIbWEJecBLD9FM3zEs3hmjSY1DaeV7erf143kZuYCEP8fXSPuZYGjMDk5sQKQCd-_WdI7ipVsEe60dW7d98twyb6mt_1m00]--></g></svg>