<?xml version="1.0" encoding="us-ascii" standalone="no"?><svg xmlns="http://www.w3.org/2000/svg" xmlns:xlink="http://www.w3.org/1999/xlink" contentStyleType="text/css" height="614px" preserveAspectRatio="none" style="width:1093px;height:614px;background:#FFFFFF;" version="1.1" viewBox="0 0 1093 614" width="1093px" zoomAndPan="magnify"><defs/><g><text fill="#000000" font-family="sans-serif" font-size="14" font-weight="bold" lengthAdjust="spacing" textLength="270" x="404.75" y="22.9951">&#1057;2 "to be" microservices diagram</text><!--cluster AdminPanel--><g id="cluster_AdminPanel"><path d="M213,43.2969 L309,43.2969 A3.75,3.75 0 0 1 311.5,45.7969 L318.5,65.5938 L374,65.5938 A2.5,2.5 0 0 1 376.5,68.0938 L376.5,296.2969 A2.5,2.5 0 0 1 374,298.7969 L213,298.7969 A2.5,2.5 0 0 1 210.5,296.2969 L210.5,45.7969 A2.5,2.5 0 0 1 213,43.2969 " fill="none" style="stroke:#000000;stroke-width:1.5;"/><line style="stroke:#000000;stroke-width:1.5;" x1="210.5" x2="318.5" y1="65.5938" y2="65.5938"/><text fill="#000000" font-family="sans-serif" font-size="14" font-weight="bold" lengthAdjust="spacing" textLength="95" x="214.5" y="58.292">AdminPanel</text></g><!--cluster Practix--><g id="cluster_Practix"><path d="M403,43.2969 L462,43.2969 A3.75,3.75 0 0 1 464.5,45.7969 L471.5,65.5938 L609,65.5938 A2.5,2.5 0 0 1 611.5,68.0938 L611.5,605.2969 A2.5,2.5 0 0 1 609,607.7969 L403,607.7969 A2.5,2.5 0 0 1 400.5,605.2969 L400.5,45.7969 A2.5,2.5 0 0 1 403,43.2969 " fill="none" style="stroke:#000000;stroke-width:1.5;"/><line style="stroke:#000000;stroke-width:1.5;" x1="400.5" x2="471.5" y1="65.5938" y2="65.5938"/><text fill="#000000" font-family="sans-serif" font-size="14" font-weight="bold" lengthAdjust="spacing" textLength="58" x="404.5" y="58.292">Practix</text></g><!--cluster ETL--><g id="cluster_ETL"><path d="M427,347.7969 L457,347.7969 A3.75,3.75 0 0 1 459.5,350.2969 L466.5,370.0938 L585,370.0938 A2.5,2.5 0 0 1 587.5,372.5938 L587.5,581.2969 A2.5,2.5 0 0 1 585,583.7969 L427,583.7969 A2.5,2.5 0 0 1 424.5,581.2969 L424.5,350.2969 A2.5,2.5 0 0 1 427,347.7969 " fill="none" style="stroke:#000000;stroke-width:1.5;"/><line style="stroke:#000000;stroke-width:1.5;" x1="424.5" x2="466.5" y1="370.0938" y2="370.0938"/><text fill="#000000" font-family="sans-serif" font-size="14" font-weight="bold" lengthAdjust="spacing" textLength="29" x="428.5" y="362.792">ETL</text></g><!--cluster UMS--><g id="cluster_UMS"><path d="M969,43.2969 L1005,43.2969 A3.75,3.75 0 0 1 1007.5,45.7969 L1014.5,65.5938 L1084,65.5938 A2.5,2.5 0 0 1 1086.5,68.0938 L1086.5,296.2969 A2.5,2.5 0 0 1 1084,298.7969 L969,298.7969 A2.5,2.5 0 0 1 966.5,296.2969 L966.5,45.7969 A2.5,2.5 0 0 1 969,43.2969 " fill="none" style="stroke:#000000;stroke-width:1.5;"/><line style="stroke:#000000;stroke-width:1.5;" x1="966.5" x2="1014.5" y1="65.5938" y2="65.5938"/><text fill="#000000" font-family="sans-serif" font-size="14" font-weight="bold" lengthAdjust="spacing" textLength="35" x="970.5" y="58.292">UMS</text></g><!--cluster UGC--><g id="cluster_UGC"><path d="M638,202.2969 L672,202.2969 A3.75,3.75 0 0 1 674.5,204.7969 L681.5,224.5938 L940,224.5938 A2.5,2.5 0 0 1 942.5,227.0938 L942.5,441.7969 A2.5,2.5 0 0 1 940,444.2969 L638,444.2969 A2.5,2.5 0 0 1 635.5,441.7969 L635.5,204.7969 A2.5,2.5 0 0 1 638,202.2969 " fill="none" style="stroke:#000000;stroke-width:1.5;"/><line style="stroke:#000000;stroke-width:1.5;" x1="635.5" x2="681.5" y1="224.5938" y2="224.5938"/><text fill="#000000" font-family="sans-serif" font-size="14" font-weight="bold" lengthAdjust="spacing" textLength="33" x="639.5" y="217.292">UGC</text></g><!--entity Panel--><g id="elem_Panel"><rect fill="#F1F1F1" height="46.2969" rx="2.5" ry="2.5" style="stroke:#181818;stroke-width:0.5;" width="79" x="254" y="78.2969"/><rect fill="#F1F1F1" height="10" style="stroke:#181818;stroke-width:0.5;" width="15" x="313" y="83.2969"/><rect fill="#F1F1F1" height="2" style="stroke:#181818;stroke-width:0.5;" width="4" x="311" y="85.2969"/><rect fill="#F1F1F1" height="2" style="stroke:#181818;stroke-width:0.5;" width="4" x="311" y="89.2969"/><text fill="#000000" font-family="sans-serif" font-size="14" lengthAdjust="spacing" textLength="39" x="269" y="111.292">Panel</text></g><!--entity AdminDatabase--><g id="elem_AdminDatabase"><path d="M226.5,247.7969 C226.5,237.7969 293.5,237.7969 293.5,237.7969 C293.5,237.7969 360.5,237.7969 360.5,247.7969 L360.5,273.0938 C360.5,283.0938 293.5,283.0938 293.5,283.0938 C293.5,283.0938 226.5,283.0938 226.5,273.0938 L226.5,247.7969 " fill="#F1F1F1" style="stroke:#181818;stroke-width:0.5;"/><path d="M226.5,247.7969 C226.5,257.7969 293.5,257.7969 293.5,257.7969 C293.5,257.7969 360.5,257.7969 360.5,247.7969 " fill="none" style="stroke:#181818;stroke-width:0.5;"/><text fill="#000000" font-family="sans-serif" font-size="14" lengthAdjust="spacing" textLength="114" x="236.5" y="274.792">AdminDatabase</text></g><!--entity PractixAPI--><g id="elem_PractixAPI"><rect fill="#F1F1F1" height="46.2969" rx="2.5" ry="2.5" style="stroke:#181818;stroke-width:0.5;" width="113" x="458" y="78.2969"/><rect fill="#F1F1F1" height="10" style="stroke:#181818;stroke-width:0.5;" width="15" x="551" y="83.2969"/><rect fill="#F1F1F1" height="2" style="stroke:#181818;stroke-width:0.5;" width="4" x="549" y="85.2969"/><rect fill="#F1F1F1" height="2" style="stroke:#181818;stroke-width:0.5;" width="4" x="549" y="89.2969"/><text fill="#000000" font-family="sans-serif" font-size="14" lengthAdjust="spacing" textLength="73" x="473" y="111.292">PractixAPI</text></g><!--entity SearchEngine--><g id="elem_SearchEngine"><path d="M424.5,247.7969 C424.5,237.7969 483.5,237.7969 483.5,237.7969 C483.5,237.7969 542.5,237.7969 542.5,247.7969 L542.5,273.0938 C542.5,283.0938 483.5,283.0938 483.5,283.0938 C483.5,283.0938 424.5,283.0938 424.5,273.0938 L424.5,247.7969 " fill="#F1F1F1" style="stroke:#181818;stroke-width:0.5;"/><path d="M424.5,247.7969 C424.5,257.7969 483.5,257.7969 483.5,257.7969 C483.5,257.7969 542.5,257.7969 542.5,247.7969 " fill="none" style="stroke:#181818;stroke-width:0.5;"/><text fill="#000000" font-family="sans-serif" font-size="14" lengthAdjust="spacing" textLength="98" x="434.5" y="274.792">SearchEngine</text></g><!--entity ETLService--><g id="elem_ETLService"><rect fill="#F1F1F1" height="46.2969" rx="2.5" ry="2.5" style="stroke:#181818;stroke-width:0.5;" width="119" x="441" y="382.7969"/><rect fill="#F1F1F1" height="10" style="stroke:#181818;stroke-width:0.5;" width="15" x="540" y="387.7969"/><rect fill="#F1F1F1" height="2" style="stroke:#181818;stroke-width:0.5;" width="4" x="538" y="389.7969"/><rect fill="#F1F1F1" height="2" style="stroke:#181818;stroke-width:0.5;" width="4" x="538" y="393.7969"/><text fill="#000000" font-family="sans-serif" font-size="14" lengthAdjust="spacing" textLength="79" x="456" y="415.792">ETLService</text></g><!--entity StateStorage--><g id="elem_StateStorage"><path d="M441,532.7969 C441,522.7969 499.5,522.7969 499.5,522.7969 C499.5,522.7969 558,522.7969 558,532.7969 L558,558.0938 C558,568.0938 499.5,568.0938 499.5,568.0938 C499.5,568.0938 441,568.0938 441,558.0938 L441,532.7969 " fill="#F1F1F1" style="stroke:#181818;stroke-width:0.5;"/><path d="M441,532.7969 C441,542.7969 499.5,542.7969 499.5,542.7969 C499.5,542.7969 558,542.7969 558,532.7969 " fill="none" style="stroke:#181818;stroke-width:0.5;"/><text fill="#000000" font-family="sans-serif" font-size="14" lengthAdjust="spacing" textLength="97" x="451" y="559.792">StateStorage</text></g><!--entity API--><g id="elem_API"><rect fill="#F1F1F1" height="46.2969" rx="2.5" ry="2.5" style="stroke:#181818;stroke-width:0.5;" width="63" x="989" y="78.2969"/><rect fill="#F1F1F1" height="10" style="stroke:#181818;stroke-width:0.5;" width="15" x="1032" y="83.2969"/><rect fill="#F1F1F1" height="2" style="stroke:#181818;stroke-width:0.5;" width="4" x="1030" y="85.2969"/><rect fill="#F1F1F1" height="2" style="stroke:#181818;stroke-width:0.5;" width="4" x="1030" y="89.2969"/><text fill="#000000" font-family="sans-serif" font-size="14" lengthAdjust="spacing" textLength="23" x="1004" y="111.292">API</text></g><!--entity Database--><g id="elem_Database"><path d="M982.5,247.7969 C982.5,237.7969 1026.5,237.7969 1026.5,237.7969 C1026.5,237.7969 1070.5,237.7969 1070.5,247.7969 L1070.5,273.0938 C1070.5,283.0938 1026.5,283.0938 1026.5,283.0938 C1026.5,283.0938 982.5,283.0938 982.5,273.0938 L982.5,247.7969 " fill="#F1F1F1" style="stroke:#181818;stroke-width:0.5;"/><path d="M982.5,247.7969 C982.5,257.7969 1026.5,257.7969 1026.5,257.7969 C1026.5,257.7969 1070.5,257.7969 1070.5,247.7969 " fill="none" style="stroke:#181818;stroke-width:0.5;"/><text fill="#000000" font-family="sans-serif" font-size="14" lengthAdjust="spacing" textLength="68" x="992.5" y="274.792">Database</text></g><!--entity UGCAPI--><g id="elem_UGCAPI"><rect fill="#F1F1F1" height="46.2969" rx="2.5" ry="2.5" style="stroke:#181818;stroke-width:0.5;" width="93" x="690" y="237.2969"/><rect fill="#F1F1F1" height="10" style="stroke:#181818;stroke-width:0.5;" width="15" x="763" y="242.2969"/><rect fill="#F1F1F1" height="2" style="stroke:#181818;stroke-width:0.5;" width="4" x="761" y="244.2969"/><rect fill="#F1F1F1" height="2" style="stroke:#181818;stroke-width:0.5;" width="4" x="761" y="248.2969"/><text fill="#000000" font-family="sans-serif" font-size="14" lengthAdjust="spacing" textLength="53" x="705" y="270.292">UGCAPI</text></g><!--entity OLAPStorage--><g id="elem_OLAPStorage"><path d="M652,393.2969 C652,383.2969 709.5,383.2969 709.5,383.2969 C709.5,383.2969 767,383.2969 767,393.2969 L767,418.5938 C767,428.5938 709.5,428.5938 709.5,428.5938 C709.5,428.5938 652,428.5938 652,418.5938 L652,393.2969 " fill="#F1F1F1" style="stroke:#181818;stroke-width:0.5;"/><path d="M652,393.2969 C652,403.2969 709.5,403.2969 709.5,403.2969 C709.5,403.2969 767,403.2969 767,393.2969 " fill="none" style="stroke:#181818;stroke-width:0.5;"/><text fill="#000000" font-family="sans-serif" font-size="14" lengthAdjust="spacing" textLength="95" x="662" y="420.292">OLAPStorage</text></g><!--entity NoSQLStorage--><g id="elem_NoSQLStorage"><path d="M802.5,393.2969 C802.5,383.2969 864.5,383.2969 864.5,383.2969 C864.5,383.2969 926.5,383.2969 926.5,393.2969 L926.5,418.5938 C926.5,428.5938 864.5,428.5938 864.5,428.5938 C864.5,428.5938 802.5,428.5938 802.5,418.5938 L802.5,393.2969 " fill="#F1F1F1" style="stroke:#181818;stroke-width:0.5;"/><path d="M802.5,393.2969 C802.5,403.2969 864.5,403.2969 864.5,403.2969 C864.5,403.2969 926.5,403.2969 926.5,393.2969 " fill="none" style="stroke:#181818;stroke-width:0.5;"/><text fill="#000000" font-family="sans-serif" font-size="14" lengthAdjust="spacing" textLength="104" x="812.5" y="420.292">NoSQLStorage</text></g><!--entity User--><g id="elem_User"><ellipse cx="736.5" cy="71.7969" fill="#F1F1F1" rx="8" ry="8" style="stroke:#181818;stroke-width:0.5;"/><path d="M736.5,79.7969 L736.5,106.7969 M723.5,87.7969 L749.5,87.7969 M736.5,106.7969 L723.5,121.7969 M736.5,106.7969 L749.5,121.7969 " fill="none" style="stroke:#181818;stroke-width:0.5;"/><text fill="#000000" font-family="sans-serif" font-size="14" lengthAdjust="spacing" textLength="31" x="721" y="136.292">User</text></g><!--entity AdminUser--><g id="elem_AdminUser"><ellipse cx="44.5" cy="71.7969" fill="#F1F1F1" rx="8" ry="8" style="stroke:#181818;stroke-width:0.5;"/><path d="M44.5,79.7969 L44.5,106.7969 M31.5,87.7969 L57.5,87.7969 M44.5,106.7969 L31.5,121.7969 M44.5,106.7969 L57.5,121.7969 " fill="none" style="stroke:#181818;stroke-width:0.5;"/><text fill="#000000" font-family="sans-serif" font-size="14" lengthAdjust="spacing" textLength="77" x="6" y="136.292">AdminUser</text></g><!--entity AnalystUser--><g id="elem_AnalystUser"><ellipse cx="709.5" cy="515.7969" fill="#F1F1F1" rx="8" ry="8" style="stroke:#181818;stroke-width:0.5;"/><path d="M709.5,523.7969 L709.5,550.7969 M696.5,531.7969 L722.5,531.7969 M709.5,550.7969 L696.5,565.7969 M709.5,550.7969 L722.5,565.7969 " fill="none" style="stroke:#181818;stroke-width:0.5;"/><text fill="#000000" font-family="sans-serif" font-size="14" lengthAdjust="spacing" textLength="84" x="667.5" y="580.292">AnalystUser</text></g><!--link AdminUser to Panel--><g id="link_AdminUser_Panel"><path d="M83.133,101.2969 C129.577,101.2969 201.105,101.2969 247.953,101.2969 " fill="none" id="AdminUser-to-Panel" style="stroke:#181818;stroke-width:1.0;"/><polygon fill="#181818" points="253.953,101.2969,244.953,97.2969,248.953,101.2969,244.953,105.2969,253.953,101.2969" style="stroke:#181818;stroke-width:1.0;"/><text fill="#000000" font-family="sans-serif" font-size="13" lengthAdjust="spacing" textLength="134" x="101.5" y="94.3638">Manage movies data</text></g><!--reverse link PractixAPI to User--><g id="link_PractixAPI_User"><path d="M577.094,101.2969 C626.938,101.2969 690.227,101.2969 720.865,101.2969 " fill="none" id="PractixAPI-backto-User" style="stroke:#181818;stroke-width:1.0;"/><polygon fill="#181818" points="571.094,101.2969,580.094,105.2969,576.094,101.2969,580.094,97.2969,571.094,101.2969" style="stroke:#181818;stroke-width:1.0;"/><text fill="#000000" font-family="sans-serif" font-size="13" lengthAdjust="spacing" textLength="107" x="592.5" y="94.3638">Get movies data</text></g><!--link User to API--><g id="link_User_API"><path d="M752.174,101.2969 C797.292,101.2969 922.122,101.2969 982.847,101.2969 " fill="none" id="User-to-API" style="stroke:#181818;stroke-width:1.0;"/><polygon fill="#181818" points="988.847,101.2969,979.847,97.2969,983.847,101.2969,979.847,105.2969,988.847,101.2969" style="stroke:#181818;stroke-width:1.0;"/><text fill="#000000" font-family="sans-serif" font-size="13" lengthAdjust="spacing" textLength="191" x="775" y="94.3638">Manage user data and access</text></g><!--link User to UGCAPI--><g id="link_User_UGCAPI"><path d="M736.5,139.5039 C736.5,169.7899 736.5,205.5409 736.5,230.9099 " fill="none" id="User-to-UGCAPI" style="stroke:#181818;stroke-width:1.0;"/><polygon fill="#181818" points="736.5,236.9099,740.5,227.9099,736.5,231.9099,732.5,227.9099,736.5,236.9099" style="stroke:#181818;stroke-width:1.0;"/><text fill="#000000" font-family="sans-serif" font-size="13" lengthAdjust="spacing" textLength="173" x="737.5" y="182.3638">Manage generated content</text></g><!--reverse link OLAPStorage to AnalystUser--><g id="link_OLAPStorage_AnalystUser"><path d="M709.5,434.5839 C709.5,455.6359 709.5,481.9409 709.5,507.0719 " fill="none" id="OLAPStorage-backto-AnalystUser" style="stroke:#181818;stroke-width:1.0;"/><polygon fill="#181818" points="709.5,428.5839,705.5,437.5839,709.5,433.5839,713.5,437.5839,709.5,428.5839" style="stroke:#181818;stroke-width:1.0;"/><text fill="#000000" font-family="sans-serif" font-size="13" lengthAdjust="spacing" textLength="193" x="710.5" y="473.3638">Analysis of generated content</text></g><!--link Panel to AdminDatabase--><g id="link_Panel_AdminDatabase"><path d="M293.5,124.4579 C293.5,154.5489 293.5,201.9839 293.5,231.7519 " fill="none" id="Panel-to-AdminDatabase" style="stroke:#181818;stroke-width:1.0;"/><polygon fill="#181818" points="293.5,237.7519,297.5,228.7519,293.5,232.7519,289.5,228.7519,293.5,237.7519" style="stroke:#181818;stroke-width:1.0;"/></g><!--link PractixAPI to SearchEngine--><g id="link_PractixAPI_SearchEngine"><path d="M510.124,124.4579 C504.183,154.5489 494.7943,202.0975 488.9163,231.8655 " fill="none" id="PractixAPI-to-SearchEngine" style="stroke:#181818;stroke-width:1.0;"/><polygon fill="#181818" points="487.754,237.7519,493.4217,229.6972,488.7226,232.8466,485.5733,228.1475,487.754,237.7519" style="stroke:#181818;stroke-width:1.0;"/></g><!--link ETLService to StateStorage--><g id="link_ETLService_StateStorage"><path d="M500.339,428.8889 C500.152,454.6999 499.8866,491.123 499.7006,516.713 " fill="none" id="ETLService-to-StateStorage" style="stroke:#181818;stroke-width:1.0;"/><polygon fill="#181818" points="499.657,522.7129,503.7223,513.7422,499.6933,517.713,495.7225,513.684,499.657,522.7129" style="stroke:#181818;stroke-width:1.0;"/><text fill="#000000" font-family="sans-serif" font-size="13" lengthAdjust="spacing" textLength="94" x="501.5" y="473.3638">Manage states</text></g><!--reverse link AdminDatabase to ETLService--><g id="link_AdminDatabase_ETLService"><path d="M285.1973,288.8455 C281.7743,303.8955 281.576,317.8189 291.5,331.7969 C325.097,379.1189 391.774,396.0139 440.819,401.9119 " fill="none" id="AdminDatabase-backto-ETLService" style="stroke:#181818;stroke-width:1.0;"/><polygon fill="#181818" points="286.528,282.9949,280.6316,290.8836,285.4191,287.8704,288.4324,292.6579,286.528,282.9949" style="stroke:#181818;stroke-width:1.0;"/><text fill="#000000" font-family="sans-serif" font-size="13" lengthAdjust="spacing" textLength="107" x="292.5" y="327.8638">Get movies data</text></g><!--reverse link SearchEngine to ETLService--><g id="link_SearchEngine_ETLService"><path d="M486.788,289.0502 C489.965,315.8642 494.625,355.2009 497.838,382.3229 " fill="none" id="SearchEngine-backto-ETLService" style="stroke:#181818;stroke-width:1.0;"/><polygon fill="#181818" points="486.082,283.0919,483.1687,292.5,486.6703,288.0571,491.1132,291.5587,486.082,283.0919" style="stroke:#181818;stroke-width:1.0;"/><text fill="#000000" font-family="sans-serif" font-size="13" lengthAdjust="spacing" textLength="115" x="492.5" y="327.8638">Load movies data</text></g><!--link API to Database--><g id="link_API_Database"><path d="M1021.35,124.4579 C1022.5,154.5489 1024.3104,201.9883 1025.4504,231.7563 " fill="none" id="API-to-Database" style="stroke:#181818;stroke-width:1.0;"/><polygon fill="#181818" points="1025.68,237.7519,1029.3327,228.6054,1025.4887,232.7555,1021.3385,228.9115,1025.68,237.7519" style="stroke:#181818;stroke-width:1.0;"/></g><!--link UGCAPI to OLAPStorage--><g id="link_UGCAPI_OLAPStorage"><path d="M732.34,283.4039 C727.252,310.4489 719.8005,350.0544 714.7295,377.0034 " fill="none" id="UGCAPI-to-OLAPStorage" style="stroke:#181818;stroke-width:1.0;"/><polygon fill="#181818" points="713.62,382.8999,719.2153,374.7948,714.5446,377.9861,711.3533,373.3154,713.62,382.8999" style="stroke:#181818;stroke-width:1.0;"/></g><!--link UGCAPI to NoSQLStorage--><g id="link_UGCAPI_NoSQLStorage"><path d="M756.219,283.4039 C780.343,310.4489 816.9361,351.4733 840.9741,378.4223 " fill="none" id="UGCAPI-to-NoSQLStorage" style="stroke:#181818;stroke-width:1.0;"/><polygon fill="#181818" points="844.968,382.8999,841.9622,373.5209,841.6397,379.1686,835.9921,378.8461,844.968,382.8999" style="stroke:#181818;stroke-width:1.0;"/></g><!--SRC=[RL91ReCm4Bpx5QlSkUJOGwKeZQ9AfAMYUS067685R6IRf56Ln_H7VL8N3DZGt61sPdPsr-OiP8qQApXWTYwqQcI-LgNIS3q9ovaPwvcgQYMvjAczbHoQgbmoPeMbxz-V9IoiWWDVG2KohGpN5v5n0xd0WiICOMR9Sq-5_dELLqA6_nBBcx4TmbXDOR3WZfMWv2LyC_0PeCC8oT7Y0KtFVEd_sDrR99eQYA-vtg6hv3KqIJdgxBIHXP2SKM7ms7p6dJvq82nrOtO5xs7HyfH68Y5Lxc6M_IwTvPW5U3J0VhkUYGYPwTxZLU9xZl2RIZ_Y0ITBDcuT8YsAausUtIRX2NOesswLkeZsS6J17B7anuutRep8MsuVC0TBn-aDcxRKaW1b3fZHip0zFrTNINGtZbSKN79DIynfP6bfO1Oy3eYQcZJ1m2HqTM507H-ecHinQfDDNWaBPcghq_Fx0xjYS5UVrRIecN2xV9D63nRsJn3s9dwiC9y8s13If-_t5atN4SBX_Vy0]--></g></svg>