<?xml version="1.0" encoding="us-ascii" standalone="no"?><svg xmlns="http://www.w3.org/2000/svg" xmlns:xlink="http://www.w3.org/1999/xlink" contentStyleType="text/css" height="423px" preserveAspectRatio="none" style="width:954px;height:423px;background:#FFFFFF;" version="1.1" viewBox="0 0 954 423" width="954px" zoomAndPan="magnify"><defs/><g><text fill="#000000" font-family="sans-serif" font-size="14" font-weight="bold" lengthAdjust="spacing" textLength="130" x="405" y="22.9951">&#1057;3 UGC diagram</text><!--cluster UGC--><g id="cluster_UGC"><path d="M8.5,181.7969 L42.5,181.7969 A3.75,3.75 0 0 1 45,184.2969 L52,204.0938 L757.5,204.0938 A2.5,2.5 0 0 1 760,206.5938 L760,413.7969 A2.5,2.5 0 0 1 757.5,416.2969 L8.5,416.2969 A2.5,2.5 0 0 1 6,413.7969 L6,184.2969 A2.5,2.5 0 0 1 8.5,181.7969 " fill="none" style="stroke:#000000;stroke-width:1.5;"/><line style="stroke:#000000;stroke-width:1.5;" x1="6" x2="52" y1="204.0938" y2="204.0938"/><text fill="#000000" font-family="sans-serif" font-size="14" font-weight="bold" lengthAdjust="spacing" textLength="33" x="10" y="196.792">UGC</text></g><!--entity APIWebFramework--><g id="elem_APIWebFramework"><rect fill="#F1F1F1" height="46.2969" rx="2.5" ry="2.5" style="stroke:#181818;stroke-width:0.5;" width="176" x="300" y="216.7969"/><rect fill="#F1F1F1" height="10" style="stroke:#181818;stroke-width:0.5;" width="15" x="456" y="221.7969"/><rect fill="#F1F1F1" height="2" style="stroke:#181818;stroke-width:0.5;" width="4" x="454" y="223.7969"/><rect fill="#F1F1F1" height="2" style="stroke:#181818;stroke-width:0.5;" width="4" x="454" y="227.7969"/><text fill="#000000" font-family="sans-serif" font-size="14" lengthAdjust="spacing" textLength="136" x="315" y="249.792">APIWebFramework</text></g><!--entity OLTPStorage--><g id="elem_OLTPStorage"><path d="M317,365.2969 C317,355.2969 374,355.2969 374,355.2969 C374,355.2969 431,355.2969 431,365.2969 L431,390.5938 C431,400.5938 374,400.5938 374,400.5938 C374,400.5938 317,400.5938 317,390.5938 L317,365.2969 " fill="#F1F1F1" style="stroke:#181818;stroke-width:0.5;"/><path d="M317,365.2969 C317,375.2969 374,375.2969 374,375.2969 C374,375.2969 431,375.2969 431,365.2969 " fill="none" style="stroke:#181818;stroke-width:0.5;"/><text fill="#000000" font-family="sans-serif" font-size="14" lengthAdjust="spacing" textLength="94" x="327" y="392.292">OLTPStorage</text></g><!--entity OLAPETL--><g id="elem_OLAPETL"><rect fill="#F1F1F1" height="46.2969" rx="2.5" ry="2.5" style="stroke:#181818;stroke-width:0.5;" width="104" x="511" y="216.7969"/><rect fill="#F1F1F1" height="10" style="stroke:#181818;stroke-width:0.5;" width="15" x="595" y="221.7969"/><rect fill="#F1F1F1" height="2" style="stroke:#181818;stroke-width:0.5;" width="4" x="593" y="223.7969"/><rect fill="#F1F1F1" height="2" style="stroke:#181818;stroke-width:0.5;" width="4" x="593" y="227.7969"/><text fill="#000000" font-family="sans-serif" font-size="14" lengthAdjust="spacing" textLength="64" x="526" y="249.792">OLAPETL</text></g><!--entity OLAPStorage--><g id="elem_OLAPStorage"><path d="M518.5,365.2969 C518.5,355.2969 576,355.2969 576,355.2969 C576,355.2969 633.5,355.2969 633.5,365.2969 L633.5,390.5938 C633.5,400.5938 576,400.5938 576,400.5938 C576,400.5938 518.5,400.5938 518.5,390.5938 L518.5,365.2969 " fill="#F1F1F1" style="stroke:#181818;stroke-width:0.5;"/><path d="M518.5,365.2969 C518.5,375.2969 576,375.2969 576,375.2969 C576,375.2969 633.5,375.2969 633.5,365.2969 " fill="none" style="stroke:#181818;stroke-width:0.5;"/><text fill="#000000" font-family="sans-serif" font-size="14" lengthAdjust="spacing" textLength="95" x="528.5" y="392.292">OLAPStorage</text></g><!--entity NoSQLETL--><g id="elem_NoSQLETL"><rect fill="#F1F1F1" height="46.2969" rx="2.5" ry="2.5" style="stroke:#181818;stroke-width:0.5;" width="113" x="22.5" y="216.7969"/><rect fill="#F1F1F1" height="10" style="stroke:#181818;stroke-width:0.5;" width="15" x="115.5" y="221.7969"/><rect fill="#F1F1F1" height="2" style="stroke:#181818;stroke-width:0.5;" width="4" x="113.5" y="223.7969"/><rect fill="#F1F1F1" height="2" style="stroke:#181818;stroke-width:0.5;" width="4" x="113.5" y="227.7969"/><text fill="#000000" font-family="sans-serif" font-size="14" lengthAdjust="spacing" textLength="73" x="37.5" y="249.792">NoSQLETL</text></g><!--entity NoSQLStorage--><g id="elem_NoSQLStorage"><path d="M96,365.2969 C96,355.2969 158,355.2969 158,355.2969 C158,355.2969 220,355.2969 220,365.2969 L220,390.5938 C220,400.5938 158,400.5938 158,400.5938 C158,400.5938 96,400.5938 96,390.5938 L96,365.2969 " fill="#F1F1F1" style="stroke:#181818;stroke-width:0.5;"/><path d="M96,365.2969 C96,375.2969 158,375.2969 158,375.2969 C158,375.2969 220,375.2969 220,365.2969 " fill="none" style="stroke:#181818;stroke-width:0.5;"/><text fill="#000000" font-family="sans-serif" font-size="14" lengthAdjust="spacing" textLength="104" x="106" y="392.292">NoSQLStorage</text></g><!--entity User--><g id="elem_User"><ellipse cx="388" cy="51.2969" fill="#F1F1F1" rx="8" ry="8" style="stroke:#181818;stroke-width:0.5;"/><path d="M388,59.2969 L388,86.2969 M375,67.2969 L401,67.2969 M388,86.2969 L375,101.2969 M388,86.2969 L401,101.2969 " fill="none" style="stroke:#181818;stroke-width:0.5;"/><text fill="#000000" font-family="sans-serif" font-size="14" lengthAdjust="spacing" textLength="31" x="372.5" y="115.792">User</text></g><!--entity AnalystUser--><g id="elem_AnalystUser"><ellipse cx="905" cy="348.2969" fill="#F1F1F1" rx="8" ry="8" style="stroke:#181818;stroke-width:0.5;"/><path d="M905,356.2969 L905,383.2969 M892,364.2969 L918,364.2969 M905,383.2969 L892,398.2969 M905,383.2969 L918,398.2969 " fill="none" style="stroke:#181818;stroke-width:0.5;"/><text fill="#000000" font-family="sans-serif" font-size="14" lengthAdjust="spacing" textLength="84" x="863" y="412.792">AnalystUser</text></g><!--link User to APIWebFramework--><g id="link_User_APIWebFramework"><path d="M388,119.0039 C388,149.2899 388,185.0409 388,210.4099 " fill="none" id="User-to-APIWebFramework" style="stroke:#181818;stroke-width:1.0;"/><polygon fill="#181818" points="388,216.4099,392,207.4099,388,211.4099,384,207.4099,388,216.4099" style="stroke:#181818;stroke-width:1.0;"/><text fill="#000000" font-family="sans-serif" font-size="13" lengthAdjust="spacing" textLength="173" x="389" y="161.8638">Manage generated content</text></g><!--reverse link OLAPStorage to AnalystUser--><g id="link_OLAPStorage_AnalystUser"><path d="M639.684,377.7969 C705.106,377.7969 804.241,377.7969 862.566,377.7969 " fill="none" id="OLAPStorage-backto-AnalystUser" style="stroke:#181818;stroke-width:1.0;"/><polygon fill="#181818" points="633.684,377.7969,642.684,381.7969,638.684,377.7969,642.684,373.7969,633.684,377.7969" style="stroke:#181818;stroke-width:1.0;"/><text fill="#000000" font-family="sans-serif" font-size="13" lengthAdjust="spacing" textLength="193" x="651.75" y="370.8638">Analysis of generated content</text></g><!--link APIWebFramework to OLTPStorage--><g id="link_APIWebFramework_OLTPStorage"><path d="M379.052,262.9379 C375.831,272.0299 372.599,282.7609 371,292.7969 C367.648,313.8369 368.4434,332.2351 370.3064,349.2873 " fill="none" id="APIWebFramework-to-OLTPStorage" style="stroke:#181818;stroke-width:1.0;"/><polygon fill="#181818" points="370.958,355.2518,373.9569,345.8706,370.415,350.2814,366.0042,346.7394,370.958,355.2518" style="stroke:#181818;stroke-width:1.0;"/><text fill="#000000" font-family="sans-serif" font-size="13" lengthAdjust="spacing" textLength="63" x="372" y="305.8638">Load UGC</text></g><!--link OLAPETL to OLTPStorage--><g id="link_OLAPETL_OLTPStorage"><path d="M532.213,262.9499 C496.858,288.3909 444.1032,326.3524 409.0182,351.5983 " fill="none" id="OLAPETL-to-OLTPStorage" style="stroke:#181818;stroke-width:1.0;"/><polygon fill="#181818" points="404.148,355.1028,413.7896,353.0929,408.2065,352.1824,409.117,346.5993,404.148,355.1028" style="stroke:#181818;stroke-width:1.0;"/><text fill="#000000" font-family="sans-serif" font-size="13" lengthAdjust="spacing" textLength="55" x="486" y="305.8638">Get UGC</text></g><!--link OLAPETL to OLAPETL--><g id="link_OLAPETL_OLAPETL"><path d="M615.235,228.5639 C634.345,228.2599 650,232.0039 650,239.7969 C650,247.5899 640.3442,251.4293 621.2342,251.1253 " fill="none" id="OLAPETL-to-OLAPETL" style="stroke:#181818;stroke-width:1.0;"/><polygon fill="#181818" points="615.235,251.0299,624.1702,255.1725,620.2344,251.1094,624.2975,247.1735,615.235,251.0299" style="stroke:#181818;stroke-width:1.0;"/><text fill="#000000" font-family="sans-serif" font-size="13" lengthAdjust="spacing" textLength="99" x="656" y="244.3638">Transform UGC</text></g><!--link OLAPETL to OLAPStorage--><g id="link_OLAPETL_OLAPStorage"><path d="M565.118,262.9499 C567.549,288.3909 570.9421,323.8841 573.3551,349.13 " fill="none" id="OLAPETL-to-OLAPStorage" style="stroke:#181818;stroke-width:1.0;"/><polygon fill="#181818" points="573.926,355.1028,577.0515,345.763,573.4503,350.1255,569.0878,346.5242,573.926,355.1028" style="stroke:#181818;stroke-width:1.0;"/><text fill="#000000" font-family="sans-serif" font-size="13" lengthAdjust="spacing" textLength="147" x="570" y="305.8638">Load transformed UGC</text></g><!--link NoSQLETL to OLTPStorage--><g id="link_NoSQLETL_OLTPStorage"><path d="M126.725,262.7989 C182.005,288.2839 267.0362,327.4849 321.8692,352.7637 " fill="none" id="NoSQLETL-to-OLTPStorage" style="stroke:#181818;stroke-width:1.0;"/><polygon fill="#181818" points="327.318,355.2757,320.8194,347.8751,322.7773,353.1823,317.4701,355.1402,327.318,355.2757" style="stroke:#181818;stroke-width:1.0;"/><text fill="#000000" font-family="sans-serif" font-size="13" lengthAdjust="spacing" textLength="55" x="228" y="305.8638">Get UGC</text></g><!--link NoSQLETL to NoSQLETL--><g id="link_NoSQLETL_NoSQLETL"><path d="M135.74,228.5479 C155.011,228.4889 170.5,232.2379 170.5,239.7969 C170.5,247.3559 161.011,251.1232 141.74,251.0642 " fill="none" id="NoSQLETL-to-NoSQLETL" style="stroke:#181818;stroke-width:1.0;"/><polygon fill="#181818" points="135.74,251.0459,144.7277,255.0734,140.74,251.0612,144.7522,247.0734,135.74,251.0459" style="stroke:#181818;stroke-width:1.0;"/><text fill="#000000" font-family="sans-serif" font-size="13" lengthAdjust="spacing" textLength="99" x="176.5" y="244.3638">Transform UGC</text></g><!--link NoSQLETL to NoSQLStorage--><g id="link_NoSQLETL_NoSQLStorage"><path d="M86.709,262.8869 C91.928,276.7569 99.42,294.7949 108,309.7969 C117.151,325.7979 125.7787,337.7278 135.9287,350.4089 " fill="none" id="NoSQLETL-to-NoSQLStorage" style="stroke:#181818;stroke-width:1.0;"/><polygon fill="#181818" points="139.678,355.0932,137.1769,345.5672,136.5536,351.1896,130.9312,350.5663,139.678,355.0932" style="stroke:#181818;stroke-width:1.0;"/><text fill="#000000" font-family="sans-serif" font-size="13" lengthAdjust="spacing" textLength="63" x="109" y="305.8638">Load UGC</text></g><!--link APIWebFramework to NoSQLStorage--><g id="link_APIWebFramework_NoSQLStorage"><path d="M355.14,262.8829 C334.172,276.7519 306.279,294.7889 281,309.7969 C254.236,325.6859 228.785,339.6221 204.726,352.3997 " fill="none" id="APIWebFramework-to-NoSQLStorage" style="stroke:#181818;stroke-width:1.0;"/><polygon fill="#181818" points="199.427,355.214,209.2517,354.5252,203.8429,352.8687,205.4994,347.4599,199.427,355.214" style="stroke:#181818;stroke-width:1.0;"/></g><!--SRC=[XP1BRi8m48RtFiLSW4sxOr4fGYsgb09LWheUy2HOIMna3ufGrSFqHZrIXpG9IK3gRcn__sCS2cEFwB627UwBtBkJrGjNEW_rmJ2fqB_lNNLqbYmdV2u9JbNve1GRbldd-n6somLeWxcWIk6UnM4RoBTZPB4y1svkb3fA5ERKQ3uLNAqXshn-qEv5JAXslf0tZOmx30JhEDqauYN2aMGTHvldD1wZqLrqvPBtUC8sTnty9UKk7M6cNMrdJzC-C8Stj9VgELdooAJ5thAOgy6AC2ifOv4FYeZqZp01N7P7hwPPNOV1udE87UhBlodLxdqFawmbSOFrLDj6vZca7ct8dA_6I6yqBDq4SYUWDhpxoN_IhvWWtM6QVmlTRdlpDzxa1vxmlm00]--></g></svg>