<?xml version="1.0" encoding="us-ascii" standalone="no"?><svg xmlns="http://www.w3.org/2000/svg" xmlns:xlink="http://www.w3.org/1999/xlink" contentStyleType="text/css" height="610px" preserveAspectRatio="none" style="width:824px;height:610px;background:#FFFFFF;" version="1.1" viewBox="0 0 824 610" width="824px" zoomAndPan="magnify"><defs/><g><text fill="#888888" font-family="sans-serif" font-size="10" lengthAdjust="spacing" textLength="314" x="496.5" y="9.2822">&#1050;&#1086;&#1084;&#1087;&#1086;&#1085;&#1077;&#1085;&#1090;&#1085;&#1072;&#1103; &#1076;&#1080;&#1072;&#1075;&#1088;&#1072;&#1084;&#1084;&#1072; &#1088;&#1072;&#1079;&#1088;&#1072;&#1073;&#1072;&#1090;&#1099;&#1074;&#1072;&#1077;&#1084;&#1086;&#1075;&#1086; &#1087;&#1088;&#1086;&#1076;&#1091;&#1082;&#1090;&#1072;</text><text fill="#000000" font-family="sans-serif" font-size="14" font-weight="bold" lengthAdjust="spacing" textLength="199" x="305.75" y="35.6357">&#1057;&#1074;&#1103;&#1079;&#1080; &#1084;&#1077;&#1078;&#1076;&#1091; &#1089;&#1077;&#1088;&#1074;&#1080;&#1089;&#1072;&#1084;&#1080;</text><!--entity ??????--><g id="elem_&#1050;&#1083;&#1080;&#1077;&#1085;&#1090;"><ellipse cx="353.5" cy="63.9375" fill="#F1F1F1" rx="8" ry="8" style="stroke:#181818;stroke-width:0.5;"/><path d="M353.5,71.9375 L353.5,98.9375 M340.5,79.9375 L366.5,79.9375 M353.5,98.9375 L340.5,113.9375 M353.5,98.9375 L366.5,113.9375 " fill="none" style="stroke:#181818;stroke-width:0.5;"/><text fill="#000000" font-family="sans-serif" font-size="14" lengthAdjust="spacing" textLength="55" x="326" y="128.4326">&#1050;&#1083;&#1080;&#1077;&#1085;&#1090;</text></g><!--entity ?????????????--><g id="elem_&#1040;&#1076;&#1084;&#1080;&#1085;&#1080;&#1089;&#1090;&#1088;&#1072;&#1090;&#1086;&#1088;"><ellipse cx="713.5" cy="384.9375" fill="#F1F1F1" rx="8" ry="8" style="stroke:#181818;stroke-width:0.5;"/><path d="M713.5,392.9375 L713.5,419.9375 M700.5,400.9375 L726.5,400.9375 M713.5,419.9375 L700.5,434.9375 M713.5,419.9375 L726.5,434.9375 " fill="none" style="stroke:#181818;stroke-width:0.5;"/><text fill="#000000" font-family="sans-serif" font-size="14" lengthAdjust="spacing" textLength="121" x="653" y="449.4326">&#1040;&#1076;&#1084;&#1080;&#1085;&#1080;&#1089;&#1090;&#1088;&#1072;&#1090;&#1086;&#1088;</text></g><!--entity ????????--><g id="elem_&#1040;&#1085;&#1072;&#1083;&#1080;&#1090;&#1080;&#1082;"><ellipse cx="581.5" cy="384.9375" fill="#F1F1F1" rx="8" ry="8" style="stroke:#181818;stroke-width:0.5;"/><path d="M581.5,392.9375 L581.5,419.9375 M568.5,400.9375 L594.5,400.9375 M581.5,419.9375 L568.5,434.9375 M581.5,419.9375 L594.5,434.9375 " fill="none" style="stroke:#181818;stroke-width:0.5;"/><text fill="#000000" font-family="sans-serif" font-size="14" lengthAdjust="spacing" textLength="72" x="545.5" y="449.4326">&#1040;&#1085;&#1072;&#1083;&#1080;&#1090;&#1080;&#1082;</text></g><!--entity Admin--><g id="elem_Admin"><rect fill="#F1F1F1" height="46.2969" rx="2.5" ry="2.5" style="stroke:#181818;stroke-width:0.5;" width="254" x="531.5" y="529.4375"/><rect fill="#F1F1F1" height="10" style="stroke:#181818;stroke-width:0.5;" width="15" x="765.5" y="534.4375"/><rect fill="#F1F1F1" height="2" style="stroke:#181818;stroke-width:0.5;" width="4" x="763.5" y="536.4375"/><rect fill="#F1F1F1" height="2" style="stroke:#181818;stroke-width:0.5;" width="4" x="763.5" y="540.4375"/><text fill="#000000" font-family="sans-serif" font-size="14" lengthAdjust="spacing" textLength="214" x="546.5" y="562.4326">&#1057;&#1077;&#1088;&#1074;&#1080;&#1089; &#1072;&#1076;&#1084;&#1080;&#1085;&#1080;&#1089;&#1090;&#1088;&#1080;&#1088;&#1086;&#1074;&#1072;&#1085;&#1080;&#1103;</text></g><!--entity Auth--><g id="elem_Auth"><rect fill="#F1F1F1" height="46.2969" rx="2.5" ry="2.5" style="stroke:#181818;stroke-width:0.5;" width="197" x="7" y="70.4375"/><rect fill="#F1F1F1" height="10" style="stroke:#181818;stroke-width:0.5;" width="15" x="184" y="75.4375"/><rect fill="#F1F1F1" height="2" style="stroke:#181818;stroke-width:0.5;" width="4" x="182" y="77.4375"/><rect fill="#F1F1F1" height="2" style="stroke:#181818;stroke-width:0.5;" width="4" x="182" y="81.4375"/><text fill="#000000" font-family="sans-serif" font-size="14" lengthAdjust="spacing" textLength="157" x="22" y="103.4326">&#1057;&#1077;&#1088;&#1074;&#1080;&#1089; &#1072;&#1074;&#1090;&#1086;&#1088;&#1080;&#1079;&#1072;&#1094;&#1080;&#1080;</text></g><!--entity Etl--><g id="elem_Etl"><rect fill="#F1F1F1" height="46.2969" rx="2.5" ry="2.5" style="stroke:#181818;stroke-width:0.5;" width="288" x="209.5" y="391.4375"/><rect fill="#F1F1F1" height="10" style="stroke:#181818;stroke-width:0.5;" width="15" x="477.5" y="396.4375"/><rect fill="#F1F1F1" height="2" style="stroke:#181818;stroke-width:0.5;" width="4" x="475.5" y="398.4375"/><rect fill="#F1F1F1" height="2" style="stroke:#181818;stroke-width:0.5;" width="4" x="475.5" y="402.4375"/><text fill="#000000" font-family="sans-serif" font-size="14" lengthAdjust="spacing" textLength="248" x="224.5" y="424.4326">&#1057;&#1077;&#1088;&#1074;&#1080;&#1089; &#1087;&#1086;&#1083;&#1085;&#1086;&#1090;&#1077;&#1082;&#1089;&#1090;&#1086;&#1074;&#1086;&#1075;&#1086; &#1087;&#1086;&#1080;&#1089;&#1082;&#1072;</text></g><!--entity Practix--><g id="elem_Practix"><rect fill="#F1F1F1" height="46.2969" rx="2.5" ry="2.5" style="stroke:#181818;stroke-width:0.5;" width="274" x="216.5" y="208.4375"/><rect fill="#F1F1F1" height="10" style="stroke:#181818;stroke-width:0.5;" width="15" x="470.5" y="213.4375"/><rect fill="#F1F1F1" height="2" style="stroke:#181818;stroke-width:0.5;" width="4" x="468.5" y="215.4375"/><rect fill="#F1F1F1" height="2" style="stroke:#181818;stroke-width:0.5;" width="4" x="468.5" y="219.4375"/><text fill="#000000" font-family="sans-serif" font-size="14" lengthAdjust="spacing" textLength="234" x="231.5" y="241.4326">&#1057;&#1077;&#1088;&#1074;&#1080;&#1089; &#1088;&#1072;&#1073;&#1086;&#1090;&#1099; api &#1082;&#1080;&#1085;&#1086;&#1090;&#1077;&#1072;&#1090;&#1088;&#1072;</text></g><!--entity Kafka--><g id="elem_Kafka"><rect fill="#F1F1F1" height="46.2969" rx="2.5" ry="2.5" style="stroke:#181818;stroke-width:0.5;" width="248" x="539.5" y="70.4375"/><rect fill="#F1F1F1" height="10" style="stroke:#181818;stroke-width:0.5;" width="15" x="767.5" y="75.4375"/><rect fill="#F1F1F1" height="2" style="stroke:#181818;stroke-width:0.5;" width="4" x="765.5" y="77.4375"/><rect fill="#F1F1F1" height="2" style="stroke:#181818;stroke-width:0.5;" width="4" x="765.5" y="81.4375"/><text fill="#000000" font-family="sans-serif" font-size="14" lengthAdjust="spacing" textLength="208" x="554.5" y="103.4326">&#1057;&#1077;&#1088;&#1074;&#1080;&#1089; &#1089;&#1090;&#1088;&#1080;&#1084;&#1080;&#1085;&#1075;&#1072; &#1089;&#1086;&#1073;&#1099;&#1090;&#1080;&#1081;</text></g><!--entity Clickhouse--><g id="elem_Clickhouse"><path d="M559.5,218.9375 C559.5,208.9375 629.5,208.9375 629.5,208.9375 C629.5,208.9375 699.5,208.9375 699.5,218.9375 L699.5,244.2344 C699.5,254.2344 629.5,254.2344 629.5,254.2344 C629.5,254.2344 559.5,254.2344 559.5,244.2344 L559.5,218.9375 " fill="#F1F1F1" style="stroke:#181818;stroke-width:0.5;"/><path d="M559.5,218.9375 C559.5,228.9375 629.5,228.9375 629.5,228.9375 C629.5,228.9375 699.5,228.9375 699.5,218.9375 " fill="none" style="stroke:#181818;stroke-width:0.5;"/><text fill="#000000" font-family="sans-serif" font-size="14" lengthAdjust="spacing" textLength="120" x="569.5" y="245.9326">&#1057;&#1077;&#1088;&#1074;&#1080;&#1089; Big Data</text></g><!--entity Postgres--><g id="elem_Postgres"><path d="M266.5,539.9375 C266.5,529.9375 353.5,529.9375 353.5,529.9375 C353.5,529.9375 440.5,529.9375 440.5,539.9375 L440.5,565.2344 C440.5,575.2344 353.5,575.2344 353.5,575.2344 C353.5,575.2344 266.5,575.2344 266.5,565.2344 L266.5,539.9375 " fill="#F1F1F1" style="stroke:#181818;stroke-width:0.5;"/><path d="M266.5,539.9375 C266.5,549.9375 353.5,549.9375 353.5,549.9375 C353.5,549.9375 440.5,549.9375 440.5,539.9375 " fill="none" style="stroke:#181818;stroke-width:0.5;"/><text fill="#000000" font-family="sans-serif" font-size="14" lengthAdjust="spacing" textLength="154" x="276.5" y="566.9326">&#1057;&#1077;&#1088;&#1074;&#1080;&#1089; &#1073;&#1072;&#1079;&#1099; &#1076;&#1072;&#1085;&#1085;&#1099;&#1093;</text></g><!--link ?????? to Practix--><g id="link_&#1050;&#1083;&#1080;&#1077;&#1085;&#1090;_Practix"><path d="M353.5,131.6005 C353.5,156.1375 353.5,181.4725 353.5,202.2085 " fill="none" id="&#1050;&#1083;&#1080;&#1077;&#1085;&#1090;-to-Practix" style="stroke:#181818;stroke-width:1.0;"/><polygon fill="#181818" points="353.5,208.2085,357.5,199.2085,353.5,203.2085,349.5,199.2085,353.5,208.2085" style="stroke:#181818;stroke-width:1.0;"/><text fill="#000000" font-family="sans-serif" font-size="13" lengthAdjust="spacing" textLength="109" x="354.5" y="174.5044">&#1056;&#1072;&#1073;&#1086;&#1090;&#1072; &#1089; &#1089;&#1072;&#1081;&#1090;&#1086;&#1084;</text></g><!--reverse link Auth to ??????--><g id="link_Auth_&#1050;&#1083;&#1080;&#1077;&#1085;&#1090;"><path d="M210.229,93.4375 C254.129,93.4375 296.442,93.4375 325.877,93.4375 " fill="none" id="Auth-backto-&#1050;&#1083;&#1080;&#1077;&#1085;&#1090;" style="stroke:#181818;stroke-width:1.0;"/><polygon fill="#181818" points="204.229,93.4375,213.229,97.4375,209.229,93.4375,213.229,89.4375,204.229,93.4375" style="stroke:#181818;stroke-width:1.0;"/><text fill="#000000" font-family="sans-serif" font-size="13" lengthAdjust="spacing" textLength="85" x="222.5" y="86.5044">&#1072;&#1074;&#1090;&#1086;&#1088;&#1080;&#1079;&#1072;&#1094;&#1080;&#1103;</text></g><!--link ????????????? to Admin--><g id="link_&#1040;&#1076;&#1084;&#1080;&#1085;&#1080;&#1089;&#1090;&#1088;&#1072;&#1090;&#1086;&#1088;_Admin"><path d="M698.471,452.6005 C688.548,477.1379 678.1255,502.91 669.7395,523.6459 " fill="none" id="&#1040;&#1076;&#1084;&#1080;&#1085;&#1080;&#1089;&#1090;&#1088;&#1072;&#1090;&#1086;&#1088;-to-Admin" style="stroke:#181818;stroke-width:1.0;"/><polygon fill="#181818" points="667.49,529.2082,674.5725,522.3644,669.3646,524.5729,667.1561,519.365,667.49,529.2082" style="stroke:#181818;stroke-width:1.0;"/><text fill="#000000" font-family="sans-serif" font-size="13" lengthAdjust="spacing" textLength="129" x="687.5" y="495.5044">&#1056;&#1072;&#1073;&#1086;&#1090;&#1072; &#1089; &#1072;&#1076;&#1084;&#1080;&#1085;&#1082;&#1086;&#1081;</text></g><!--link Practix to Etl--><g id="link_Practix_Etl"><path d="M353.5,254.6315 C353.5,289.4645 353.5,350.5755 353.5,385.3455 " fill="none" id="Practix-to-Etl" style="stroke:#181818;stroke-width:1.0;"/><polygon fill="#181818" points="353.5,391.3455,357.5,382.3455,353.5,386.3455,349.5,382.3455,353.5,391.3455" style="stroke:#181818;stroke-width:1.0;"/><text fill="#000000" font-family="sans-serif" font-size="13" lengthAdjust="spacing" textLength="154" x="354.5" y="320.0044">&#1087;&#1086;&#1083;&#1085;&#1086;&#1090;&#1077;&#1082;&#1089;&#1090;&#1086;&#1074;&#1099;&#1081; &#1087;&#1086;&#1080;&#1089;&#1082;</text></g><!--reverse link Etl to Postgres--><g id="link_Etl_Postgres"><path d="M353.5,443.5905 C353.5,469.0315 353.5,504.4976 353.5,529.7434 " fill="none" id="Etl-backto-Postgres" style="stroke:#181818;stroke-width:1.0;"/><polygon fill="#181818" points="353.5,437.5905,349.5,446.5905,353.5,442.5905,357.5,446.5905,353.5,437.5905" style="stroke:#181818;stroke-width:1.0;"/><text fill="#000000" font-family="sans-serif" font-size="13" lengthAdjust="spacing" textLength="117" x="354.5" y="495.5044">&#1079;&#1072;&#1075;&#1088;&#1091;&#1079;&#1082;&#1072; &#1076;&#1072;&#1085;&#1085;&#1099;&#1093;</text></g><!--link Auth to Postgres--><g id="link_Auth_Postgres"><path d="M105.1881,116.5685 C105.4313,176.5985 113.465,345.1865 191.5,452.4375 C217.582,488.2854 255.5188,511.2988 290.8328,527.4358 " fill="none" id="Auth-to-Postgres" style="stroke:#181818;stroke-width:1.0;"/><polygon fill="#181818" points="296.29,529.9295,289.7666,522.5508,291.7423,527.8514,286.4417,529.8271,296.29,529.9295" style="stroke:#181818;stroke-width:1.0;"/></g><!--reverse link Postgres to Admin--><g id="link_Postgres_Admin"><path d="M446.771,552.4375 C476.963,552.4375 501.156,552.4375 531.349,552.4375 " fill="none" id="Postgres-backto-Admin" style="stroke:#181818;stroke-width:1.0;"/><polygon fill="#181818" points="440.771,552.4375,449.771,556.4375,445.771,552.4375,449.771,548.4375,440.771,552.4375" style="stroke:#181818;stroke-width:1.0;"/></g><!--link ?????? to Kafka--><g id="link_&#1050;&#1083;&#1080;&#1077;&#1085;&#1090;_Kafka"><path d="M381.01,93.4375 C416.574,93.4375 474.867,93.4375 533.142,93.4375 " fill="none" id="&#1050;&#1083;&#1080;&#1077;&#1085;&#1090;-to-Kafka" style="stroke:#181818;stroke-width:1.0;"/><polygon fill="#181818" points="539.142,93.4375,530.142,89.4375,534.142,93.4375,530.142,97.4375,539.142,93.4375" style="stroke:#181818;stroke-width:1.0;"/><text fill="#000000" font-family="sans-serif" font-size="13" lengthAdjust="spacing" textLength="122" x="399.25" y="86.5044">&#1086;&#1090;&#1087;&#1088;&#1072;&#1074;&#1082;&#1072; &#1089;&#1086;&#1073;&#1099;&#1090;&#1080;&#1081;</text></g><!--link Kafka to Clickhouse--><g id="link_Kafka_Clickhouse"><path d="M657.962,116.5905 C651.601,142.0315 642.6901,177.6766 636.3791,202.9226 " fill="none" id="Kafka-to-Clickhouse" style="stroke:#181818;stroke-width:1.0;"/><polygon fill="#181818" points="634.924,208.7435,640.9872,200.9822,636.1366,203.8928,633.2261,199.0421,634.924,208.7435" style="stroke:#181818;stroke-width:1.0;"/><text fill="#000000" font-family="sans-serif" font-size="13" lengthAdjust="spacing" textLength="165" x="647.5" y="174.5044">&#1089;&#1086;&#1093;&#1088;&#1072;&#1085;&#1080;&#1077; &#1074; &#1073;&#1072;&#1079;&#1091; &#1076;&#1072;&#1085;&#1085;&#1099;&#1093;</text></g><!--link Clickhouse to ????????--><g id="link_Clickhouse_&#1040;&#1085;&#1072;&#1083;&#1080;&#1090;&#1080;&#1082;"><path d="M623.71,254.2705 C615.706,284.4525 602.685,333.553 592.936,370.314 " fill="none" id="Clickhouse-to-&#1040;&#1085;&#1072;&#1083;&#1080;&#1090;&#1080;&#1082;" style="stroke:#181818;stroke-width:1.0;"/><polygon fill="#181818" points="591.398,376.1135,597.5714,368.4396,592.6797,371.2806,589.8387,366.3889,591.398,376.1135" style="stroke:#181818;stroke-width:1.0;"/><text fill="#000000" font-family="sans-serif" font-size="13" lengthAdjust="spacing" textLength="31" x="652" y="297.5044">&#1089;&#1073;&#1086;&#1088;</text><text fill="#000000" font-family="sans-serif" font-size="13" lengthAdjust="spacing" textLength="71" x="634" y="312.6372">&#1086;&#1073;&#1088;&#1072;&#1073;&#1086;&#1090;&#1082;&#1072;</text><text fill="#000000" font-family="sans-serif" font-size="13" lengthAdjust="spacing" textLength="94" x="622.5" y="327.77">&#1074;&#1080;&#1079;&#1091;&#1072;&#1083;&#1080;&#1079;&#1072;&#1094;&#1080;&#1103;</text><text fill="#000000" font-family="sans-serif" font-size="13" lengthAdjust="spacing" textLength="102" x="620.5" y="342.9028">&#1080;&#1085;&#1090;&#1077;&#1088;&#1087;&#1088;&#1077;&#1090;&#1072;&#1094;&#1080;&#1103;</text></g><text fill="#888888" font-family="sans-serif" font-size="10" lengthAdjust="spacing" textLength="91" x="359.75" y="600.5166">&#1057;&#1090;&#1088;&#1072;&#1085;&#1080;&#1094;&#1072; 1 &#1080;&#1079; 1</text><!--SRC=[TLHDRzf04BtlhnXnpo4zegfIc_RKIwHUUzc00GjZ8tjHsbj8b5muq7DFpJym9Yw6WFaBut-KcJ5hp4U4j5xjpBnv- -OjKT_rXphK0xZHhNut34P- -ohmWX1kUwvnL5J5My5W6FYERtwOtvu3eu7tGQcUezjE2FWNSrpZbjODfhWfxkaR5rF05ymmndbnH-kQVZ78TY7hZ7BkYmacj4yfcECSSy0j1NDyAHvmHK2nCgwXXlYCIJ751MP0gId-vmmenfXIUe8PxRX5fZf1O9ZJCs5pbmt5dgZn9H2N1LmgfLic4DAlT29qxT4V8amOKZCkwub2Njpj4-XYN4V76QwKgcI1p-s1wuEEe45KAr90wSUOcLmmsN6RDkeW8zCxYv6KFFWAnEc9lbczxflnpfJnG5wfIKx5AQavPX0AMg5fmxgjCAvZmNL8jtL_dGBkffRpr40FNQ3IhCAFIy7gKDzrfw_FuEnqsEaoPrkCYSoic8YkouPgQwDlTEJ0bUUs-hrWHDiJd2zk5xvIOYtzEeXCDtIYCshCn7WJDYKhlw5cZmsbwZw0YtPmwrzyiX8q0V_PAmj949ijHSVrKQddT0oLyWYRPqTMJDNx3gjQYuzE6zTyjABcIwNic6mXUQ3vxipfcIrh4rTic8zbPQKPLI_ArqflRy6sED1AYJahXNP5glIzlNrrV2HEw7Px71T7K2EcjnK_9TBeSFwgD8xjjVT0KnABH_koCGLCx6WV3kdMd6E1Zjyl2DvCzF_fWr2eF2wy-3JX4P8aKhWVfiGo-RTZb_5jKfvM6Nq3]--></g></svg>