<?xml version="1.0" encoding="us-ascii" standalone="no"?><svg xmlns="http://www.w3.org/2000/svg" xmlns:xlink="http://www.w3.org/1999/xlink" contentStyleType="text/css" height="480px" preserveAspectRatio="none" style="width:625px;height:480px;background:#FFFFFF;" version="1.1" viewBox="0 0 625 480" width="625px" zoomAndPan="magnify"><defs/><g><text fill="#000000" font-family="sans-serif" font-size="14" font-weight="bold" lengthAdjust="spacing" textLength="33" x="292.25" y="40.6357">UGC</text><line style="stroke:#181818;stroke-width:0.5;stroke-dasharray:5.0,5.0;" x1="61" x2="61" y1="131.2344" y2="384.2969"/><line style="stroke:#181818;stroke-width:0.5;stroke-dasharray:5.0,5.0;" x1="168" x2="168" y1="131.2344" y2="384.2969"/><line style="stroke:#181818;stroke-width:0.5;stroke-dasharray:5.0,5.0;" x1="237" x2="237" y1="131.2344" y2="384.2969"/><line style="stroke:#181818;stroke-width:0.5;stroke-dasharray:5.0,5.0;" x1="322.5" x2="322.5" y1="131.2344" y2="384.2969"/><line style="stroke:#181818;stroke-width:0.5;stroke-dasharray:5.0,5.0;" x1="411" x2="411" y1="131.2344" y2="384.2969"/><line style="stroke:#181818;stroke-width:0.5;stroke-dasharray:5.0,5.0;" x1="505.5" x2="505.5" y1="131.2344" y2="384.2969"/><line style="stroke:#181818;stroke-width:0.5;stroke-dasharray:5.0,5.0;" x1="574.5" x2="574.5" y1="131.2344" y2="384.2969"/><text fill="#000000" font-family="sans-serif" font-size="14" lengthAdjust="spacing" textLength="107" x="5" y="127.9326">&#1055;&#1086;&#1083;&#1100;&#1079;&#1086;&#1074;&#1072;&#1090;&#1077;&#1083;&#1100;</text><ellipse cx="61.5" cy="63.4375" fill="#E2E2F0" rx="8" ry="8" style="stroke:#181818;stroke-width:0.5;"/><path d="M61.5,71.4375 L61.5,98.4375 M48.5,79.4375 L74.5,79.4375 M61.5,98.4375 L48.5,113.4375 M61.5,98.4375 L74.5,113.4375 " fill="none" style="stroke:#181818;stroke-width:0.5;"/><text fill="#000000" font-family="sans-serif" font-size="14" lengthAdjust="spacing" textLength="107" x="5" y="396.292">&#1055;&#1086;&#1083;&#1100;&#1079;&#1086;&#1074;&#1072;&#1090;&#1077;&#1083;&#1100;</text><ellipse cx="61.5" cy="408.0938" fill="#E2E2F0" rx="8" ry="8" style="stroke:#181818;stroke-width:0.5;"/><path d="M61.5,416.0938 L61.5,443.0938 M48.5,424.0938 L74.5,424.0938 M61.5,443.0938 L48.5,458.0938 M61.5,443.0938 L74.5,458.0938 " fill="none" style="stroke:#181818;stroke-width:0.5;"/><rect fill="#E2E2F0" height="30.2969" rx="2.5" ry="2.5" style="stroke:#181818;stroke-width:0.5;" width="80" x="128" y="99.9375"/><text fill="#000000" font-family="sans-serif" font-size="14" lengthAdjust="spacing" textLength="66" x="135" y="119.9326">Frontend</text><rect fill="#E2E2F0" height="30.2969" rx="2.5" ry="2.5" style="stroke:#181818;stroke-width:0.5;" width="80" x="128" y="383.2969"/><text fill="#000000" font-family="sans-serif" font-size="14" lengthAdjust="spacing" textLength="66" x="135" y="403.292">Frontend</text><rect fill="#E2E2F0" height="30.2969" rx="2.5" ry="2.5" style="stroke:#181818;stroke-width:0.5;" width="38" x="218" y="99.9375"/><text fill="#000000" font-family="sans-serif" font-size="14" lengthAdjust="spacing" textLength="24" x="225" y="119.9326">Api</text><rect fill="#E2E2F0" height="30.2969" rx="2.5" ry="2.5" style="stroke:#181818;stroke-width:0.5;" width="38" x="218" y="383.2969"/><text fill="#000000" font-family="sans-serif" font-size="14" lengthAdjust="spacing" textLength="24" x="225" y="403.292">Api</text><rect fill="#E2E2F0" height="30.2969" rx="2.5" ry="2.5" style="stroke:#181818;stroke-width:0.5;" width="81" x="282.5" y="99.9375"/><text fill="#000000" font-family="sans-serif" font-size="14" lengthAdjust="spacing" textLength="67" x="289.5" y="119.9326">EventBus</text><rect fill="#E2E2F0" height="30.2969" rx="2.5" ry="2.5" style="stroke:#181818;stroke-width:0.5;" width="81" x="282.5" y="383.2969"/><text fill="#000000" font-family="sans-serif" font-size="14" lengthAdjust="spacing" textLength="67" x="289.5" y="403.292">EventBus</text><rect fill="#E2E2F0" height="30.2969" rx="2.5" ry="2.5" style="stroke:#181818;stroke-width:0.5;" width="34" x="394" y="99.9375"/><text fill="#000000" font-family="sans-serif" font-size="14" lengthAdjust="spacing" textLength="20" x="401" y="119.9326">Etl</text><rect fill="#E2E2F0" height="30.2969" rx="2.5" ry="2.5" style="stroke:#181818;stroke-width:0.5;" width="34" x="394" y="383.2969"/><text fill="#000000" font-family="sans-serif" font-size="14" lengthAdjust="spacing" textLength="20" x="401" y="403.292">Etl</text><text fill="#000000" font-family="sans-serif" font-size="14" lengthAdjust="spacing" textLength="33" x="486.5" y="127.9326">Olap</text><path d="M488,78.9375 C488,68.9375 506,68.9375 506,68.9375 C506,68.9375 524,68.9375 524,78.9375 L524,104.9375 C524,114.9375 506,114.9375 506,114.9375 C506,114.9375 488,114.9375 488,104.9375 L488,78.9375 " fill="#E2E2F0" style="stroke:#181818;stroke-width:1.5;"/><path d="M488,78.9375 C488,88.9375 506,88.9375 506,88.9375 C506,88.9375 524,88.9375 524,78.9375 " fill="none" style="stroke:#181818;stroke-width:1.5;"/><text fill="#000000" font-family="sans-serif" font-size="14" lengthAdjust="spacing" textLength="33" x="486.5" y="396.292">Olap</text><path d="M488,409.5938 C488,399.5938 506,399.5938 506,399.5938 C506,399.5938 524,399.5938 524,409.5938 L524,435.5938 C524,445.5938 506,445.5938 506,445.5938 C506,445.5938 488,445.5938 488,435.5938 L488,409.5938 " fill="#E2E2F0" style="stroke:#181818;stroke-width:1.5;"/><path d="M488,409.5938 C488,419.5938 506,419.5938 506,419.5938 C506,419.5938 524,419.5938 524,409.5938 " fill="none" style="stroke:#181818;stroke-width:1.5;"/><text fill="#000000" font-family="sans-serif" font-size="14" lengthAdjust="spacing" textLength="72" x="535.5" y="127.9326">&#1040;&#1085;&#1072;&#1083;&#1080;&#1090;&#1080;&#1082;</text><ellipse cx="574.5" cy="63.4375" fill="#E2E2F0" rx="8" ry="8" style="stroke:#181818;stroke-width:0.5;"/><path d="M574.5,71.4375 L574.5,98.4375 M561.5,79.4375 L587.5,79.4375 M574.5,98.4375 L561.5,113.4375 M574.5,98.4375 L587.5,113.4375 " fill="none" style="stroke:#181818;stroke-width:0.5;"/><text fill="#000000" font-family="sans-serif" font-size="14" lengthAdjust="spacing" textLength="72" x="535.5" y="396.292">&#1040;&#1085;&#1072;&#1083;&#1080;&#1090;&#1080;&#1082;</text><ellipse cx="574.5" cy="408.0938" fill="#E2E2F0" rx="8" ry="8" style="stroke:#181818;stroke-width:0.5;"/><path d="M574.5,416.0938 L574.5,443.0938 M561.5,424.0938 L587.5,424.0938 M574.5,443.0938 L561.5,458.0938 M574.5,443.0938 L587.5,458.0938 " fill="none" style="stroke:#181818;stroke-width:0.5;"/><polygon fill="#181818" points="72.5,143.2344,62.5,147.2344,72.5,151.2344,68.5,147.2344" style="stroke:#181818;stroke-width:1.0;"/><polygon fill="#181818" points="156,143.2344,166,147.2344,156,151.2344,160,147.2344" style="stroke:#181818;stroke-width:1.0;"/><line style="stroke:#181818;stroke-width:1.0;" x1="66.5" x2="162" y1="147.2344" y2="147.2344"/><polygon fill="#181818" points="225,172.3672,235,176.3672,225,180.3672,229,176.3672" style="stroke:#181818;stroke-width:1.0;"/><line style="stroke:#181818;stroke-width:1.0;" x1="168" x2="231" y1="176.3672" y2="176.3672"/><text fill="#000000" font-family="sans-serif" font-size="13" lengthAdjust="spacing" textLength="42" x="175" y="171.3013">&#1050;&#1083;&#1080;&#1082;&#1080;</text><polygon fill="#181818" points="225,201.5,235,205.5,225,209.5,229,205.5" style="stroke:#181818;stroke-width:1.0;"/><line style="stroke:#181818;stroke-width:1.0;" x1="168" x2="231" y1="205.5" y2="205.5"/><text fill="#000000" font-family="sans-serif" font-size="13" lengthAdjust="spacing" textLength="42" x="175" y="200.4341">&#1055;&#1083;&#1077;&#1077;&#1088;</text><polygon fill="#181818" points="225,230.6328,235,234.6328,225,238.6328,229,234.6328" style="stroke:#181818;stroke-width:1.0;"/><line style="stroke:#181818;stroke-width:1.0;" x1="168" x2="231" y1="234.6328" y2="234.6328"/><text fill="#000000" font-family="sans-serif" font-size="13" lengthAdjust="spacing" textLength="17" x="175" y="229.5669">Url</text><polygon fill="#181818" points="311,259.7656,321,263.7656,311,267.7656,315,263.7656" style="stroke:#181818;stroke-width:1.0;"/><line style="stroke:#181818;stroke-width:1.0;" x1="237" x2="317" y1="263.7656" y2="263.7656"/><text fill="#000000" font-family="sans-serif" font-size="13" lengthAdjust="spacing" textLength="62" x="244" y="258.6997">&#1047;&#1072;&#1075;&#1088;&#1091;&#1079;&#1082;&#1072;</text><polygon fill="#181818" points="399,288.8984,409,292.8984,399,296.8984,403,292.8984" style="stroke:#181818;stroke-width:1.0;"/><line style="stroke:#181818;stroke-width:1.0;" x1="323" x2="405" y1="292.8984" y2="292.8984"/><text fill="#000000" font-family="sans-serif" font-size="13" lengthAdjust="spacing" textLength="64" x="330" y="287.8325">&#1042;&#1099;&#1075;&#1088;&#1091;&#1079;&#1082;&#1072;</text><polygon fill="#181818" points="494,348.2969,504,352.2969,494,356.2969,498,352.2969" style="stroke:#181818;stroke-width:1.0;"/><line style="stroke:#181818;stroke-width:1.0;" x1="411" x2="500" y1="352.2969" y2="352.2969"/><text fill="#000000" font-family="sans-serif" font-size="13" lengthAdjust="spacing" textLength="46" x="418" y="316.9653">Extract</text><text fill="#000000" font-family="sans-serif" font-size="13" lengthAdjust="spacing" textLength="67" x="418" y="332.0981">Transform</text><text fill="#000000" font-family="sans-serif" font-size="13" lengthAdjust="spacing" textLength="31" x="418" y="347.231">Load</text><polygon fill="#181818" points="517,362.2969,507,366.2969,517,370.2969,513,366.2969" style="stroke:#181818;stroke-width:1.0;"/><polygon fill="#181818" points="562.5,362.2969,572.5,366.2969,562.5,370.2969,566.5,366.2969" style="stroke:#181818;stroke-width:1.0;"/><line style="stroke:#181818;stroke-width:1.0;" x1="511" x2="568.5" y1="366.2969" y2="366.2969"/><text fill="#888888" font-family="sans-serif" font-size="10" lengthAdjust="spacing" textLength="222" x="395.5" y="14.2822">&#1050;&#1086;&#1084;&#1087;&#1086;&#1085;&#1077;&#1085;&#1090;&#1085;&#1072;&#1103; &#1076;&#1080;&#1072;&#1075;&#1088;&#1072;&#1084;&#1084;&#1072; data analyze</text><text fill="#888888" font-family="sans-serif" font-size="10" lengthAdjust="spacing" textLength="91" x="263.25" y="469.876">&#1057;&#1090;&#1088;&#1072;&#1085;&#1080;&#1094;&#1072; 1 &#1080;&#1079; 1</text><!--SRC=[TL71IWCn4BtdA-O7FFGg8gXKBu8NU_CoTbDSYDabEufwAYjuKL2y25wAVx2eIvTkgxym-ICdbLOhCO5aCkzbvhtaH6EY7V0pV_2KFsMTSSqpNyfU-NlWTswuuZS_b7Kgiu842G4jciihhIWbew6tjwC6MKQXqeilv-GPD_v6w1sG2cFeA8LzoXoi3Xv9ozRVyLZsLsbPIdivgnmTfVqqHqjBygxBB6cRHC6jF8tck-VQqlPP4GV9gE3d60lzMzQ1mJokzo4y3BTYhXHV4wN-Sm0RQvi_YXS1I5AKmdfuyZPKu2O6ZWIikVR32DXpHeL84WjpuShJzp_vQr4ouKejiS0Z4oYF_dQL8cb1Wrk1knVan3CSsKE7jXXaxbJY_GmJDMS4Gt_zVm40]--></g></svg>