<?xml version="1.0" encoding="us-ascii" standalone="no"?><svg xmlns="http://www.w3.org/2000/svg" xmlns:xlink="http://www.w3.org/1999/xlink" contentStyleType="text/css" height="768px" preserveAspectRatio="none" style="width:639px;height:768px;background:#FFFFFF;" version="1.1" viewBox="0 0 639 768" width="639px" zoomAndPan="magnify"><defs/><g><text fill="#000000" font-family="sans-serif" font-size="14" font-weight="bold" lengthAdjust="spacing" textLength="33" x="299.25" y="40.6357">UGC</text><line style="stroke:#181818;stroke-width:0.5;stroke-dasharray:5.0,5.0;" x1="187" x2="187" y1="117.2344" y2="686.9531"/><line style="stroke:#181818;stroke-width:0.5;stroke-dasharray:5.0,5.0;" x1="329.5" x2="329.5" y1="117.2344" y2="686.9531"/><line style="stroke:#181818;stroke-width:0.5;stroke-dasharray:5.0,5.0;" x1="494" x2="494" y1="117.2344" y2="686.9531"/><line style="stroke:#181818;stroke-width:0.5;stroke-dasharray:5.0,5.0;" x1="585.5" x2="585.5" y1="117.2344" y2="686.9531"/><rect fill="#E2E2F0" height="30.2969" rx="2.5" ry="2.5" style="stroke:#181818;stroke-width:0.5;" width="50" x="162" y="85.9375"/><text fill="#000000" font-family="sans-serif" font-size="14" lengthAdjust="spacing" textLength="36" x="169" y="105.9326">Flask</text><rect fill="#E2E2F0" height="30.2969" rx="2.5" ry="2.5" style="stroke:#181818;stroke-width:0.5;" width="50" x="162" y="685.9531"/><text fill="#000000" font-family="sans-serif" font-size="14" lengthAdjust="spacing" textLength="36" x="169" y="705.9482">Flask</text><rect fill="#E2E2F0" height="30.2969" rx="2.5" ry="2.5" style="stroke:#181818;stroke-width:0.5;" width="55" x="302.5" y="85.9375"/><text fill="#000000" font-family="sans-serif" font-size="14" lengthAdjust="spacing" textLength="41" x="309.5" y="105.9326">Kafka</text><rect fill="#E2E2F0" height="30.2969" rx="2.5" ry="2.5" style="stroke:#181818;stroke-width:0.5;" width="55" x="302.5" y="685.9531"/><text fill="#000000" font-family="sans-serif" font-size="14" lengthAdjust="spacing" textLength="41" x="309.5" y="705.9482">Kafka</text><rect fill="#E2E2F0" height="30.2969" rx="2.5" ry="2.5" style="stroke:#181818;stroke-width:0.5;" width="34" x="477" y="85.9375"/><text fill="#000000" font-family="sans-serif" font-size="14" lengthAdjust="spacing" textLength="20" x="484" y="105.9326">Etl</text><rect fill="#E2E2F0" height="30.2969" rx="2.5" ry="2.5" style="stroke:#181818;stroke-width:0.5;" width="34" x="477" y="685.9531"/><text fill="#000000" font-family="sans-serif" font-size="14" lengthAdjust="spacing" textLength="20" x="484" y="705.9482">Etl</text><text fill="#000000" font-family="sans-serif" font-size="14" lengthAdjust="spacing" textLength="77" x="544.5" y="113.9326">Clickhouse</text><path d="M568,64.9375 C568,54.9375 586,54.9375 586,54.9375 C586,54.9375 604,54.9375 604,64.9375 L604,90.9375 C604,100.9375 586,100.9375 586,100.9375 C586,100.9375 568,100.9375 568,90.9375 L568,64.9375 " fill="#E2E2F0" style="stroke:#181818;stroke-width:1.5;"/><path d="M568,64.9375 C568,74.9375 586,74.9375 586,74.9375 C586,74.9375 604,74.9375 604,64.9375 " fill="none" style="stroke:#181818;stroke-width:1.5;"/><text fill="#000000" font-family="sans-serif" font-size="14" lengthAdjust="spacing" textLength="77" x="544.5" y="698.9482">Clickhouse</text><path d="M568,712.25 C568,702.25 586,702.25 586,702.25 C586,702.25 604,702.25 604,712.25 L604,738.25 C604,748.25 586,748.25 586,748.25 C586,748.25 568,748.25 568,738.25 L568,712.25 " fill="#E2E2F0" style="stroke:#181818;stroke-width:1.5;"/><path d="M568,712.25 C568,722.25 586,722.25 586,722.25 C586,722.25 604,722.25 604,712.25 " fill="none" style="stroke:#181818;stroke-width:1.5;"/><polygon fill="#181818" points="175,189.7656,185,193.7656,175,197.7656,179,193.7656" style="stroke:#181818;stroke-width:1.0;"/><line style="stroke:#181818;stroke-width:1.0;" x1="0" x2="181" y1="193.7656" y2="193.7656"/><text fill="#000000" font-family="sans-serif" font-size="13" lengthAdjust="spacing" textLength="82" x="7" y="143.3013">&#1057;&#1086;&#1073;&#1099;&#1090;&#1080;&#1103; url:</text><text fill="#000000" font-family="sans-serif" font-size="13" lengthAdjust="spacing" textLength="63" x="7" y="158.4341">1) user_id</text><text fill="#000000" font-family="sans-serif" font-size="13" lengthAdjust="spacing" textLength="104" x="7" y="173.5669">2) access_token</text><text fill="#000000" font-family="sans-serif" font-size="13" lengthAdjust="spacing" textLength="56" x="7" y="188.6997">3) &#1074;&#1088;&#1077;&#1084;&#1103;</text><polygon fill="#181818" points="175,309.6953,185,313.6953,175,317.6953,179,313.6953" style="stroke:#181818;stroke-width:1.0;"/><line style="stroke:#181818;stroke-width:1.0;" x1="0" x2="181" y1="313.6953" y2="313.6953"/><text fill="#000000" font-family="sans-serif" font-size="13" lengthAdjust="spacing" textLength="131" x="7" y="217.8325">&#1057;&#1086;&#1073;&#1099;&#1090;&#1080;&#1103; &#1089;&#1090;&#1088;&#1072;&#1085;&#1080;&#1094;&#1099;:</text><text fill="#000000" font-family="sans-serif" font-size="13" lengthAdjust="spacing" textLength="63" x="7" y="232.9653">1) user_id</text><text fill="#000000" font-family="sans-serif" font-size="13" lengthAdjust="spacing" textLength="104" x="7" y="248.0981">2) access_token</text><text fill="#000000" font-family="sans-serif" font-size="13" lengthAdjust="spacing" textLength="33" x="7" y="263.231">3) url</text><text fill="#000000" font-family="sans-serif" font-size="13" lengthAdjust="spacing" textLength="28" x="7" y="278.3638">4) id</text><text fill="#000000" font-family="sans-serif" font-size="13" lengthAdjust="spacing" textLength="68" x="7" y="293.4966">5) payload</text><text fill="#000000" font-family="sans-serif" font-size="13" lengthAdjust="spacing" textLength="56" x="7" y="308.6294">6) &#1074;&#1088;&#1077;&#1084;&#1103;</text><polygon fill="#181818" points="175,429.625,185,433.625,175,437.625,179,433.625" style="stroke:#181818;stroke-width:1.0;"/><line style="stroke:#181818;stroke-width:1.0;" x1="0" x2="181" y1="433.625" y2="433.625"/><text fill="#000000" font-family="sans-serif" font-size="13" lengthAdjust="spacing" textLength="115" x="7" y="337.7622">&#1057;&#1086;&#1073;&#1099;&#1090;&#1080;&#1103; &#1087;&#1083;&#1077;&#1077;&#1088;&#1072;:</text><text fill="#000000" font-family="sans-serif" font-size="13" lengthAdjust="spacing" textLength="63" x="7" y="352.895">1) user_id</text><text fill="#000000" font-family="sans-serif" font-size="13" lengthAdjust="spacing" textLength="104" x="7" y="368.0278">2) access_token</text><text fill="#000000" font-family="sans-serif" font-size="13" lengthAdjust="spacing" textLength="33" x="7" y="383.1606">3) url</text><text fill="#000000" font-family="sans-serif" font-size="13" lengthAdjust="spacing" textLength="137" x="7" y="398.2935">4) player_event_type</text><text fill="#000000" font-family="sans-serif" font-size="13" lengthAdjust="spacing" textLength="159" x="7" y="413.4263">5) player_event_payload</text><text fill="#000000" font-family="sans-serif" font-size="13" lengthAdjust="spacing" textLength="56" x="7" y="428.5591">6) &#1074;&#1088;&#1077;&#1084;&#1103;</text><polygon fill="#181818" points="318,473.8906,328,477.8906,318,481.8906,322,477.8906" style="stroke:#181818;stroke-width:1.0;"/><line style="stroke:#181818;stroke-width:1.0;" x1="187" x2="324" y1="477.8906" y2="477.8906"/><text fill="#000000" font-family="sans-serif" font-size="13" lengthAdjust="spacing" textLength="115" x="194" y="457.6919">&#1079;&#1072;&#1075;&#1088;&#1091;&#1079;&#1082;&#1072; &#1074; &#1090;&#1086;&#1087;&#1080;&#1082;</text><text fill="#000000" font-family="sans-serif" font-size="13" lengthAdjust="spacing" textLength="28" x="194" y="472.8247">user</text><polygon fill="#181818" points="318,518.1563,328,522.1563,318,526.1563,322,522.1563" style="stroke:#181818;stroke-width:1.0;"/><line style="stroke:#181818;stroke-width:1.0;" x1="187" x2="324" y1="522.1563" y2="522.1563"/><text fill="#000000" font-family="sans-serif" font-size="13" lengthAdjust="spacing" textLength="115" x="194" y="501.9575">&#1079;&#1072;&#1075;&#1088;&#1091;&#1079;&#1082;&#1072; &#1074; &#1090;&#1086;&#1087;&#1080;&#1082;</text><text fill="#000000" font-family="sans-serif" font-size="13" lengthAdjust="spacing" textLength="83" x="194" y="517.0903">web_content</text><polygon fill="#181818" points="318,562.4219,328,566.4219,318,570.4219,322,566.4219" style="stroke:#181818;stroke-width:1.0;"/><line style="stroke:#181818;stroke-width:1.0;" x1="187" x2="324" y1="566.4219" y2="566.4219"/><text fill="#000000" font-family="sans-serif" font-size="13" lengthAdjust="spacing" textLength="115" x="194" y="546.2231">&#1079;&#1072;&#1075;&#1088;&#1091;&#1079;&#1082;&#1072; &#1074; &#1090;&#1086;&#1087;&#1080;&#1082;</text><text fill="#000000" font-family="sans-serif" font-size="13" lengthAdjust="spacing" textLength="91" x="194" y="561.356">video_content</text><polygon fill="#181818" points="482,591.5547,492,595.5547,482,599.5547,486,595.5547" style="stroke:#181818;stroke-width:1.0;"/><line style="stroke:#181818;stroke-width:1.0;" x1="330" x2="488" y1="595.5547" y2="595.5547"/><text fill="#000000" font-family="sans-serif" font-size="13" lengthAdjust="spacing" textLength="140" x="337" y="590.4888">&#1074;&#1099;&#1075;&#1088;&#1091;&#1079;&#1082;&#1072; &#1080;&#1079; &#1090;&#1086;&#1087;&#1080;&#1082;&#1086;&#1074;</text><polygon fill="#181818" points="574,650.9531,584,654.9531,574,658.9531,578,654.9531" style="stroke:#181818;stroke-width:1.0;"/><line style="stroke:#181818;stroke-width:1.0;" x1="494" x2="580" y1="654.9531" y2="654.9531"/><text fill="#000000" font-family="sans-serif" font-size="13" lengthAdjust="spacing" textLength="46" x="501" y="619.6216">extract</text><text fill="#000000" font-family="sans-serif" font-size="13" lengthAdjust="spacing" textLength="64" x="501" y="634.7544">transform</text><text fill="#000000" font-family="sans-serif" font-size="13" lengthAdjust="spacing" textLength="27" x="501" y="649.8872">load</text><polygon fill="#181818" points="620.5,664.9531,630.5,668.9531,620.5,672.9531,624.5,668.9531" style="stroke:#181818;stroke-width:1.0;"/><line style="stroke:#181818;stroke-width:1.0;" x1="586" x2="626.5" y1="668.9531" y2="668.9531"/><text fill="#888888" font-family="sans-serif" font-size="10" lengthAdjust="spacing" textLength="258" x="373.5" y="14.2822">&#1044;&#1080;&#1072;&#1075;&#1088;&#1072;&#1084;&#1084;&#1072; &#1087;&#1086;&#1089;&#1083;&#1077;&#1076;&#1086;&#1074;&#1072;&#1090;&#1077;&#1083;&#1100;&#1085;&#1086;&#1089;&#1090;&#1080; data analyze</text><text fill="#888888" font-family="sans-serif" font-size="10" lengthAdjust="spacing" textLength="91" x="270.25" y="758.5322">&#1057;&#1090;&#1088;&#1072;&#1085;&#1080;&#1094;&#1072; 1 &#1080;&#1079; 1</text><!--SRC=[dPAzJiCm4CTtFyMj6JgKhw53bmeOc9a0HMxYgb5C72Lk8KnG99OYTU45U8CIg5hrYrSuln7d1cYH2YfDfEHit_z_FzlN5DmN2U0JZh2Fh-QMlbDw-u3lE3TtEC41lk4SS-oR3iKJyuWpkqAZ4VXSS-0HbzcDO3hGKi3fSOqrbDBMzTbq5eup79a7yYm3bHb2cR6O9phmWfX76hwU8ydJSEtA2M-4VEtAePRCGjHvAc3bgSd02vkgbGh6pahLmXigX4HxUJ5TIszwq4fa1SwZiWEKcRY1JuCT1xZdYJHrjGf5H3Ex3c1E6ndWrFJ-ihEdijomwMxcJH0Kx3cmIDbt8EQPLDmE3ZQjJBTbRsfWg_-pQYnvHfcYBIBjwYmMdn2hqxyH5JI4jRWXYpKisiZSKpIsRPG38Sw9RuHZqbkgBMHNekvwAj84iuMw7VX2VUiB6UcfUQmwDzsVQjkZIxrjVcPJIR5iAnAAQvrmJvC__QEqeP9BYkqviPMyKlNY0m00]--></g></svg>