<?xml version="1.0" encoding="us-ascii" standalone="no"?><svg xmlns="http://www.w3.org/2000/svg" xmlns:xlink="http://www.w3.org/1999/xlink" contentStyleType="text/css" height="581px" preserveAspectRatio="none" style="width:1440px;height:581px;background:#FFFFFF;" version="1.1" viewBox="0 0 1440 581" width="1440px" zoomAndPan="magnify"><defs/><g><text fill="#888888" font-family="sans-serif" font-size="10" lengthAdjust="spacing" textLength="246" x="1180.5" y="9.2822">&#1050;&#1086;&#1084;&#1087;&#1086;&#1085;&#1077;&#1085;&#1090;&#1085;&#1072;&#1103; &#1076;&#1080;&#1072;&#1075;&#1088;&#1072;&#1084;&#1084;&#1072; &#1089;&#1077;&#1088;&#1074;&#1080;&#1089;&#1072; Notification</text><text fill="#000000" font-family="sans-serif" font-size="14" font-weight="bold" lengthAdjust="spacing" textLength="375" x="525.75" y="35.6357">&#1050;&#1086;&#1084;&#1087;&#1086;&#1085;&#1077;&#1085;&#1090;&#1085;&#1072;&#1103; &#1076;&#1080;&#1072;&#1075;&#1088;&#1072;&#1084;&#1084;&#1072; &#1089;&#1077;&#1088;&#1074;&#1080;&#1089;&#1072; Notification</text><!--entity ??????--><g id="elem_&#1050;&#1083;&#1080;&#1077;&#1085;&#1090;"><ellipse cx="165.5" cy="179.8375" fill="#F1F1F1" rx="8" ry="8" style="stroke:#181818;stroke-width:0.5;"/><path d="M165.5,187.8375 L165.5,214.8375 M152.5,195.8375 L178.5,195.8375 M165.5,214.8375 L152.5,229.8375 M165.5,214.8375 L178.5,229.8375 " fill="none" style="stroke:#181818;stroke-width:0.5;"/><text fill="#000000" font-family="sans-serif" font-size="14" lengthAdjust="spacing" textLength="55" x="138" y="244.3326">&#1050;&#1083;&#1080;&#1077;&#1085;&#1090;</text></g><!--entity API--><g id="elem_API"><rect fill="#F1F1F1" height="46.2969" rx="2.5" ry="2.5" style="stroke:#181818;stroke-width:0.5;" width="61" x="228" y="186.3375"/><rect fill="#F1F1F1" height="10" style="stroke:#181818;stroke-width:0.5;" width="15" x="269" y="191.3375"/><rect fill="#F1F1F1" height="2" style="stroke:#181818;stroke-width:0.5;" width="4" x="267" y="193.3375"/><rect fill="#F1F1F1" height="2" style="stroke:#181818;stroke-width:0.5;" width="4" x="267" y="197.3375"/><text fill="#000000" font-family="sans-serif" font-size="14" lengthAdjust="spacing" textLength="21" x="243" y="219.3326">API</text></g><!--entity Worker1--><g id="elem_Worker1"><rect fill="#F1F1F1" height="46.2969" rx="2.5" ry="2.5" style="stroke:#181818;stroke-width:0.5;" width="132" x="607.5" y="393.9375"/><rect fill="#F1F1F1" height="10" style="stroke:#181818;stroke-width:0.5;" width="15" x="719.5" y="398.9375"/><rect fill="#F1F1F1" height="2" style="stroke:#181818;stroke-width:0.5;" width="4" x="717.5" y="400.9375"/><rect fill="#F1F1F1" height="2" style="stroke:#181818;stroke-width:0.5;" width="4" x="717.5" y="404.9375"/><text fill="#000000" font-family="sans-serif" font-size="14" lengthAdjust="spacing" textLength="92" x="622.5" y="426.9326">StorageSaver</text></g><!--entity Audience--><g id="elem_Audience"><rect fill="#F1F1F1" height="46.2969" rx="2.5" ry="2.5" style="stroke:#181818;stroke-width:0.5;" width="105" x="504" y="186.3375"/><rect fill="#F1F1F1" height="10" style="stroke:#181818;stroke-width:0.5;" width="15" x="589" y="191.3375"/><rect fill="#F1F1F1" height="2" style="stroke:#181818;stroke-width:0.5;" width="4" x="587" y="193.3375"/><rect fill="#F1F1F1" height="2" style="stroke:#181818;stroke-width:0.5;" width="4" x="587" y="197.3375"/><text fill="#000000" font-family="sans-serif" font-size="14" lengthAdjust="spacing" textLength="65" x="519" y="219.3326">Audience</text></g><!--entity Sheduler--><g id="elem_Sheduler"><rect fill="#F1F1F1" height="46.2969" rx="2.5" ry="2.5" style="stroke:#181818;stroke-width:0.5;" width="102" x="900.5" y="186.3375"/><rect fill="#F1F1F1" height="10" style="stroke:#181818;stroke-width:0.5;" width="15" x="982.5" y="191.3375"/><rect fill="#F1F1F1" height="2" style="stroke:#181818;stroke-width:0.5;" width="4" x="980.5" y="193.3375"/><rect fill="#F1F1F1" height="2" style="stroke:#181818;stroke-width:0.5;" width="4" x="980.5" y="197.3375"/><text fill="#000000" font-family="sans-serif" font-size="14" lengthAdjust="spacing" textLength="62" x="915.5" y="219.3326">Sheduler</text></g><!--entity Worker2--><g id="elem_Worker2"><rect fill="#F1F1F1" height="46.2969" rx="2.5" ry="2.5" style="stroke:#181818;stroke-width:0.5;" width="166" x="1268.5" y="186.3375"/><rect fill="#F1F1F1" height="10" style="stroke:#181818;stroke-width:0.5;" width="15" x="1414.5" y="191.3375"/><rect fill="#F1F1F1" height="2" style="stroke:#181818;stroke-width:0.5;" width="4" x="1412.5" y="193.3375"/><rect fill="#F1F1F1" height="2" style="stroke:#181818;stroke-width:0.5;" width="4" x="1412.5" y="197.3375"/><text fill="#000000" font-family="sans-serif" font-size="14" lengthAdjust="spacing" textLength="126" x="1283.5" y="219.3326">NotificationSender</text></g><!--entity Storage--><g id="elem_Storage"><path d="M636.5,510.2275 C636.5,500.2275 673.5,500.2275 673.5,500.2275 C673.5,500.2275 710.5,500.2275 710.5,510.2275 L710.5,535.5244 C710.5,545.5244 673.5,545.5244 673.5,545.5244 C673.5,545.5244 636.5,545.5244 636.5,535.5244 L636.5,510.2275 " fill="#F1F1F1" style="stroke:#181818;stroke-width:0.5;"/><path d="M636.5,510.2275 C636.5,520.2275 673.5,520.2275 673.5,520.2275 C673.5,520.2275 710.5,520.2275 710.5,510.2275 " fill="none" style="stroke:#181818;stroke-width:0.5;"/><text fill="#000000" font-family="sans-serif" font-size="14" lengthAdjust="spacing" textLength="54" x="646.5" y="537.2226">Storage</text></g><!--entity Queue1--><g id="elem_Queue1"><path d="M329,196.3375 L464,196.3375 C469,196.3375 469,209.4859 469,209.4859 C469,209.4859 469,222.6344 464,222.6344 L329,222.6344 C324,222.6344 324,209.4859 324,209.4859 C324,209.4859 324,196.3375 329,196.3375 " fill="#F1F1F1" style="stroke:#181818;stroke-width:0.5;"/><path d="M464,196.3375 C459,196.3375 459,209.4859 459,209.4859 C459,222.6344 464,222.6344 464,222.6344 " fill="none" style="stroke:#181818;stroke-width:0.5;"/><text fill="#000000" font-family="sans-serif" font-size="14" lengthAdjust="spacing" textLength="125" x="329" y="214.3326">Notification queue</text></g><!--entity Queue2--><g id="elem_Queue2"><path d="M662.5,307.6375 L844.5,307.6375 C849.5,307.6375 849.5,320.7859 849.5,320.7859 C849.5,320.7859 849.5,333.9344 844.5,333.9344 L662.5,333.9344 C657.5,333.9344 657.5,320.7859 657.5,320.7859 C657.5,320.7859 657.5,307.6375 662.5,307.6375 " fill="#F1F1F1" style="stroke:#181818;stroke-width:0.5;"/><path d="M844.5,307.6375 C839.5,307.6375 839.5,320.7859 839.5,320.7859 C839.5,333.9344 844.5,333.9344 844.5,333.9344 " fill="none" style="stroke:#181818;stroke-width:0.5;"/><text fill="#000000" font-family="sans-serif" font-size="14" lengthAdjust="spacing" textLength="172" x="662.5" y="325.6326">Notification status queue</text></g><!--entity Queue4--><g id="elem_Queue4"><path d="M1043,196.3375 L1228,196.3375 C1233,196.3375 1233,209.4859 1233,209.4859 C1233,209.4859 1233,222.6344 1228,222.6344 L1043,222.6344 C1038,222.6344 1038,209.4859 1038,209.4859 C1038,209.4859 1038,196.3375 1043,196.3375 " fill="#F1F1F1" style="stroke:#181818;stroke-width:0.5;"/><path d="M1228,196.3375 C1223,196.3375 1223,209.4859 1223,209.4859 C1223,222.6344 1228,222.6344 1228,222.6344 " fill="none" style="stroke:#181818;stroke-width:0.5;"/><text fill="#000000" font-family="sans-serif" font-size="14" lengthAdjust="spacing" textLength="175" x="1043" y="214.3326">Instant notification queue</text></g><!--entity Queue5--><g id="elem_Queue5"><path d="M648.5,196.3375 L860.5,196.3375 C865.5,196.3375 865.5,209.4859 865.5,209.4859 C865.5,209.4859 865.5,222.6344 860.5,222.6344 L648.5,222.6344 C643.5,222.6344 643.5,209.4859 643.5,209.4859 C643.5,209.4859 643.5,196.3375 648.5,196.3375 " fill="#F1F1F1" style="stroke:#181818;stroke-width:0.5;"/><path d="M860.5,196.3375 C855.5,196.3375 855.5,209.4859 855.5,209.4859 C855.5,222.6344 860.5,222.6344 860.5,222.6344 " fill="none" style="stroke:#181818;stroke-width:0.5;"/><text fill="#000000" font-family="sans-serif" font-size="14" lengthAdjust="spacing" textLength="202" x="648.5" y="214.3326">Scheduled notification queue</text></g><g id="elem_GMN32"><path d="M6,55.9375 L6,111.3359 A0,0 0 0 0 6,111.3359 L161.5,111.3359 L165.5,171.0375 L169.5,111.3359 L325,111.3359 A0,0 0 0 0 325,111.3359 L325,65.9375 L315,55.9375 L6,55.9375 A0,0 0 0 0 6,55.9375 " fill="#FEFFDD" style="stroke:#181818;stroke-width:0.5;"/><path d="M315,55.9375 L315,65.9375 L325,65.9375 L315,55.9375 " fill="#FEFFDD" style="stroke:#181818;stroke-width:0.5;"/><text fill="#000000" font-family="sans-serif" font-size="13" lengthAdjust="spacing" textLength="143" x="12" y="73.0044">- &#1043;&#1077;&#1085;&#1077;&#1088;&#1072;&#1090;&#1086;&#1088; &#1089;&#1086;&#1073;&#1099;&#1090;&#1080;&#1081;</text><text fill="#000000" font-family="sans-serif" font-size="13" lengthAdjust="spacing" textLength="69" x="12" y="88.1372">- &#1040;&#1076;&#1084;&#1080;&#1085;&#1082;&#1072;</text><text fill="#000000" font-family="sans-serif" font-size="13" lengthAdjust="spacing" textLength="298" x="12" y="103.27">- &#1042;&#1085;&#1091;&#1090;&#1088;&#1077;&#1085;&#1085;&#1080;&#1077; &#1084;&#1080;&#1082;&#1088;&#1086;&#1089;&#1077;&#1088;&#1074;&#1080;&#1089;&#1099;, &#1085;&#1072;&#1087;&#1088;&#1080;&#1084;&#1077;&#1088; Auth</text></g><!--link ?????? to API--><g id="link_&#1050;&#1083;&#1080;&#1077;&#1085;&#1090;_API"><path d="M193.47,209.4875 C204.82,209.4875 210.16,209.4875 221.51,209.4875 " fill="none" id="&#1050;&#1083;&#1080;&#1077;&#1085;&#1090;-to-API" style="stroke:#181818;stroke-width:1.0;"/><polygon fill="#181818" points="227.51,209.4875,218.51,205.4875,222.51,209.4875,218.51,213.4875,227.51,209.4875" style="stroke:#181818;stroke-width:1.0;"/></g><!--link API to Queue1--><g id="link_API_Queue1"><path d="M289.5,209.4875 C300.92,209.4875 306.35,209.4875 317.77,209.4875 " fill="none" id="API-to-Queue1" style="stroke:#181818;stroke-width:1.0;"/><polygon fill="#181818" points="323.77,209.4875,314.77,205.4875,318.77,209.4875,314.77,213.4875,323.77,209.4875" style="stroke:#181818;stroke-width:1.0;"/></g><!--reverse link Queue1 to Worker1--><g id="link_Queue1_Worker1"><path d="M418.228,226.6134 C463.808,260.4434 584.85,350.2875 643.14,393.5475 " fill="none" id="Queue1-backto-Worker1" style="stroke:#181818;stroke-width:1.0;"/><polygon fill="#181818" points="413.41,223.0375,418.253,231.6134,417.425,226.0174,423.0209,225.1894,413.41,223.0375" style="stroke:#181818;stroke-width:1.0;"/></g><!--reverse link Queue2 to Worker1--><g id="link_Queue2_Worker1"><path d="M739.1575,338.6921 C726.3675,353.7621 708.35,374.9975 692.54,393.6375 " fill="none" id="Queue2-backto-Worker1" style="stroke:#181818;stroke-width:1.0;"/><polygon fill="#181818" points="743.04,334.1175,734.1666,338.391,739.8046,337.9296,740.266,343.5676,743.04,334.1175" style="stroke:#181818;stroke-width:1.0;"/></g><!--link Worker1 to Storage--><g id="link_Worker1_Storage"><path d="M673.5,440.6075 C673.5,458.1375 673.5,476.3275 673.5,493.7575 " fill="none" id="Worker1-to-Storage" style="stroke:#181818;stroke-width:1.0;"/><polygon fill="#181818" points="673.5,499.7575,677.5,490.7575,673.5,494.7575,669.5,490.7575,673.5,499.7575" style="stroke:#181818;stroke-width:1.0;"/></g><!--reverse link Queue1 to Audience--><g id="link_Queue1_Audience"><path d="M475.31,209.4875 C486.78,209.4875 492.24,209.4875 503.71,209.4875 " fill="none" id="Queue1-backto-Audience" style="stroke:#181818;stroke-width:1.0;"/><polygon fill="#181818" points="469.31,209.4875,478.31,213.4875,474.31,209.4875,478.31,205.4875,469.31,209.4875" style="stroke:#181818;stroke-width:1.0;"/></g><!--link Audience to Queue4--><g id="link_Audience_Queue4"><path d="M578.06,185.9275 C594.39,169.9375 618.32,150.1575 644,141.3375 C719.45,115.4275 925.46,122.5675 1003,141.3375 C1046.49,151.8675 1086.7345,175.9343 1111.4845,192.6143 " fill="none" id="Audience-to-Queue4" style="stroke:#181818;stroke-width:1.0;"/><polygon fill="#181818" points="1116.46,195.9675,1111.2322,187.6207,1112.3137,193.1732,1106.7612,194.2547,1116.46,195.9675" style="stroke:#181818;stroke-width:1.0;"/></g><!--link Audience to Queue5--><g id="link_Audience_Queue5"><path d="M609.48,209.4875 C620.72,209.4875 625.95,209.4875 637.19,209.4875 " fill="none" id="Audience-to-Queue5" style="stroke:#181818;stroke-width:1.0;"/><polygon fill="#181818" points="643.19,209.4875,634.19,205.4875,638.19,209.4875,634.19,213.4875,643.19,209.4875" style="stroke:#181818;stroke-width:1.0;"/></g><!--link Audience to Queue2--><g id="link_Audience_Queue2"><path d="M597.32,233.1375 C637.78,255.5775 693.0335,286.2365 725.5835,304.2965 " fill="none" id="Audience-to-Queue2" style="stroke:#181818;stroke-width:1.0;"/><polygon fill="#181818" points="730.83,307.2075,724.9008,299.3433,726.4579,304.7817,721.0195,306.3387,730.83,307.2075" style="stroke:#181818;stroke-width:1.0;"/></g><!--reverse link Queue5 to Sheduler--><g id="link_Queue5_Sheduler"><path d="M871.7,209.4875 C883.2,209.4875 888.71,209.4875 900.22,209.4875 " fill="none" id="Queue5-backto-Sheduler" style="stroke:#181818;stroke-width:1.0;"/><polygon fill="#181818" points="865.7,209.4875,874.7,213.4875,870.7,209.4875,874.7,205.4875,865.7,209.4875" style="stroke:#181818;stroke-width:1.0;"/></g><!--link Sheduler to Queue4--><g id="link_Sheduler_Queue4"><path d="M1002.89,209.4875 C1014.46,209.4875 1020.03,209.4875 1031.6,209.4875 " fill="none" id="Sheduler-to-Queue4" style="stroke:#181818;stroke-width:1.0;"/><polygon fill="#181818" points="1037.6,209.4875,1028.6,205.4875,1032.6,209.4875,1028.6,213.4875,1037.6,209.4875" style="stroke:#181818;stroke-width:1.0;"/></g><!--link Sheduler to Queue2--><g id="link_Sheduler_Queue2"><path d="M910.47,233.1375 C869.81,255.5775 814.253,286.2481 781.533,304.3081 " fill="none" id="Sheduler-to-Queue2" style="stroke:#181818;stroke-width:1.0;"/><polygon fill="#181818" points="776.28,307.2075,786.0924,306.3604,780.6575,304.7913,782.2265,299.3564,776.28,307.2075" style="stroke:#181818;stroke-width:1.0;"/></g><!--reverse link Queue4 to Worker2--><g id="link_Queue4_Worker2"><path d="M1239.38,209.4875 C1251.06,209.4875 1256.75,209.4875 1268.44,209.4875 " fill="none" id="Queue4-backto-Worker2" style="stroke:#181818;stroke-width:1.0;"/><polygon fill="#181818" points="1233.38,209.4875,1242.38,213.4875,1238.38,209.4875,1242.38,205.4875,1233.38,209.4875" style="stroke:#181818;stroke-width:1.0;"/></g><!--link Worker2 to Queue2--><g id="link_Worker2_Queue2"><path d="M1296.32,233.1375 C1281.62,238.5175 1265.62,243.8075 1250.5,247.6375 C1113.59,282.3475 956.9021,301.4397 855.9121,311.2097 " fill="none" id="Worker2-to-Queue2" style="stroke:#181818;stroke-width:1.0;"/><polygon fill="#181818" points="849.94,311.7875,859.2833,314.9023,854.9168,311.306,858.513,306.9395,849.94,311.7875" style="stroke:#181818;stroke-width:1.0;"/></g><text fill="#888888" font-family="sans-serif" font-size="10" lengthAdjust="spacing" textLength="89" x="668.75" y="570.8066">&#1057;&#1090;&#1088;&#1072;&#1085;&#1080;&#1094;&#1072; 1 &#1080;&#1079; 1</text><!--SRC=[hLEzZjD04ExtAKQfSP4eQP4GrJK8v89wpvx4LfpTi5vpeZiEYUOA47Hql87vEH7kujmhZD-8sKrytln0XIsjlTzyyytix4mvpzLI6hc0SvdCPqPNAdsg2stW8iijYlB1dkZ5KYjKDhPl2eHgKOo4o52cQ82-q8RMTCzhGpVKj5VyhTiFG3zfHJNzQ2zvNVDRG_kMRdZxdLRyLyCpRVDfdaYRQoLiRbdwVwbDjROkkQ_jbVTecFIUIKDWcLym548cLllixnZnaSJ3CU79yxDWzrAREPeXo186CNl96SRoDPf1w56bEQe40oZECAqAD4TA8wyKvXkZIfrUAgqyboN2BenuLM65yCAjmoClyDP1I3gMXj9AMvKdk6FFFLDCuDJKluKdszCdspEb9-aYh2P49fzbDdhiYobuwP7jUOJe2XjLonuz0OvwCDKNYk6kFgAhEqG5JWFj7jyBElwROH8OTZ5seKLtZ_iX9W5-4A8t72XrrxydDExX0phN6C7g9UZfVgC2Fn7GPxVrCr3pd6pQIpSI6_hMNlDsHRyxtaSUdZK33TrItO6VMEcTdmudqZXjyAnRXZRXRBNNZy1D8Tqpic8EMxZVRIQuQrqZu1y0]--></g></svg>